<svg width="40" height="40" viewBox="0 0 40 40" fill="none" xmlns="http://www.w3.org/2000/svg">
<circle opacity="0.05" cx="20" cy="20" r="20" fill="#FE7A01"/>
<path opacity="0.4" d="M20 15.8748C20.221 15.8748 20.433 15.787 20.5893 15.6307C20.7457 15.4744 20.8335 15.2624 20.8335 15.0413C20.8335 14.8202 20.7457 14.6082 20.5893 14.4519C20.433 14.2956 20.221 14.2078 20 14.2078C19.7789 14.2078 19.5669 14.2956 19.4106 14.4519C19.2543 14.6082 19.1665 14.8202 19.1665 15.0413C19.1665 15.2624 19.2543 15.4744 19.4106 15.6307C19.5669 15.787 19.7789 15.8748 20 15.8748ZM13.5 27.0008H18.336C18.1855 26.6846 18.0837 26.3475 18.034 26.0008H14V25.1678C14 24.5228 14.523 24.0008 15.167 24.0008H18.337C18.515 23.6258 18.757 23.2878 19.051 23.0008H18V18.0008H19.5V22.6278C19.801 22.4178 20.138 22.2528 20.5 22.1458V17.9998H22V21.9998H23V18.0008H25V22.0008H25.499C25.669 22.0008 25.836 22.0128 25.999 22.0368V17.9998H26.092C26.985 17.9998 27.352 16.8528 26.622 16.3358L20.772 12.1838C20.5464 12.0236 20.2766 11.9375 20 11.9375C19.7233 11.9375 19.4535 12.0236 19.228 12.1838L13.376 16.3358C12.648 16.8528 13.013 17.9998 13.906 17.9998H14V23.3398C13.399 23.7258 13 24.3998 13 25.1668V26.4998C13 26.6324 13.0527 26.7596 13.1464 26.8534C13.2402 26.9471 13.3674 27.0008 13.5 27.0008ZM19.806 13.0008C19.8622 12.9609 19.9295 12.9395 19.9985 12.9395C20.0674 12.9395 20.1347 12.9609 20.191 13.0008L25.83 17.0008H14.168L19.807 13.0008H19.806ZM14.999 23.0058V18.0008H16.999V23.0008H15.166C15.11 23.0008 15.054 23.0018 14.999 23.0058Z" fill="#FE7A01"/>
<path d="M21.5 23C20.837 23 20.2011 23.2634 19.7322 23.7322C19.2634 24.2011 19 24.837 19 25.5C19 26.163 19.2634 26.7989 19.7322 27.2678C20.2011 27.7366 20.837 28 21.5 28H22C22.1326 28 22.2598 27.9473 22.3536 27.8536C22.4473 27.7598 22.5 27.6326 22.5 27.5C22.5 27.3674 22.4473 27.2402 22.3536 27.1464C22.2598 27.0527 22.1326 27 22 27H21.5C21.1022 27 20.7206 26.842 20.4393 26.5607C20.158 26.2794 20 25.8978 20 25.5C20 25.1022 20.158 24.7206 20.4393 24.4393C20.7206 24.158 21.1022 24 21.5 24H22C22.1326 24 22.2598 23.9473 22.3536 23.8536C22.4473 23.7598 22.5 23.6326 22.5 23.5C22.5 23.3674 22.4473 23.2402 22.3536 23.1464C22.2598 23.0527 22.1326 23 22 23H21.5ZM25 23C24.8674 23 24.7402 23.0527 24.6464 23.1464C24.5527 23.2402 24.5 23.3674 24.5 23.5C24.5 23.6326 24.5527 23.7598 24.6464 23.8536C24.7402 23.9473 24.8674 24 25 24H25.5C25.8978 24 26.2794 24.158 26.5607 24.4393C26.842 24.7206 27 25.1022 27 25.5C27 25.8978 26.842 26.2794 26.5607 26.5607C26.2794 26.842 25.8978 27 25.5 27H25C24.8674 27 24.7402 27.0527 24.6464 27.1464C24.5527 27.2402 24.5 27.3674 24.5 27.5C24.5 27.6326 24.5527 27.7598 24.6464 27.8536C24.7402 27.9473 24.8674 28 25 28H25.5C26.163 28 26.7989 27.7366 27.2678 27.2678C27.7366 26.7989 28 26.163 28 25.5C28 24.837 27.7366 24.2011 27.2678 23.7322C26.7989 23.2634 26.163 23 25.5 23H25ZM21 25.5C21 25.3674 21.0527 25.2402 21.1464 25.1464C21.2402 25.0527 21.3674 25 21.5 25H25.5C25.6326 25 25.7598 25.0527 25.8536 25.1464C25.9473 25.2402 26 25.3674 26 25.5C26 25.6326 25.9473 25.7598 25.8536 25.8536C25.7598 25.9473 25.6326 26 25.5 26H21.5C21.3674 26 21.2402 25.9473 21.1464 25.8536C21.0527 25.7598 21 25.6326 21 25.5Z" fill="#FE7A01"/>
</svg>
