<svg width="14" height="16" viewBox="0 0 14 16" fill="none" xmlns="http://www.w3.org/2000/svg">
<path d="M9.5 3H13.25C13.4158 3 13.5747 3.06585 13.6919 3.18306C13.8092 3.30027 13.875 3.45924 13.875 3.625C13.875 3.79076 13.8092 3.94973 13.6919 4.06694C13.5747 4.18415 13.4158 4.25 13.25 4.25H12.5587L11.6187 12.72C11.5338 13.4844 11.17 14.1907 10.5969 14.7036C10.0238 15.2165 9.28163 15.5001 8.5125 15.5H5.4875C4.71837 15.5001 3.97623 15.2165 3.40311 14.7036C2.82999 14.1907 2.46616 13.4844 2.38125 12.72L1.44 4.25H0.75C0.58424 4.25 0.425269 4.18415 0.308058 4.06694C0.190848 3.94973 0.125 3.79076 0.125 3.625C0.125 3.45924 0.190848 3.30027 0.308058 3.18306C0.425269 3.06585 0.58424 3 0.75 3H4.5C4.5 2.33696 4.76339 1.70107 5.23223 1.23223C5.70107 0.763392 6.33696 0.5 7 0.5C7.66304 0.5 8.29893 0.763392 8.76777 1.23223C9.23661 1.70107 9.5 2.33696 9.5 3ZM7 1.75C6.66848 1.75 6.35054 1.8817 6.11612 2.11612C5.8817 2.35054 5.75 2.66848 5.75 3H8.25C8.25 2.66848 8.1183 2.35054 7.88388 2.11612C7.64946 1.8817 7.33152 1.75 7 1.75ZM5.125 6.75V11.75C5.125 11.9158 5.19085 12.0747 5.30806 12.1919C5.42527 12.3092 5.58424 12.375 5.75 12.375C5.91576 12.375 6.07473 12.3092 6.19194 12.1919C6.30915 12.0747 6.375 11.9158 6.375 11.75V6.75C6.375 6.58424 6.30915 6.42527 6.19194 6.30806C6.07473 6.19085 5.91576 6.125 5.75 6.125C5.58424 6.125 5.42527 6.19085 5.30806 6.30806C5.19085 6.42527 5.125 6.58424 5.125 6.75ZM8.25 6.125C8.08424 6.125 7.92527 6.19085 7.80806 6.30806C7.69085 6.42527 7.625 6.58424 7.625 6.75V11.75C7.625 11.9158 7.69085 12.0747 7.80806 12.1919C7.92527 12.3092 8.08424 12.375 8.25 12.375C8.41576 12.375 8.57473 12.3092 8.69194 12.1919C8.80915 12.0747 8.875 11.9158 8.875 11.75V6.75C8.875 6.58424 8.80915 6.42527 8.69194 6.30806C8.57473 6.19085 8.41576 6.125 8.25 6.125Z" fill="#DC1D10"/>
</svg>
