<svg width="24" height="24" viewBox="0 0 24 24" fill="none" xmlns="http://www.w3.org/2000/svg">
<path fill-rule="evenodd" clip-rule="evenodd" d="M11.3721 3.39453V13.6187L9.73757 11.9786L9.6536 11.9058C9.36043 11.6873 8.94372 11.7107 8.67691 11.9764C8.38341 12.2687 8.38244 12.7436 8.67473 13.0371L11.5907 15.9651L11.593 15.967C11.6176 15.9916 11.644 16.0144 11.6718 16.0354L11.6749 16.038C11.969 16.257 12.3871 16.2327 12.6536 15.9651L15.5696 13.0371L15.642 12.9528C15.8593 12.6587 15.8342 12.2421 15.5674 11.9764L15.4831 11.904C15.1891 11.6867 14.7724 11.7118 14.5067 11.9786L12.8721 13.6192V3.39453L12.8653 3.29276C12.8156 2.92669 12.5018 2.64453 12.1221 2.64453C11.7079 2.64453 11.3721 2.98032 11.3721 3.39453ZM17.9053 21.1161C20.2527 21.0074 22.1219 19.0703 22.1219 16.696V11.812L22.1171 11.6031C22.0082 9.25012 20.0674 7.37695 17.6879 7.37695H16.7549L16.6532 7.3838C16.2871 7.43346 16.0049 7.74726 16.0049 8.12695C16.0049 8.54117 16.3407 8.87695 16.7549 8.87695H17.6879L17.8604 8.88193C19.401 8.97116 20.6219 10.2482 20.6219 11.812V16.696L20.617 16.8679C20.528 18.4036 19.255 19.621 17.6969 19.621H6.55695L6.38451 19.616C4.84397 19.5267 3.62195 18.2489 3.62195 16.686V11.801L3.62691 11.6292C3.71591 10.0946 4.98959 8.87695 6.54695 8.87695H7.48895L7.59072 8.87011C7.95679 8.82044 8.23895 8.50665 8.23895 8.12695C8.23895 7.71274 7.90316 7.37695 7.48895 7.37695H6.54695L6.3326 7.38206C3.98875 7.49388 2.12195 9.42972 2.12195 11.801V16.686L2.12678 16.8947C2.2358 19.247 4.17771 21.121 6.55695 21.121H17.6969L17.9053 21.1161Z" fill="#9A77CF"/>
</svg>
