<svg width="24" height="24" viewBox="0 0 24 24" fill="none" xmlns="http://www.w3.org/2000/svg">
<path fill-rule="evenodd" clip-rule="evenodd" d="M2.02148 12.6695C2.02148 10.2903 3.89542 8.34837 6.24772 8.23934L6.45648 8.23452H7.38948C7.8037 8.23452 8.13948 8.5703 8.13948 8.98452C8.13948 9.36421 7.85733 9.67801 7.49125 9.72767L7.38948 9.73452H6.45648C4.89358 9.73452 3.61575 10.9565 3.52647 12.4971L3.52148 12.6695L3.52148 17.5445C3.52148 19.1066 4.74362 20.3843 6.28406 20.4735L6.45648 20.4785H17.5865C19.1493 20.4785 20.4272 19.2566 20.5165 17.7169L20.5215 17.5445V12.6595C20.5215 11.1022 19.3039 9.82847 17.7693 9.73948L17.5975 9.73452H16.6545C16.2403 9.73452 15.9045 9.39873 15.9045 8.98452C15.9045 8.60482 16.1866 8.29103 16.5527 8.24136L16.6545 8.23452H17.5975C19.9687 8.23452 21.9046 10.1013 22.0164 12.4452L22.0215 12.6595V17.5445C22.0215 19.923 20.1474 21.8647 17.7952 21.9737L17.5865 21.9785H6.45648C4.07743 21.9785 2.13535 20.1048 2.02631 17.7532L2.02148 17.5445V12.6695ZM12.4712 1.59125L12.4685 1.58891C12.1744 1.36996 11.7563 1.39433 11.4898 1.66199L8.57481 4.58999L8.50238 4.67427C8.28518 4.96837 8.31032 5.38498 8.57717 5.65065L8.66145 5.72308C8.95555 5.94028 9.37216 5.91515 9.63783 5.64829L11.2714 4.0067L11.2714 14.2324L11.2782 14.3342C11.3279 14.7003 11.6417 14.9824 12.0214 14.9824C12.4356 14.9824 12.7714 14.6466 12.7714 14.2324L12.7714 4.00825L14.4059 5.64838L14.4899 5.72117C14.783 5.93963 15.1998 5.91628 15.4666 5.65056C15.7601 5.35827 15.761 4.88339 15.4687 4.5899L12.5527 1.6619L12.5509 1.66033C12.526 1.6355 12.4994 1.6124 12.4712 1.59125Z" fill="#FE7A01"/>
</svg>
