<svg width="414" height="326" viewBox="0 0 414 326" fill="none" xmlns="http://www.w3.org/2000/svg">
<path fill-rule="evenodd" clip-rule="evenodd" d="M274.733 26.6753C300.188 2.90111 307.837 -44.9816 342.577 -47.4887C377.534 -50.0115 399.759 -11.5999 421.227 16.1032C439.889 40.1835 457.154 66.9731 454.82 97.3483C452.572 126.591 433.015 151.312 409.488 168.825C388.636 184.346 362.097 181.91 336.355 185.529C301.166 190.476 263.603 213.312 234.117 193.48C202.411 172.154 185.892 127.534 194.932 90.4083C203.304 56.0234 248.869 50.8311 274.733 26.6753Z" fill="url(#paint0_linear_358_1054)"/>
<path fill-rule="evenodd" clip-rule="evenodd" d="M-33.0102 56.5885C-11.4243 36.4279 -4.93764 -4.17673 24.5221 -6.30278C54.1658 -8.44209 73.012 24.1311 91.2175 47.6233C107.042 68.0435 121.684 90.7611 119.704 116.519C117.798 141.318 101.214 162.281 81.2625 177.132C63.5798 190.294 41.0745 188.228 19.2455 191.297C-10.5944 195.492 -42.4483 214.857 -67.4522 198.039C-94.3391 179.955 -108.347 142.117 -100.682 110.634C-93.5817 81.4758 -54.9424 77.0727 -33.0102 56.5885Z" fill="#FE7A01"/>
<path fill-rule="evenodd" clip-rule="evenodd" d="M34.5055 206.593C52.846 203.059 69.9792 183.5 86.4688 192.272C103.061 201.099 102.195 224.88 104.04 243.584C105.644 259.841 105.841 276.931 96.1158 290.058C86.7527 302.695 70.8205 308.341 55.1416 309.581C41.2454 310.68 29.8899 302.003 17.1691 296.302C-0.220189 288.51 -23.7911 288.163 -31.522 270.747C-39.8351 252.019 -34.6069 227.045 -19.911 212.767C-6.30017 199.542 15.8707 210.183 34.5055 206.593Z" fill="#9A77CF"/>
<path fill-rule="evenodd" clip-rule="evenodd" d="M157.439 186.464C164.287 177.556 164.198 161.914 175.122 159.285C186.114 156.639 195.212 167.693 203.505 175.378C210.713 182.058 217.62 189.674 218.478 199.464C219.304 208.889 214.383 217.788 207.819 224.601C202.001 230.64 193.426 231.264 185.424 233.772C174.486 237.202 163.735 246.449 153.306 241.692C142.091 236.576 134.481 223.246 135.401 210.954C136.254 199.57 150.481 195.515 157.439 186.464Z" fill="url(#paint1_linear_358_1054)"/>
<path fill-rule="evenodd" clip-rule="evenodd" d="M153.64 127.198C157.364 122.354 157.316 113.848 163.256 112.418C169.234 110.98 174.181 116.99 178.691 121.169C182.61 124.802 186.366 128.943 186.833 134.267C187.282 139.393 184.606 144.232 181.036 147.937C177.873 151.221 173.21 151.56 168.858 152.924C162.91 154.789 157.064 159.818 151.392 157.231C145.294 154.449 141.156 147.2 141.656 140.516C142.12 134.325 149.857 132.12 153.64 127.198Z" fill="#FE7A01"/>
<path fill-rule="evenodd" clip-rule="evenodd" d="M138.742 36.0477C143.965 24.3884 139.737 7.11266 151.124 1.32159C162.583 -4.50564 175.562 5.31727 186.762 11.6276C196.497 17.1127 206.146 23.7122 209.679 34.3131C213.081 44.5189 209.987 55.6588 204.526 64.927C199.685 73.1415 190.366 76.0943 182.179 80.9807C170.987 87.6605 161.538 100.726 148.748 98.2171C134.995 95.5196 123.061 82.786 120.834 68.9489C118.772 56.1334 133.436 47.8941 138.742 36.0477Z" fill="#543884"/>
<path fill-rule="evenodd" clip-rule="evenodd" d="M241.917 13.2688C245.37 9.83835 246.231 3.11774 251.072 2.61749C255.944 2.11412 259.214 7.38288 262.332 11.1593C265.042 14.4419 267.569 18.1088 267.375 22.3613C267.187 26.4553 264.562 29.9924 261.352 32.54C258.507 34.7979 254.79 34.5722 251.21 35.1889C246.317 36.0318 241.169 39.3835 236.965 36.7411C232.445 33.8996 229.945 27.7391 231.047 22.5148C232.068 17.6763 238.409 16.7542 241.917 13.2688Z" fill="#FE7A01"/>
<path fill-rule="evenodd" clip-rule="evenodd" d="M103.917 16.2688C107.37 12.8384 108.231 6.11774 113.072 5.61749C117.944 5.11412 121.214 10.3829 124.332 14.1593C127.042 17.4419 129.569 21.1088 129.375 25.3613C129.187 29.4553 126.562 32.9924 123.352 35.54C120.507 37.7979 116.79 37.5722 113.21 38.1889C108.317 39.0318 103.169 42.3835 98.9654 39.7411C94.4451 36.8996 91.9451 30.7391 93.0473 25.5148C94.0681 20.6763 100.409 19.7542 103.917 16.2688Z" fill="#262254"/>
<path fill-rule="evenodd" clip-rule="evenodd" d="M282.917 213.269C286.37 209.838 287.231 203.118 292.072 202.617C296.944 202.114 300.214 207.383 303.332 211.159C306.042 214.442 308.569 218.109 308.375 222.361C308.187 226.455 305.562 229.992 302.352 232.54C299.507 234.798 295.79 234.572 292.21 235.189C287.317 236.032 282.169 239.384 277.965 236.741C273.445 233.9 270.945 227.739 272.047 222.515C273.068 217.676 279.409 216.754 282.917 213.269Z" fill="#262254"/>
<path fill-rule="evenodd" clip-rule="evenodd" d="M111.917 182.269C115.37 178.838 116.231 172.118 121.072 171.617C125.944 171.114 129.214 176.383 132.332 180.159C135.042 183.442 137.569 187.109 137.375 191.361C137.187 195.455 134.562 198.992 131.352 201.54C128.507 203.798 124.79 203.572 121.21 204.189C116.317 205.032 111.169 208.384 106.965 205.741C102.445 202.9 99.9451 196.739 101.047 191.515C102.068 186.676 108.409 185.754 111.917 182.269Z" fill="#262254"/>
<path fill-rule="evenodd" clip-rule="evenodd" d="M375.471 197.982C392.132 194.397 407.375 176.216 422.591 183.893C437.901 191.618 437.579 213.329 439.632 230.354C441.415 245.153 441.933 260.739 433.32 272.905C425.028 284.618 410.605 290.082 396.327 291.523C383.672 292.8 373.143 285.108 361.426 280.159C345.409 273.394 323.9 273.542 316.504 257.807C308.552 240.887 312.828 218.002 325.953 204.687C338.108 192.355 358.543 201.624 375.471 197.982Z" fill="#543884"/>
<defs>
<linearGradient id="paint0_linear_358_1054" x1="254.028" y1="25.0329" x2="400.141" y2="179.164" gradientUnits="userSpaceOnUse">
<stop stop-color="#9A77CF"/>
<stop offset="0.971402" stop-color="#262254"/>
</linearGradient>
<linearGradient id="paint1_linear_358_1054" x1="150.763" y1="187.033" x2="205.389" y2="228.384" gradientUnits="userSpaceOnUse">
<stop stop-color="#9A77CF"/>
<stop offset="1" stop-color="#543884"/>
</linearGradient>
</defs>
</svg>
