<svg width="251" height="166" viewBox="0 0 251 166" fill="none" xmlns="http://www.w3.org/2000/svg">
<g clip-path="url(#clip0_602_1280)">
<path d="M90.5454 117.323C90.2399 116.987 90.0666 116.551 90.0573 116.097C90.0511 115.851 90.0951 115.607 90.1866 115.379C90.2782 115.151 90.4153 114.944 90.5897 114.771C90.7641 114.597 90.972 114.462 91.2007 114.372C91.4294 114.282 91.674 114.239 91.9196 114.247C92.8196 114.24 93.7087 114.05 94.5332 113.689C95.3129 113.346 96.0185 112.856 96.6107 112.244C97.1945 111.634 97.6604 110.921 97.9849 110.141C98.319 109.331 98.4882 108.464 98.4826 107.588V80.1419C98.4774 79.8972 98.521 79.6539 98.6108 79.4262C98.7007 79.1986 98.835 78.9911 99.0059 78.8159C99.172 78.6384 99.3737 78.498 99.5978 78.4039C99.8219 78.3098 100.063 78.2642 100.306 78.27C100.551 78.2658 100.794 78.3121 101.02 78.406C101.246 78.4999 101.45 78.6394 101.62 78.8159C101.792 78.9902 101.929 79.1973 102.02 79.425C102.112 79.6528 102.157 79.8965 102.153 80.1419L102.104 107.659C102.115 109.032 101.847 110.393 101.315 111.659C100.808 112.87 100.075 113.971 99.1536 114.906C98.208 115.852 97.084 116.601 95.8466 117.11C94.6092 117.619 93.2832 117.877 91.9453 117.869C91.6862 117.886 91.4266 117.846 91.1846 117.752C90.9427 117.658 90.7245 117.511 90.5454 117.323Z" fill="#421066"/>
<path d="M110.401 99.7347C110.605 100.893 111.069 101.991 111.759 102.943C112.449 103.896 113.347 104.68 114.384 105.235C115.422 105.79 116.571 106.102 117.747 106.148C118.923 106.194 120.093 105.971 121.17 105.498C122.063 105.097 122.853 104.497 123.479 103.745C123.753 103.51 124.086 103.355 124.442 103.295C124.734 103.255 125.032 103.276 125.316 103.356C125.676 103.506 125.975 103.771 126.166 104.111C126.413 104.462 126.533 104.887 126.507 105.315C126.493 105.557 126.429 105.794 126.318 106.009C126.208 106.225 126.053 106.415 125.865 106.567C125.43 107.016 124.953 107.422 124.442 107.781C123.891 108.165 123.3 108.488 122.679 108.744C121.99 109.033 121.274 109.253 120.541 109.402C119.701 109.569 118.845 109.65 117.988 109.643C116.436 109.654 114.898 109.348 113.468 108.744C110.667 107.594 108.431 105.389 107.242 102.605C106.64 101.173 106.33 99.6358 106.33 98.0827C106.33 96.5295 106.64 94.992 107.242 93.5602C107.827 92.1836 108.673 90.933 109.733 89.8774C110.797 88.8248 112.051 87.9836 113.429 87.3986C114.857 86.801 116.389 86.4932 117.937 86.4932C119.485 86.4932 121.017 86.801 122.445 87.3986C123.822 87.9752 125.074 88.8138 126.131 89.8678C127.182 90.9207 128.026 92.1611 128.619 93.5249C129.244 94.934 129.572 96.4564 129.583 97.9976C129.592 98.2314 129.552 98.4646 129.467 98.6823C129.381 98.9 129.251 99.0977 129.085 99.2627C128.913 99.4241 128.712 99.55 128.491 99.6332C128.271 99.7164 128.036 99.7553 127.801 99.7475L110.401 99.7347ZM125.839 96.6715C125.712 95.7445 125.41 94.8501 124.949 94.0354C124.501 93.2323 123.918 92.5122 123.225 91.9066C121.778 90.6544 119.925 89.9698 118.011 89.9801C117.042 89.9728 116.081 90.1505 115.179 90.5035C114.32 90.8376 113.526 91.3189 112.832 91.9259C112.149 92.5303 111.577 93.2497 111.143 94.0515C110.7 94.8638 110.408 95.7491 110.279 96.6651L125.839 96.6715Z" fill="#421066"/>
<path d="M142.953 95.8953L149.946 106.542C150.087 106.744 150.185 106.972 150.233 107.213C150.281 107.454 150.278 107.702 150.225 107.942C150.18 108.176 150.087 108.397 149.951 108.592C149.815 108.786 149.639 108.95 149.435 109.073C149.235 109.212 149.008 109.308 148.767 109.352C148.538 109.395 148.303 109.395 148.074 109.352C147.845 109.305 147.627 109.214 147.432 109.085C147.231 108.949 147.058 108.776 146.921 108.575L140.262 98.4607L136.711 101.839V107.602C136.717 107.841 136.672 108.079 136.581 108.301C136.489 108.522 136.352 108.721 136.178 108.886C136.013 109.054 135.816 109.187 135.598 109.277C135.381 109.367 135.148 109.412 134.913 109.41C134.67 109.416 134.428 109.372 134.203 109.282C133.977 109.193 133.772 109.058 133.6 108.886C133.425 108.722 133.288 108.522 133.195 108.301C133.103 108.08 133.058 107.842 133.063 107.602V80.0691C133.058 79.8283 133.104 79.5891 133.199 79.3676C133.294 79.1462 133.435 78.9474 133.612 78.7848C133.781 78.6173 133.982 78.4848 134.202 78.395C134.423 78.3052 134.659 78.2598 134.897 78.2614C135.135 78.2548 135.373 78.2979 135.594 78.388C135.815 78.4781 136.015 78.6132 136.181 78.7848C136.349 78.9531 136.48 79.1537 136.568 79.3745C136.656 79.5953 136.698 79.8316 136.692 80.0691V97.0383L146.876 87.1683C147.04 87 147.237 86.8686 147.455 86.7828C147.673 86.697 147.907 86.6587 148.141 86.6706C148.372 86.6813 148.598 86.7372 148.807 86.8353C149.015 86.9333 149.203 87.0716 149.358 87.2421C149.367 87.2517 149.373 87.2629 149.377 87.2751C149.381 87.2872 149.382 87.3 149.381 87.3127C149.545 87.4789 149.674 87.6767 149.76 87.8942C149.845 88.1116 149.886 88.3442 149.878 88.5778C149.88 88.8079 149.832 89.0357 149.738 89.2456C149.644 89.4556 149.505 89.6428 149.333 89.7947L142.953 95.8953Z" fill="#421066"/>
<path d="M178.323 80.8235C178.226 80.6029 178.176 80.3645 178.176 80.1235C178.176 79.8826 178.226 79.6442 178.323 79.4236C178.414 79.2009 178.549 78.9989 178.72 78.83C178.891 78.6611 179.095 78.5287 179.318 78.4411C179.767 78.258 180.27 78.258 180.718 78.4411C180.945 78.5311 181.152 78.6655 181.326 78.8364C181.5 79.0073 181.639 79.2113 181.733 79.4364L191.87 103.042L196.586 92.177L191.687 80.8235C191.584 80.6043 191.531 80.3654 191.531 80.1235C191.531 79.8817 191.584 79.6428 191.687 79.4236C191.829 79.0924 192.066 78.8104 192.367 78.6122C192.669 78.414 193.021 78.3084 193.382 78.3084C193.743 78.3084 194.095 78.414 194.397 78.6122C194.698 78.8104 194.934 79.0924 195.077 79.4236L198.58 87.5438L202.112 79.4011C202.293 78.9653 202.64 78.619 203.075 78.4378C203.294 78.341 203.53 78.291 203.769 78.291C204.008 78.291 204.244 78.341 204.462 78.4378C204.686 78.5255 204.89 78.6579 205.061 78.8268C205.232 78.9957 205.367 79.1976 205.458 79.4204C205.554 79.6418 205.602 79.8813 205.598 80.1228C205.594 80.3642 205.539 80.6021 205.435 80.8203L200.542 92.1513L205.233 103.042L215.447 79.4139C215.539 79.1958 215.673 78.9982 215.842 78.8328C216.012 78.6673 216.212 78.5374 216.432 78.4507C216.653 78.3538 216.89 78.3038 217.131 78.3038C217.371 78.3038 217.609 78.3538 217.829 78.4507C218.273 78.6371 218.627 78.9897 218.815 79.4332C218.916 79.6526 218.969 79.8914 218.969 80.1332C218.969 80.3749 218.916 80.6137 218.815 80.8331L206.977 108.254C206.901 108.466 206.783 108.66 206.63 108.826C206.477 108.992 206.293 109.124 206.087 109.217C205.686 109.404 205.234 109.451 204.803 109.352C204.527 109.288 204.269 109.162 204.048 108.986C203.81 108.794 203.626 108.542 203.515 108.257L198.555 96.7845L193.613 108.244C193.44 108.647 193.132 108.977 192.741 109.177C192.351 109.377 191.903 109.434 191.475 109.339C191.193 109.288 190.929 109.166 190.707 108.986C190.465 108.789 190.277 108.534 190.161 108.244L178.323 80.8235Z" fill="#FF7900"/>
<path d="M222.238 79.7154C222.642 79.326 223.183 79.1105 223.744 79.1153C224.305 79.1201 224.842 79.3447 225.24 79.741C225.638 80.1373 225.864 80.6737 225.87 81.235C225.877 81.7962 225.663 82.3378 225.275 82.7432C225.076 82.9438 224.84 83.103 224.579 83.2116C224.318 83.3203 224.039 83.3762 223.756 83.3762C223.474 83.3762 223.194 83.3203 222.934 83.2116C222.673 83.103 222.436 82.9438 222.238 82.7432C221.84 82.3396 221.617 81.7958 221.617 81.2293C221.617 80.6628 221.84 80.1191 222.238 79.7154ZM225.58 107.563C225.584 107.801 225.54 108.038 225.45 108.259C225.36 108.479 225.226 108.68 225.057 108.847C224.893 109.022 224.693 109.16 224.472 109.253C224.251 109.345 224.012 109.39 223.772 109.384C223.531 109.387 223.291 109.342 223.067 109.249C222.843 109.157 222.641 109.02 222.472 108.847C222.296 108.683 222.156 108.484 222.062 108.263C221.967 108.042 221.92 107.803 221.923 107.563V88.298C221.92 88.0544 221.967 87.8127 222.059 87.5872C222.151 87.3616 222.287 87.1567 222.459 86.9845C222.631 86.8122 222.836 86.6761 223.062 86.5841C223.287 86.492 223.529 86.446 223.772 86.4485C224.012 86.4428 224.25 86.4875 224.472 86.5799C224.693 86.6723 224.892 86.8102 225.057 86.9847C225.225 87.1589 225.356 87.3647 225.444 87.5902C225.531 87.8156 225.573 88.0562 225.567 88.298L225.58 107.563Z" fill="#FF7900"/>
<path d="M249.963 108.902C249.789 109.07 249.583 109.201 249.358 109.289C249.132 109.377 248.892 109.419 248.65 109.413C248.412 109.419 248.176 109.377 247.955 109.289C247.735 109.202 247.534 109.07 247.366 108.902C247.194 108.736 247.059 108.536 246.969 108.315C246.879 108.094 246.836 107.856 246.842 107.618V97.7413C246.858 96.6568 246.718 95.5756 246.428 94.5305C246.189 93.6627 245.785 92.8494 245.237 92.1352C244.732 91.4897 244.077 90.9772 243.33 90.6422C242.516 90.2984 241.641 90.1243 240.757 90.1303C239.874 90.1364 239.001 90.3226 238.192 90.6775C237.4 91.0373 236.685 91.5489 236.089 92.1834C235.478 92.847 234.989 93.6133 234.644 94.447C234.28 95.3398 234.086 96.2925 234.07 97.2565V107.563C234.073 107.801 234.029 108.038 233.94 108.258C233.851 108.479 233.718 108.679 233.549 108.848C233.385 109.022 233.186 109.16 232.964 109.252C232.743 109.345 232.505 109.39 232.265 109.384C232.026 109.385 231.789 109.338 231.569 109.246C231.348 109.154 231.148 109.018 230.981 108.848C230.806 108.683 230.667 108.484 230.573 108.263C230.479 108.042 230.432 107.803 230.435 107.563V88.2982C230.432 88.0548 230.478 87.8132 230.569 87.5877C230.661 87.3622 230.797 87.1572 230.969 86.9849C231.141 86.8126 231.346 86.6765 231.571 86.5844C231.796 86.4923 232.038 86.4462 232.281 86.4488C232.521 86.4426 232.759 86.4872 232.981 86.5796C233.202 86.672 233.401 86.8102 233.566 86.985C233.733 87.1593 233.863 87.3653 233.95 87.5908C234.037 87.8163 234.077 88.0568 234.07 88.2982V90.122C234.971 89.0345 236.073 88.1307 237.316 87.4602C238.513 86.8092 239.854 86.4702 241.217 86.4745C242.533 86.4535 243.838 86.7278 245.035 87.2772C246.165 87.8077 247.162 88.5844 247.953 89.5505C248.799 90.5976 249.438 91.7963 249.835 93.0824C250.297 94.5573 250.524 96.0961 250.506 97.6418V107.595C250.514 107.839 250.47 108.082 250.376 108.307C250.282 108.533 250.142 108.736 249.963 108.902Z" fill="#FF7900"/>
<path d="M115.558 45.7803C109.717 51.768 103.44 57.3133 96.7777 62.3706C91.2747 66.5687 85.4614 70.3436 79.3879 73.6631C74.6578 76.2584 69.7169 78.4496 64.618 80.2132C60.7876 81.5484 56.8305 82.4876 52.8086 83.0163C49.8068 83.4202 46.7651 83.431 43.7605 83.0484C41.4477 82.7565 39.197 82.0941 37.0948 81.0866C35.3521 80.2427 33.7726 79.0969 32.4294 77.7024C31.183 76.3782 30.1603 74.8599 29.4016 73.2072L28.9874 73.7916L48.0662 118.236L117.375 46.2651L115.558 45.7803Z" fill="#FF7900"/>
<path d="M1.83976 156.859C7.67941 150.869 13.9568 145.323 20.6199 140.265C26.1253 136.07 31.9395 132.296 38.013 128.976C42.7434 126.38 47.6841 124.188 52.7828 122.423C56.6138 121.089 60.5707 120.15 64.5922 119.62C67.5945 119.222 70.6356 119.212 73.6404 119.591C75.9518 119.883 78.2012 120.544 80.3028 121.549C82.0496 122.398 83.6315 123.55 84.9746 124.953C86.2228 126.268 87.2468 127.779 88.0056 129.426L88.4263 128.848L69.3346 84.4033L0.0256348 156.368L1.83976 156.859Z" fill="#421066"/>
<path d="M80.6689 57.6218C80.6695 59.9645 79.9755 62.2547 78.6745 64.203C77.3735 66.1512 75.524 67.6698 73.3599 68.5669C71.1958 69.464 68.8143 69.6992 66.5165 69.2428C64.2187 68.7864 62.1079 67.6589 60.4509 66.0028C58.7939 64.3467 57.6653 62.2365 57.2076 59.939C56.7499 57.6414 56.9839 55.2598 57.8798 53.0952C58.7757 50.9306 60.2934 49.0803 62.2409 47.7783C64.1884 46.4762 66.4783 45.7809 68.8209 45.7803C70.3764 45.7799 71.9167 46.0858 73.354 46.6807C74.7912 47.2755 76.0972 48.1477 77.1974 49.2473C78.2976 50.3468 79.1704 51.6524 79.766 53.0893C80.3617 54.5262 80.6685 56.0663 80.6689 57.6218Z" fill="#421066"/>
<path d="M174.348 86.5348C173.762 85.1812 172.922 83.9527 171.873 82.9162C170.822 81.8832 169.586 81.0585 168.228 80.4856C166.815 79.878 165.291 79.5708 163.752 79.5834C162.173 79.5834 159.257 80.5017 159.257 80.5049C159.01 80.6167 158.794 80.7878 158.629 81.0029C158.464 81.218 158.354 81.4705 158.309 81.7382C158.265 82.0058 158.287 82.2803 158.374 82.5373C158.461 82.7943 158.61 83.0259 158.808 83.2116C159.119 83.5072 159.503 83.7144 159.92 83.8121C160.338 83.9097 160.774 83.8942 161.184 83.7671C162.015 83.4832 162.877 83.301 163.752 83.2245C164.823 83.2138 165.884 83.4236 166.87 83.8409C167.809 84.2389 168.663 84.8121 169.387 85.5298C170.465 86.6172 171.201 87.9953 171.507 89.4952C170.536 88.622 169.429 87.9147 168.228 87.4018C166.812 86.8041 165.29 86.4962 163.752 86.4962C162.215 86.4962 160.693 86.8041 159.276 87.4018C158.059 87.9189 156.937 88.6363 155.956 89.5241C155.834 89.6365 155.709 89.7521 155.594 89.8709C154.655 90.8005 153.885 91.8871 153.32 93.0817C153.247 93.2326 153.179 93.3867 153.108 93.5409C152.51 94.964 152.202 96.4922 152.202 98.036C152.202 99.5798 152.51 101.108 153.108 102.531C154.293 105.301 156.503 107.506 159.276 108.683C160.696 109.292 162.227 109.601 163.772 109.592C165.261 109.602 166.735 109.287 168.09 108.667C169.41 108.061 170.616 107.233 171.654 106.217L171.68 107.421C171.671 107.91 171.849 108.385 172.178 108.747C172.336 108.93 172.534 109.075 172.757 109.171C172.979 109.266 173.22 109.31 173.462 109.3C173.711 109.305 173.958 109.259 174.188 109.164C174.418 109.069 174.625 108.927 174.798 108.747C175.143 108.388 175.333 107.907 175.327 107.408V90.9947C175.3 89.4578 174.967 87.9417 174.348 86.5348ZM171.06 101.118C170.27 103.015 168.773 104.53 166.886 105.344C165.903 105.761 164.846 105.976 163.778 105.976C162.71 105.976 161.653 105.761 160.67 105.344C159.731 104.939 158.878 104.357 158.159 103.629C157.444 102.906 156.872 102.054 156.473 101.118C156.055 100.153 155.843 99.1107 155.851 98.0585C155.85 97.5849 155.891 97.1122 155.973 96.6457C156.071 96.0658 156.239 95.4998 156.473 94.9601C156.756 94.2841 157.133 93.6516 157.594 93.0817C157.769 92.8564 157.958 92.6419 158.159 92.4395C159.653 90.9564 161.673 90.1242 163.778 90.1242C165.883 90.1242 167.903 90.9564 169.397 92.4395C169.597 92.6412 169.784 92.8557 169.956 93.0817C170.739 94.0599 171.276 95.2116 171.523 96.4402C171.628 96.9688 171.681 97.5066 171.68 98.0457C171.685 99.1014 171.474 100.147 171.06 101.118Z" fill="#421066"/>
</g>
<defs>
<clipPath id="clip0_602_1280">
<rect width="250.445" height="166" fill="white"/>
</clipPath>
</defs>
</svg>
