<svg width="81" height="80" viewBox="0 0 81 80" fill="none" xmlns="http://www.w3.org/2000/svg">
<circle opacity="0.05" cx="40.5" cy="40" r="40" fill="#FE7A01"/>
<g clip-path="url(#clip0_1399_4548)">
<path d="M20.5 30C20.5 28.6739 21.0268 27.4021 21.9645 26.4645C22.9021 25.5268 24.1739 25 25.5 25H55.5C56.8261 25 58.0979 25.5268 59.0355 26.4645C59.9732 27.4021 60.5 28.6739 60.5 30V42.5H20.5V30ZM49.25 32.5C48.9185 32.5 48.6005 32.6317 48.3661 32.8661C48.1317 33.1005 48 33.4185 48 33.75V36.25C48 36.5815 48.1317 36.8995 48.3661 37.1339C48.6005 37.3683 48.9185 37.5 49.25 37.5H54.25C54.5815 37.5 54.8995 37.3683 55.1339 37.1339C55.3683 36.8995 55.5 36.5815 55.5 36.25V33.75C55.5 33.4185 55.3683 33.1005 55.1339 32.8661C54.8995 32.6317 54.5815 32.5 54.25 32.5H49.25ZM20.5 47.5V50C20.5 51.3261 21.0268 52.5979 21.9645 53.5355C22.9021 54.4732 24.1739 55 25.5 55H55.5C56.8261 55 58.0979 54.4732 59.0355 53.5355C59.9732 52.5979 60.5 51.3261 60.5 50V47.5H20.5Z" fill="#FE7A01"/>
</g>
<defs>
<clipPath id="clip0_1399_4548">
<rect width="40" height="40" fill="white" transform="translate(20.5 20)"/>
</clipPath>
</defs>
</svg>
