<svg width="18" height="17" viewBox="0 0 18 17" fill="none" xmlns="http://www.w3.org/2000/svg">
<rect x="0.516671" y="0.283333" width="16.4333" height="16.4333" rx="8.21667" stroke="#FE7A01" stroke-width="0.566667"/>
<path d="M5.79587 8.96214H8.27081V11.4371C8.27081 11.6886 8.47773 11.8996 8.73334 11.8996C8.98895 11.8996 9.19587 11.6886 9.19587 11.4371V8.96214H11.6708C11.9224 8.96214 12.1333 8.75522 12.1333 8.49961C12.1333 8.244 11.9224 8.03708 11.6708 8.03708H9.19587V5.56214C9.19587 5.31059 8.98895 5.09961 8.73334 5.09961C8.47773 5.09961 8.27081 5.31059 8.27081 5.56214V8.03708H5.79587C5.54432 8.03708 5.33334 8.244 5.33334 8.49961C5.33334 8.75522 5.54432 8.96214 5.79587 8.96214Z" fill="#FE7A01"/>
</svg>
