<svg width="17" height="17" viewBox="0 0 17 17" fill="none" xmlns="http://www.w3.org/2000/svg">
<g clip-path="url(#clip0_14_236)">
<path d="M7.43755 15.5837C3.72114 15.5837 0.708385 12.4123 0.708385 8.50033C0.708385 4.58831 3.72114 1.41699 7.43755 1.41699C11.154 1.41699 14.1667 4.58831 14.1667 8.50033C14.1667 12.4123 11.154 15.5837 7.43755 15.5837Z" stroke="#FE7A01" stroke-width="2.83333" stroke-linecap="round" stroke-linejoin="round"/>
<path d="M9.2084 6.23366C8.75758 5.86809 8.19507 5.66808 7.61465 5.66699C6.1477 5.66699 4.9584 6.93491 4.9584 8.50033C4.9584 10.0657 6.1477 11.3337 7.61465 11.3337C8.21249 11.3337 8.76428 11.1226 9.2084 10.767" stroke="#FE7A01" stroke-width="2.83333" stroke-linecap="round" stroke-linejoin="round"/>
<path d="M7.0834 1.41699C10.1526 1.41699 16.2917 2.12533 16.2917 8.50033C16.2917 14.8753 10.1526 15.5837 7.0834 15.5837" stroke="#FE7A01" stroke-width="2.83333"/>
</g>
<defs>
<clipPath id="clip0_14_236">
<rect width="17" height="17" fill="white"/>
</clipPath>
</defs>
</svg>
