<svg width="40" height="41" viewBox="0 0 40 41" fill="none" xmlns="http://www.w3.org/2000/svg">
<circle opacity="0.05" cx="20" cy="20.4688" r="20" fill="#FE7A01"/>
<path opacity="0.4" d="M20 16.3426C20.221 16.3426 20.433 16.2548 20.5893 16.0985C20.7457 15.9421 20.8335 15.7301 20.8335 15.5091C20.8335 15.288 20.7457 15.076 20.5893 14.9197C20.433 14.7634 20.221 14.6756 20 14.6756C19.7789 14.6756 19.5669 14.7634 19.4106 14.9197C19.2543 15.076 19.1665 15.288 19.1665 15.5091C19.1665 15.7301 19.2543 15.9421 19.4106 16.0985C19.5669 16.2548 19.7789 16.3426 20 16.3426ZM13.5 27.4686H18.336C18.1855 27.1524 18.0837 26.8152 18.034 26.4686H14V25.6356C14 24.9906 14.523 24.4686 15.167 24.4686H18.337C18.515 24.0936 18.757 23.7556 19.051 23.4686H18V18.4686H19.5V23.0956C19.801 22.8856 20.138 22.7206 20.5 22.6136V18.4676H22V22.4676H23V18.4686H25V22.4686H25.499C25.669 22.4686 25.836 22.4806 25.999 22.5046V18.4676H26.092C26.985 18.4676 27.352 17.3206 26.622 16.8036L20.772 12.6516C20.5464 12.4914 20.2766 12.4053 20 12.4053C19.7233 12.4053 19.4535 12.4914 19.228 12.6516L13.376 16.8036C12.648 17.3206 13.013 18.4676 13.906 18.4676H14V23.8076C13.399 24.1936 13 24.8676 13 25.6346V26.9676C13 27.1002 13.0527 27.2274 13.1464 27.3211C13.2402 27.4149 13.3674 27.4686 13.5 27.4686ZM19.806 13.4686C19.8622 13.4287 19.9295 13.4073 19.9985 13.4073C20.0674 13.4073 20.1347 13.4287 20.191 13.4686L25.83 17.4686H14.168L19.807 13.4686H19.806ZM14.999 23.4736V18.4686H16.999V23.4686H15.166C15.11 23.4686 15.054 23.4696 14.999 23.4736Z" fill="#FE7A01"/>
<path d="M21.5 23.4688C20.837 23.4688 20.2011 23.7321 19.7322 24.201C19.2634 24.6698 19 25.3057 19 25.9688C19 26.6318 19.2634 27.2677 19.7322 27.7365C20.2011 28.2054 20.837 28.4687 21.5 28.4687H22C22.1326 28.4687 22.2598 28.4161 22.3536 28.3223C22.4473 28.2285 22.5 28.1014 22.5 27.9688C22.5 27.8361 22.4473 27.709 22.3536 27.6152C22.2598 27.5214 22.1326 27.4688 22 27.4688H21.5C21.1022 27.4688 20.7206 27.3107 20.4393 27.0294C20.158 26.7481 20 26.3666 20 25.9688C20 25.5709 20.158 25.1894 20.4393 24.9081C20.7206 24.6268 21.1022 24.4688 21.5 24.4688H22C22.1326 24.4688 22.2598 24.4161 22.3536 24.3223C22.4473 24.2285 22.5 24.1014 22.5 23.9688C22.5 23.8361 22.4473 23.709 22.3536 23.6152C22.2598 23.5214 22.1326 23.4688 22 23.4688H21.5ZM25 23.4688C24.8674 23.4688 24.7402 23.5214 24.6464 23.6152C24.5527 23.709 24.5 23.8361 24.5 23.9688C24.5 24.1014 24.5527 24.2285 24.6464 24.3223C24.7402 24.4161 24.8674 24.4688 25 24.4688H25.5C25.8978 24.4688 26.2794 24.6268 26.5607 24.9081C26.842 25.1894 27 25.5709 27 25.9688C27 26.3666 26.842 26.7481 26.5607 27.0294C26.2794 27.3107 25.8978 27.4688 25.5 27.4688H25C24.8674 27.4688 24.7402 27.5214 24.6464 27.6152C24.5527 27.709 24.5 27.8361 24.5 27.9688C24.5 28.1014 24.5527 28.2285 24.6464 28.3223C24.7402 28.4161 24.8674 28.4687 25 28.4687H25.5C26.163 28.4687 26.7989 28.2054 27.2678 27.7365C27.7366 27.2677 28 26.6318 28 25.9688C28 25.3057 27.7366 24.6698 27.2678 24.201C26.7989 23.7321 26.163 23.4688 25.5 23.4688H25ZM21 25.9688C21 25.8361 21.0527 25.709 21.1464 25.6152C21.2402 25.5214 21.3674 25.4688 21.5 25.4688H25.5C25.6326 25.4688 25.7598 25.5214 25.8536 25.6152C25.9473 25.709 26 25.8361 26 25.9688C26 26.1014 25.9473 26.2285 25.8536 26.3223C25.7598 26.4161 25.6326 26.4688 25.5 26.4688H21.5C21.3674 26.4688 21.2402 26.4161 21.1464 26.3223C21.0527 26.2285 21 26.1014 21 25.9688Z" fill="#FE7A01"/>
</svg>
