<svg width="24" height="24" viewBox="0 0 24 24" fill="none" xmlns="http://www.w3.org/2000/svg">
<path d="M10 18C11.775 17.9996 13.4988 17.4054 14.897 16.312L19.293 20.708L20.707 19.294L16.311 14.898C17.405 13.4997 17.9996 11.7754 18 10C18 5.589 14.411 2 10 2C5.589 2 2 5.589 2 10C2 14.411 5.589 18 10 18ZM10 4C13.309 4 16 6.691 16 10C16 13.309 13.309 16 10 16C6.691 16 4 13.309 4 10C4 6.691 6.691 4 10 4Z" fill="white"/>
<path d="M11.412 8.58511C11.791 8.96511 12 9.46711 12 9.99911H14C14.0008 9.47354 13.8975 8.953 13.696 8.46759C13.4945 7.98219 13.1988 7.54153 12.826 7.17111C11.312 5.65911 8.68695 5.65911 7.17395 7.17111L8.58595 8.58711C9.34595 7.82911 10.656 7.83111 11.412 8.58511Z" fill="white"/>
</svg>
