<svg width="16" height="18" viewBox="0 0 16 18" fill="none" xmlns="http://www.w3.org/2000/svg">
<mask id="path-1-inside-1_355_607" fill="white">
<path d="M8 14.7273C8.15823 14.7273 8.3129 14.6793 8.44446 14.5894C8.57602 14.4995 8.67855 14.3717 8.7391 14.2222C8.79965 14.0727 8.8155 13.9082 8.78463 13.7495C8.75376 13.5908 8.67757 13.445 8.56569 13.3305C8.4538 13.2161 8.31126 13.1382 8.15607 13.1066C8.00089 13.0751 7.84003 13.0913 7.69385 13.1532C7.54767 13.2151 7.42273 13.32 7.33482 13.4545C7.24692 13.5891 7.2 13.7473 7.2 13.9091C7.2 14.1261 7.28429 14.3342 7.43431 14.4876C7.58434 14.6411 7.78783 14.7273 8 14.7273ZM12 14.7273C12.1582 14.7273 12.3129 14.6793 12.4445 14.5894C12.576 14.4995 12.6786 14.3717 12.7391 14.2222C12.7997 14.0727 12.8155 13.9082 12.7846 13.7495C12.7538 13.5908 12.6776 13.445 12.5657 13.3305C12.4538 13.2161 12.3113 13.1382 12.1561 13.1066C12.0009 13.0751 11.84 13.0913 11.6939 13.1532C11.5477 13.2151 11.4227 13.32 11.3348 13.4545C11.2469 13.5891 11.2 13.7473 11.2 13.9091C11.2 14.1261 11.2843 14.3342 11.4343 14.4876C11.5843 14.6411 11.7878 14.7273 12 14.7273ZM12 11.4545C12.1582 11.4545 12.3129 11.4066 12.4445 11.3167C12.576 11.2268 12.6786 11.099 12.7391 10.9495C12.7997 10.8 12.8155 10.6355 12.7846 10.4767C12.7538 10.318 12.6776 10.1722 12.5657 10.0578C12.4538 9.9434 12.3113 9.86547 12.1561 9.8339C12.0009 9.80233 11.84 9.81854 11.6939 9.88046C11.5477 9.94239 11.4227 10.0473 11.3348 10.1818C11.2469 10.3164 11.2 10.4745 11.2 10.6364C11.2 10.8534 11.2843 11.0615 11.4343 11.2149C11.5843 11.3683 11.7878 11.4545 12 11.4545ZM8 11.4545C8.15823 11.4545 8.3129 11.4066 8.44446 11.3167C8.57602 11.2268 8.67855 11.099 8.7391 10.9495C8.79965 10.8 8.8155 10.6355 8.78463 10.4767C8.75376 10.318 8.67757 10.1722 8.56569 10.0578C8.4538 9.9434 8.31126 9.86547 8.15607 9.8339C8.00089 9.80233 7.84003 9.81854 7.69385 9.88046C7.54767 9.94239 7.42273 10.0473 7.33482 10.1818C7.24692 10.3164 7.2 10.4745 7.2 10.6364C7.2 10.8534 7.28429 11.0615 7.43431 11.2149C7.58434 11.3683 7.78783 11.4545 8 11.4545ZM13.6 1.63636H12.8V0.818182C12.8 0.601186 12.7157 0.393079 12.5657 0.23964C12.4157 0.086201 12.2122 0 12 0C11.7878 0 11.5843 0.086201 11.4343 0.23964C11.2843 0.393079 11.2 0.601186 11.2 0.818182V1.63636H4.8V0.818182C4.8 0.601186 4.71571 0.393079 4.56569 0.23964C4.41566 0.086201 4.21217 0 4 0C3.78783 0 3.58434 0.086201 3.43431 0.23964C3.28429 0.393079 3.2 0.601186 3.2 0.818182V1.63636H2.4C1.76348 1.63636 1.15303 1.89497 0.702944 2.35528C0.252856 2.8156 0 3.43992 0 4.09091V15.5455C0 16.1964 0.252856 16.8208 0.702944 17.2811C1.15303 17.7414 1.76348 18 2.4 18H13.6C14.2365 18 14.847 17.7414 15.2971 17.2811C15.7471 16.8208 16 16.1964 16 15.5455V4.09091C16 3.43992 15.7471 2.8156 15.2971 2.35528C14.847 1.89497 14.2365 1.63636 13.6 1.63636ZM14.4 15.5455C14.4 15.7624 14.3157 15.9706 14.1657 16.124C14.0157 16.2774 13.8122 16.3636 13.6 16.3636H2.4C2.18783 16.3636 1.98434 16.2774 1.83431 16.124C1.68429 15.9706 1.6 15.7624 1.6 15.5455V8.18182H14.4V15.5455ZM14.4 6.54545H1.6V4.09091C1.6 3.87391 1.68429 3.66581 1.83431 3.51237C1.98434 3.35893 2.18783 3.27273 2.4 3.27273H3.2V4.09091C3.2 4.3079 3.28429 4.51601 3.43431 4.66945C3.58434 4.82289 3.78783 4.90909 4 4.90909C4.21217 4.90909 4.41566 4.82289 4.56569 4.66945C4.71571 4.51601 4.8 4.3079 4.8 4.09091V3.27273H11.2V4.09091C11.2 4.3079 11.2843 4.51601 11.4343 4.66945C11.5843 4.82289 11.7878 4.90909 12 4.90909C12.2122 4.90909 12.4157 4.82289 12.5657 4.66945C12.7157 4.51601 12.8 4.3079 12.8 4.09091V3.27273H13.6C13.8122 3.27273 14.0157 3.35893 14.1657 3.51237C14.3157 3.66581 14.4 3.87391 14.4 4.09091V6.54545ZM4 11.4545C4.15823 11.4545 4.3129 11.4066 4.44446 11.3167C4.57602 11.2268 4.67855 11.099 4.7391 10.9495C4.79965 10.8 4.8155 10.6355 4.78463 10.4767C4.75376 10.318 4.67757 10.1722 4.56569 10.0578C4.4538 9.9434 4.31126 9.86547 4.15607 9.8339C4.00089 9.80233 3.84003 9.81854 3.69385 9.88046C3.54767 9.94239 3.42273 10.0473 3.33482 10.1818C3.24692 10.3164 3.2 10.4745 3.2 10.6364C3.2 10.8534 3.28429 11.0615 3.43431 11.2149C3.58434 11.3683 3.78783 11.4545 4 11.4545ZM4 14.7273C4.15823 14.7273 4.3129 14.6793 4.44446 14.5894C4.57602 14.4995 4.67855 14.3717 4.7391 14.2222C4.79965 14.0727 4.8155 13.9082 4.78463 13.7495C4.75376 13.5908 4.67757 13.445 4.56569 13.3305C4.4538 13.2161 4.31126 13.1382 4.15607 13.1066C4.00089 13.0751 3.84003 13.0913 3.69385 13.1532C3.54767 13.2151 3.42273 13.32 3.33482 13.4545C3.24692 13.5891 3.2 13.7473 3.2 13.9091C3.2 14.1261 3.28429 14.3342 3.43431 14.4876C3.58434 14.6411 3.78783 14.7273 4 14.7273Z"/>
</mask>
<path d="M8 14.7273C8.15823 14.7273 8.3129 14.6793 8.44446 14.5894C8.57602 14.4995 8.67855 14.3717 8.7391 14.2222C8.79965 14.0727 8.8155 13.9082 8.78463 13.7495C8.75376 13.5908 8.67757 13.445 8.56569 13.3305C8.4538 13.2161 8.31126 13.1382 8.15607 13.1066C8.00089 13.0751 7.84003 13.0913 7.69385 13.1532C7.54767 13.2151 7.42273 13.32 7.33482 13.4545C7.24692 13.5891 7.2 13.7473 7.2 13.9091C7.2 14.1261 7.28429 14.3342 7.43431 14.4876C7.58434 14.6411 7.78783 14.7273 8 14.7273ZM12 14.7273C12.1582 14.7273 12.3129 14.6793 12.4445 14.5894C12.576 14.4995 12.6786 14.3717 12.7391 14.2222C12.7997 14.0727 12.8155 13.9082 12.7846 13.7495C12.7538 13.5908 12.6776 13.445 12.5657 13.3305C12.4538 13.2161 12.3113 13.1382 12.1561 13.1066C12.0009 13.0751 11.84 13.0913 11.6939 13.1532C11.5477 13.2151 11.4227 13.32 11.3348 13.4545C11.2469 13.5891 11.2 13.7473 11.2 13.9091C11.2 14.1261 11.2843 14.3342 11.4343 14.4876C11.5843 14.6411 11.7878 14.7273 12 14.7273ZM12 11.4545C12.1582 11.4545 12.3129 11.4066 12.4445 11.3167C12.576 11.2268 12.6786 11.099 12.7391 10.9495C12.7997 10.8 12.8155 10.6355 12.7846 10.4767C12.7538 10.318 12.6776 10.1722 12.5657 10.0578C12.4538 9.9434 12.3113 9.86547 12.1561 9.8339C12.0009 9.80233 11.84 9.81854 11.6939 9.88046C11.5477 9.94239 11.4227 10.0473 11.3348 10.1818C11.2469 10.3164 11.2 10.4745 11.2 10.6364C11.2 10.8534 11.2843 11.0615 11.4343 11.2149C11.5843 11.3683 11.7878 11.4545 12 11.4545ZM8 11.4545C8.15823 11.4545 8.3129 11.4066 8.44446 11.3167C8.57602 11.2268 8.67855 11.099 8.7391 10.9495C8.79965 10.8 8.8155 10.6355 8.78463 10.4767C8.75376 10.318 8.67757 10.1722 8.56569 10.0578C8.4538 9.9434 8.31126 9.86547 8.15607 9.8339C8.00089 9.80233 7.84003 9.81854 7.69385 9.88046C7.54767 9.94239 7.42273 10.0473 7.33482 10.1818C7.24692 10.3164 7.2 10.4745 7.2 10.6364C7.2 10.8534 7.28429 11.0615 7.43431 11.2149C7.58434 11.3683 7.78783 11.4545 8 11.4545ZM13.6 1.63636H12.8V0.818182C12.8 0.601186 12.7157 0.393079 12.5657 0.23964C12.4157 0.086201 12.2122 0 12 0C11.7878 0 11.5843 0.086201 11.4343 0.23964C11.2843 0.393079 11.2 0.601186 11.2 0.818182V1.63636H4.8V0.818182C4.8 0.601186 4.71571 0.393079 4.56569 0.23964C4.41566 0.086201 4.21217 0 4 0C3.78783 0 3.58434 0.086201 3.43431 0.23964C3.28429 0.393079 3.2 0.601186 3.2 0.818182V1.63636H2.4C1.76348 1.63636 1.15303 1.89497 0.702944 2.35528C0.252856 2.8156 0 3.43992 0 4.09091V15.5455C0 16.1964 0.252856 16.8208 0.702944 17.2811C1.15303 17.7414 1.76348 18 2.4 18H13.6C14.2365 18 14.847 17.7414 15.2971 17.2811C15.7471 16.8208 16 16.1964 16 15.5455V4.09091C16 3.43992 15.7471 2.8156 15.2971 2.35528C14.847 1.89497 14.2365 1.63636 13.6 1.63636ZM14.4 15.5455C14.4 15.7624 14.3157 15.9706 14.1657 16.124C14.0157 16.2774 13.8122 16.3636 13.6 16.3636H2.4C2.18783 16.3636 1.98434 16.2774 1.83431 16.124C1.68429 15.9706 1.6 15.7624 1.6 15.5455V8.18182H14.4V15.5455ZM14.4 6.54545H1.6V4.09091C1.6 3.87391 1.68429 3.66581 1.83431 3.51237C1.98434 3.35893 2.18783 3.27273 2.4 3.27273H3.2V4.09091C3.2 4.3079 3.28429 4.51601 3.43431 4.66945C3.58434 4.82289 3.78783 4.90909 4 4.90909C4.21217 4.90909 4.41566 4.82289 4.56569 4.66945C4.71571 4.51601 4.8 4.3079 4.8 4.09091V3.27273H11.2V4.09091C11.2 4.3079 11.2843 4.51601 11.4343 4.66945C11.5843 4.82289 11.7878 4.90909 12 4.90909C12.2122 4.90909 12.4157 4.82289 12.5657 4.66945C12.7157 4.51601 12.8 4.3079 12.8 4.09091V3.27273H13.6C13.8122 3.27273 14.0157 3.35893 14.1657 3.51237C14.3157 3.66581 14.4 3.87391 14.4 4.09091V6.54545ZM4 11.4545C4.15823 11.4545 4.3129 11.4066 4.44446 11.3167C4.57602 11.2268 4.67855 11.099 4.7391 10.9495C4.79965 10.8 4.8155 10.6355 4.78463 10.4767C4.75376 10.318 4.67757 10.1722 4.56569 10.0578C4.4538 9.9434 4.31126 9.86547 4.15607 9.8339C4.00089 9.80233 3.84003 9.81854 3.69385 9.88046C3.54767 9.94239 3.42273 10.0473 3.33482 10.1818C3.24692 10.3164 3.2 10.4745 3.2 10.6364C3.2 10.8534 3.28429 11.0615 3.43431 11.2149C3.58434 11.3683 3.78783 11.4545 4 11.4545ZM4 14.7273C4.15823 14.7273 4.3129 14.6793 4.44446 14.5894C4.57602 14.4995 4.67855 14.3717 4.7391 14.2222C4.79965 14.0727 4.8155 13.9082 4.78463 13.7495C4.75376 13.5908 4.67757 13.445 4.56569 13.3305C4.4538 13.2161 4.31126 13.1382 4.15607 13.1066C4.00089 13.0751 3.84003 13.0913 3.69385 13.1532C3.54767 13.2151 3.42273 13.32 3.33482 13.4545C3.24692 13.5891 3.2 13.7473 3.2 13.9091C3.2 14.1261 3.28429 14.3342 3.43431 14.4876C3.58434 14.6411 3.78783 14.7273 4 14.7273Z" fill="#49504F" stroke="white" stroke-width="0.2" mask="url(#path-1-inside-1_355_607)"/>
</svg>
