<svg width="34" height="34" viewBox="0 0 34 34" fill="none" xmlns="http://www.w3.org/2000/svg">
<rect width="34" height="34" rx="17" fill="white"/>
<path d="M20.6829 21.7435L12.1976 13.2583C11.9077 12.9683 11.9077 12.4875 12.1976 12.1976C12.4875 11.9077 12.9683 11.9077 13.2582 12.1976L21.7435 20.6829C22.0334 20.9728 22.0334 21.4536 21.7435 21.7435C21.4536 22.0335 20.9728 22.0335 20.6829 21.7435Z" fill="#292D32"/>
<path d="M12.1976 21.7435C11.9077 21.4536 11.9077 20.9728 12.1976 20.6829L20.6829 12.1976C20.9728 11.9077 21.4537 11.9077 21.7436 12.1976C22.0335 12.4875 22.0335 12.9683 21.7436 13.2583L13.2583 21.7435C12.9684 22.0335 12.4876 22.0335 12.1976 21.7435Z" fill="#292D32"/>
</svg>
