<svg width="41" height="31" viewBox="0 0 41 31" fill="none" xmlns="http://www.w3.org/2000/svg">
<path d="M0.5 5.5C0.5 4.17392 1.02678 2.90215 1.96447 1.96447C2.90215 1.02678 4.17392 0.5 5.5 0.5H35.5C36.8261 0.5 38.0979 1.02678 39.0355 1.96447C39.9732 2.90215 40.5 4.17392 40.5 5.5V18H0.5V5.5ZM29.25 8C28.9185 8 28.6005 8.1317 28.3661 8.36612C28.1317 8.60054 28 8.91848 28 9.25V11.75C28 12.0815 28.1317 12.3995 28.3661 12.6339C28.6005 12.8683 28.9185 13 29.25 13H34.25C34.5815 13 34.8995 12.8683 35.1339 12.6339C35.3683 12.3995 35.5 12.0815 35.5 11.75V9.25C35.5 8.91848 35.3683 8.60054 35.1339 8.36612C34.8995 8.1317 34.5815 8 34.25 8H29.25ZM0.5 23V25.5C0.5 26.8261 1.02678 28.0979 1.96447 29.0355C2.90215 29.9732 4.17392 30.5 5.5 30.5H35.5C36.8261 30.5 38.0979 29.9732 39.0355 29.0355C39.9732 28.0979 40.5 26.8261 40.5 25.5V23H0.5Z" fill="#FE7A01"/>
</svg>
