<svg width="21" height="21" viewBox="0 0 21 21" fill="none" xmlns="http://www.w3.org/2000/svg">
<path d="M7.55369 18.134C8.25785 18.134 8.82869 17.5631 8.82869 16.859C8.82869 16.1548 8.25785 15.584 7.55369 15.584C6.84952 15.584 6.27869 16.1548 6.27869 16.859C6.27869 17.5631 6.84952 18.134 7.55369 18.134Z" fill="#FE7A01"/>
<path d="M15.3 18.134C16.0042 18.134 16.575 17.5631 16.575 16.859C16.575 16.1548 16.0042 15.584 15.3 15.584C14.5959 15.584 14.025 16.1548 14.025 16.859C14.025 17.5631 14.5959 18.134 15.3 18.134Z" fill="#FE7A01"/>
<path d="M18.7453 3.04242C18.6926 2.97742 18.6261 2.9249 18.5507 2.88865C18.4752 2.8524 18.3927 2.83331 18.309 2.83276H6.511L6.87934 3.96609H17.5667L16.0537 10.7661H7.55367L4.964 2.56642C4.93599 2.47942 4.88735 2.40048 4.82222 2.33634C4.7571 2.2722 4.67743 2.22477 4.59 2.19809L2.26667 1.48409C2.19523 1.46214 2.12017 1.45447 2.04576 1.46153C1.97136 1.46858 1.89908 1.49023 1.83304 1.52522C1.69967 1.59589 1.59984 1.71665 1.5555 1.86092C1.51117 2.0052 1.52596 2.16118 1.59663 2.29455C1.6673 2.42792 1.78806 2.52775 1.93234 2.57209L3.96667 3.19542L6.56767 11.4121L5.63834 12.1714L5.56467 12.2451C5.33479 12.51 5.2045 12.8468 5.19622 13.1974C5.18795 13.5481 5.30221 13.8906 5.51934 14.1661C5.67379 14.3539 5.87005 14.503 6.09243 14.6014C6.31481 14.6998 6.55712 14.7448 6.8 14.7328H16.2577C16.408 14.7328 16.5521 14.6731 16.6584 14.5668C16.7646 14.4605 16.8243 14.3164 16.8243 14.1661C16.8243 14.0158 16.7646 13.8717 16.6584 13.7654C16.5521 13.6591 16.408 13.5994 16.2577 13.5994H6.70934C6.64408 13.5972 6.58051 13.5782 6.52475 13.5442C6.46899 13.5102 6.42294 13.4625 6.39104 13.4055C6.35913 13.3485 6.34246 13.2843 6.34263 13.219C6.3428 13.1537 6.35981 13.0896 6.392 13.0328L7.75767 11.8994H16.507C16.638 11.9026 16.766 11.8603 16.8694 11.7797C16.9727 11.6992 17.0449 11.5853 17.0737 11.4574L18.87 3.52409C18.8872 3.43961 18.885 3.35231 18.8634 3.26884C18.8418 3.18537 18.8014 3.10793 18.7453 3.04242Z" fill="#FE7A01"/>
</svg>
