<svg width="7" height="12" viewBox="0 0 7 12" fill="none" xmlns="http://www.w3.org/2000/svg">
<path d="M1.06641 11.8398C1.3584 11.8398 1.59326 11.7383 1.79639 11.5352L6.57617 6.87598C6.84912 6.60303 6.96973 6.33643 6.97607 6C6.97607 5.66992 6.84912 5.39062 6.57617 5.12402L1.80273 0.458496C1.59326 0.261719 1.35205 0.160156 1.06641 0.160156C0.482422 0.160156 0 0.629883 0 1.21387C0 1.50586 0.126953 1.77246 0.342773 1.99463L4.48779 6.00635L0.342773 10.0054C0.120605 10.2275 0 10.4941 0 10.7861C0 11.3638 0.482422 11.8398 1.06641 11.8398Z" fill="#747B84"/>
</svg>
