<svg width="24" height="24" viewBox="0 0 24 24" fill="none" xmlns="http://www.w3.org/2000/svg">
<path d="M12 22.8532C12.42 22.8436 12.823 22.6857 13.1377 22.4075C13.4525 22.1294 13.6588 21.7488 13.72 21.3333H10.2133C10.2763 21.7601 10.4922 22.1496 10.8209 22.4292C11.1495 22.7088 11.5685 22.8595 12 22.8532V22.8532Z" fill="#414249"/>
<path d="M21.6733 18.5534C21.0305 17.9802 20.4676 17.3232 20 16.6C19.4895 15.6017 19.1835 14.5115 19.1 13.3934V10.1C19.0973 9.69998 19.0616 9.30085 18.9933 8.90668C18.4686 8.80179 17.9643 8.61268 17.5 8.34668C17.677 8.91658 17.7669 9.50994 17.7667 10.1067V13.4C17.8484 14.764 18.2236 16.0943 18.8667 17.3C19.3269 18.0294 19.8731 18.7008 20.4933 19.3H3.42C4.04027 18.7008 4.5864 18.0294 5.04667 17.3C5.68974 16.0943 6.06495 14.764 6.14667 13.4V10.1C6.14316 9.32847 6.29187 8.56382 6.58429 7.84983C6.87672 7.13584 7.3071 6.48655 7.85081 5.93912C8.39452 5.3917 9.04087 4.9569 9.75285 4.65963C10.4648 4.36235 11.2285 4.20843 12 4.20668C13.1292 4.20759 14.233 4.54152 15.1733 5.16668C15.0697 4.78601 15.0115 4.39439 15 4.00002V3.58002C14.3039 3.23759 13.5561 3.01234 12.7867 2.91335V2.07335C12.7867 1.83731 12.6929 1.61093 12.526 1.44402C12.3591 1.27712 12.1327 1.18335 11.8967 1.18335C11.6606 1.18335 11.4342 1.27712 11.2673 1.44402C11.1004 1.61093 11.0067 1.83731 11.0067 2.07335V2.94668C9.28381 3.18972 7.70705 4.04785 6.56748 5.36264C5.42791 6.67743 4.80248 8.36011 4.80667 10.1V13.3934C4.72317 14.5115 4.41718 15.6017 3.90667 16.6C3.44725 17.3216 2.89346 17.9785 2.26 18.5534C2.18889 18.6158 2.13189 18.6927 2.09281 18.7789C2.05373 18.8651 2.03345 18.9587 2.03333 19.0534V19.96C2.03333 20.1368 2.10357 20.3064 2.22859 20.4314C2.35362 20.5564 2.52319 20.6267 2.7 20.6267H21.2333C21.4101 20.6267 21.5797 20.5564 21.7047 20.4314C21.8298 20.3064 21.9 20.1368 21.9 19.96V19.0534C21.8999 18.9587 21.8796 18.8651 21.8405 18.7789C21.8014 18.6927 21.7444 18.6158 21.6733 18.5534V18.5534Z" fill="#414249"/>
</svg>
