<svg width="24" height="24" viewBox="0 0 24 24" fill="none" xmlns="http://www.w3.org/2000/svg">
<path d="M8.88666 21.334C9.71509 21.334 10.3867 20.6624 10.3867 19.834C10.3867 19.0056 9.71509 18.334 8.88666 18.334C8.05823 18.334 7.38666 19.0056 7.38666 19.834C7.38666 20.6624 8.05823 21.334 8.88666 21.334Z" fill="white"/>
<path d="M18 21.334C18.8284 21.334 19.5 20.6624 19.5 19.834C19.5 19.0056 18.8284 18.334 18 18.334C17.1716 18.334 16.5 19.0056 16.5 19.834C16.5 20.6624 17.1716 21.334 18 21.334Z" fill="white"/>
<path d="M22.0534 3.57967C21.9913 3.50319 21.9131 3.44141 21.8244 3.39876C21.7356 3.35611 21.6385 3.33365 21.54 3.333H7.66001L8.09335 4.66633H20.6667L18.8867 12.6663H8.88668L5.84001 3.01967C5.80706 2.9173 5.74983 2.82443 5.67322 2.74898C5.5966 2.67352 5.50287 2.61772 5.40001 2.58633L2.66668 1.74633C2.58263 1.72051 2.49432 1.71149 2.40679 1.71979C2.31926 1.72809 2.23422 1.75355 2.15653 1.79472C1.99962 1.87786 1.88217 2.01993 1.83001 2.18967C1.77785 2.3594 1.79526 2.54291 1.8784 2.69982C1.96154 2.85672 2.10361 2.97417 2.27335 3.02633L4.66668 3.75967L7.72668 13.4263L6.63335 14.3197L6.54668 14.4063C6.27624 14.718 6.12295 15.1142 6.11321 15.5267C6.10348 15.9393 6.23791 16.3423 6.49335 16.6663C6.67505 16.8873 6.90595 17.0627 7.16757 17.1784C7.42919 17.2942 7.71428 17.3471 8.00001 17.333H19.1267C19.3035 17.333 19.4731 17.2628 19.5981 17.1377C19.7231 17.0127 19.7934 16.8431 19.7934 16.6663C19.7934 16.4895 19.7231 16.32 19.5981 16.1949C19.4731 16.0699 19.3035 15.9997 19.1267 15.9997H7.89335C7.81658 15.997 7.74178 15.9747 7.67619 15.9347C7.61059 15.8947 7.55641 15.8385 7.51888 15.7715C7.48135 15.7045 7.46173 15.6289 7.46193 15.5521C7.46213 15.4753 7.48214 15.3998 7.52001 15.333L9.12668 13.9997H19.42C19.5741 14.0034 19.7248 13.9537 19.8463 13.8589C19.9679 13.7641 20.0528 13.6301 20.0867 13.4797L22.2 4.14633C22.2203 4.04694 22.2176 3.94424 22.1922 3.84604C22.1668 3.74784 22.1193 3.65674 22.0534 3.57967Z" fill="white"/>
</svg>
