<svg width="20" height="22" viewBox="0 0 20 22" fill="none" xmlns="http://www.w3.org/2000/svg">
<path d="M9.78667 21.7199C10.2066 21.7103 10.6096 21.5524 10.9244 21.2742C11.2392 20.9961 11.4454 20.6155 11.5067 20.2H8C8.06298 20.6268 8.27888 21.0163 8.60753 21.2959C8.93619 21.5755 9.35522 21.7262 9.78667 21.7199V21.7199Z" fill="#414249"/>
<path fill-rule="evenodd" clip-rule="evenodd" d="M10 0.010552C9.95506 0.00356838 9.90938 0 9.86333 0C9.62729 0 9.40092 0.0937677 9.23401 0.260675C9.0671 0.427582 8.97333 0.653957 8.97333 0.89V1.76333C7.25048 2.00637 5.67372 2.8645 4.53415 4.17929C3.39458 5.49408 2.76915 7.17676 2.77333 8.91667V12.21C2.68984 13.3282 2.38385 14.4184 1.87333 15.4167C1.41392 16.1382 0.86013 16.7952 0.226667 17.37C0.155554 17.4325 0.0985609 17.5094 0.0594783 17.5956C0.0203957 17.6818 0.000119864 17.7753 0 17.87V18.7767C0 18.9535 0.0702379 19.123 0.195262 19.2481C0.320286 19.3731 0.489856 19.4433 0.666667 19.4433H10V18.1167H1.38667C2.00694 17.5175 2.55307 16.846 3.01333 16.1167C3.65641 14.911 4.03162 13.5807 4.11333 12.2167V8.91667C4.10982 8.14513 4.25854 7.38047 4.55096 6.66648C4.84338 5.95249 5.27377 5.3032 5.81748 4.75578C6.36119 4.20835 7.00753 3.77355 7.71951 3.47628C8.43149 3.179 9.19512 3.02508 9.96667 3.02333C9.97778 3.02334 9.98889 3.02338 10 3.02346V0.010552Z" fill="#414249"/>
<path fill-rule="evenodd" clip-rule="evenodd" d="M9.7 0.010552C9.74494 0.00356838 9.79062 0 9.83666 0C10.0727 0 10.2991 0.0937677 10.466 0.260675C10.6329 0.427582 10.7267 0.653957 10.7267 0.89V1.76333C12.4495 2.00637 14.0263 2.8645 15.1658 4.17929C16.3054 5.49408 16.9308 7.17676 16.9267 8.91667V12.21C17.0102 13.3282 17.3161 14.4184 17.8267 15.4167C18.2861 16.1382 18.8399 16.7952 19.4733 17.37C19.5444 17.4325 19.6014 17.5094 19.6405 17.5956C19.6796 17.6818 19.6999 17.7753 19.7 17.87V18.7767C19.7 18.9535 19.6298 19.123 19.5047 19.2481C19.3797 19.3731 19.2101 19.4433 19.0333 19.4433H9.7V18.1167H18.3133C17.6931 17.5175 17.1469 16.846 16.6867 16.1167C16.0436 14.911 15.6684 13.5807 15.5867 12.2167V8.91667C15.5902 8.14513 15.4415 7.38047 15.149 6.66648C14.8566 5.95249 14.4262 5.3032 13.8825 4.75578C13.3388 4.20835 12.6925 3.77355 11.9805 3.47628C11.2685 3.179 10.5049 3.02508 9.73333 3.02333C9.72222 3.02334 9.71111 3.02338 9.7 3.02346V0.010552Z" fill="#414249"/>
</svg>
