<svg width="16" height="16" viewBox="0 0 16 16" fill="none" xmlns="http://www.w3.org/2000/svg">
<path d="M8.6 4.1C8.6 3.76863 8.33137 3.5 8 3.5C7.66863 3.5 7.4 3.76863 7.4 4.1H8.6ZM8 8H7.4C7.4 8.22726 7.5284 8.43502 7.73167 8.53666L8 8ZM10.3317 9.83666C10.6281 9.98485 10.9885 9.86471 11.1367 9.56833C11.2848 9.27194 11.1647 8.91154 10.8683 8.76334L10.3317 9.83666ZM13.9 8C13.9 11.2585 11.2585 13.9 8 13.9V15.1C11.9212 15.1 15.1 11.9212 15.1 8H13.9ZM8 13.9C4.74152 13.9 2.1 11.2585 2.1 8H0.9C0.9 11.9212 4.07878 15.1 8 15.1V13.9ZM2.1 8C2.1 4.74152 4.74152 2.1 8 2.1V0.9C4.07878 0.9 0.9 4.07878 0.9 8H2.1ZM8 2.1C11.2585 2.1 13.9 4.74152 13.9 8H15.1C15.1 4.07878 11.9212 0.9 8 0.9V2.1ZM7.4 4.1V8H8.6V4.1H7.4ZM7.73167 8.53666L10.3317 9.83666L10.8683 8.76334L8.26833 7.46334L7.73167 8.53666Z" fill="#747B84"/>
</svg>
