<svg width="20" height="20" viewBox="0 0 20 20" fill="none" xmlns="http://www.w3.org/2000/svg">
<path d="M7.60002 1.60039C7.28176 1.60039 6.97654 1.72682 6.7515 1.95186C6.52645 2.17691 6.40002 2.48213 6.40002 2.80039V3.40039C6.40002 3.55952 6.33681 3.71213 6.22429 3.82465C6.11177 3.93718 5.95915 4.00039 5.80002 4.00039C5.64089 4.00039 5.48828 3.93718 5.37576 3.82465C5.26324 3.71213 5.20002 3.55952 5.20002 3.40039V2.80039C5.20002 2.16387 5.45288 1.55342 5.90297 1.10333C6.35306 0.653247 6.9635 0.400391 7.60002 0.400391H8.20002C8.35915 0.400391 8.51177 0.463605 8.62429 0.576127C8.73681 0.688648 8.80002 0.841261 8.80002 1.00039C8.80002 1.15952 8.73681 1.31213 8.62429 1.42465C8.51177 1.53718 8.35915 1.60039 8.20002 1.60039H7.60002ZM6.40002 12.4004C6.40002 12.7186 6.52645 13.0239 6.7515 13.2489C6.97654 13.474 7.28176 13.6004 7.60002 13.6004H8.20002C8.35915 13.6004 8.51177 13.6636 8.62429 13.7761C8.73681 13.8886 8.80002 14.0413 8.80002 14.2004C8.80002 14.3595 8.73681 14.5121 8.62429 14.6247C8.51177 14.7372 8.35915 14.8004 8.20002 14.8004H7.60002C6.9635 14.8004 6.35306 14.5475 5.90297 14.0974C5.45288 13.6474 5.20002 13.0369 5.20002 12.4004V11.8004C5.20002 11.6413 5.26324 11.4886 5.37576 11.3761C5.48828 11.2636 5.64089 11.2004 5.80002 11.2004C5.95915 11.2004 6.11177 11.2636 6.22429 11.3761C6.33681 11.4886 6.40002 11.6413 6.40002 11.8004V12.4004ZM6.40002 5.80039C6.40002 5.64126 6.33681 5.48865 6.22429 5.37613C6.11177 5.2636 5.95915 5.20039 5.80002 5.20039C5.64089 5.20039 5.48828 5.2636 5.37576 5.37613C5.26324 5.48865 5.20002 5.64126 5.20002 5.80039V9.40039C5.20002 9.55952 5.26324 9.71213 5.37576 9.82465C5.48828 9.93718 5.64089 10.0004 5.80002 10.0004C5.95915 10.0004 6.11177 9.93718 6.22429 9.82465C6.33681 9.71213 6.40002 9.55952 6.40002 9.40039V5.80039ZM17.2 1.60039C17.5183 1.60039 17.8235 1.72682 18.0486 1.95186C18.2736 2.17691 18.4 2.48213 18.4 2.80039V3.40039C18.4 3.55952 18.4632 3.71213 18.5758 3.82465C18.6883 3.93718 18.8409 4.00039 19 4.00039C19.1592 4.00039 19.3118 3.93718 19.4243 3.82465C19.5368 3.71213 19.6 3.55952 19.6 3.40039V2.80039C19.6 2.16387 19.3472 1.55342 18.8971 1.10333C18.447 0.653247 17.8365 0.400391 17.2 0.400391H16.6C16.4409 0.400391 16.2883 0.463605 16.1758 0.576127C16.0632 0.688648 16 0.841261 16 1.00039C16 1.15952 16.0632 1.31213 16.1758 1.42465C16.2883 1.53718 16.4409 1.60039 16.6 1.60039H17.2ZM17.2 13.6004C17.5183 13.6004 17.8235 13.474 18.0486 13.2489C18.2736 13.0239 18.4 12.7186 18.4 12.4004V11.8004C18.4 11.6413 18.4632 11.4886 18.5758 11.3761C18.6883 11.2636 18.8409 11.2004 19 11.2004C19.1592 11.2004 19.3118 11.2636 19.4243 11.3761C19.5368 11.4886 19.6 11.6413 19.6 11.8004V12.4004C19.6 13.0369 19.3472 13.6474 18.8971 14.0974C18.447 14.5475 17.8365 14.8004 17.2 14.8004H16.6C16.4409 14.8004 16.2883 14.7372 16.1758 14.6247C16.0632 14.5121 16 14.3595 16 14.2004C16 14.0413 16.0632 13.8886 16.1758 13.7761C16.2883 13.6636 16.4409 13.6004 16.6 13.6004H17.2ZM19 5.20039C18.8409 5.20039 18.6883 5.2636 18.5758 5.37613C18.4632 5.48865 18.4 5.64126 18.4 5.80039V9.40039C18.4 9.55952 18.4632 9.71213 18.5758 9.82465C18.6883 9.93718 18.8409 10.0004 19 10.0004C19.1592 10.0004 19.3118 9.93718 19.4243 9.82465C19.5368 9.71213 19.6 9.55952 19.6 9.40039V5.80039C19.6 5.64126 19.5368 5.48865 19.4243 5.37613C19.3118 5.2636 19.1592 5.20039 19 5.20039ZM10.6 0.400391C10.4409 0.400391 10.2883 0.463605 10.1758 0.576127C10.0632 0.688648 10 0.841261 10 1.00039C10 1.15952 10.0632 1.31213 10.1758 1.42465C10.2883 1.53718 10.4409 1.60039 10.6 1.60039H14.2C14.3592 1.60039 14.5118 1.53718 14.6243 1.42465C14.7368 1.31213 14.8 1.15952 14.8 1.00039C14.8 0.841261 14.7368 0.688648 14.6243 0.576127C14.5118 0.463605 14.3592 0.400391 14.2 0.400391H10.6ZM10 14.2004C10 14.0413 10.0632 13.8886 10.1758 13.7761C10.2883 13.6636 10.4409 13.6004 10.6 13.6004H14.2C14.3592 13.6004 14.5118 13.6636 14.6243 13.7761C14.7368 13.8886 14.8 14.0413 14.8 14.2004C14.8 14.3595 14.7368 14.5121 14.6243 14.6247C14.5118 14.7372 14.3592 14.8004 14.2 14.8004H10.6C10.4409 14.8004 10.2883 14.7372 10.1758 14.6247C10.0632 14.5121 10 14.3595 10 14.2004ZM2.80002 5.20039H4.00002V13.0004C4.00002 13.796 4.31609 14.5591 4.8787 15.1217C5.44131 15.6843 6.20437 16.0004 7.00002 16.0004H14.8V17.2004C14.8 17.8369 14.5472 18.4474 14.0971 18.8974C13.647 19.3475 13.0365 19.6004 12.4 19.6004H4.60002C3.48611 19.6004 2.41783 19.1579 1.63018 18.3702C0.842523 17.5826 0.400024 16.5143 0.400024 15.4004V7.60039C0.400024 6.96387 0.652881 6.35342 1.10297 5.90333C1.55306 5.45325 2.1635 5.20039 2.80002 5.20039Z" fill="#543884"/>
</svg>
