<svg width="75" height="75" viewBox="0 0 75 75" fill="none" xmlns="http://www.w3.org/2000/svg">
<path d="M54.7258 13.0805C56.1349 12.399 57.1109 10.9611 57.1109 9.29208C57.1109 8.17706 56.668 7.10771 55.8795 6.31927C55.0911 5.53083 54.0217 5.08789 52.9067 5.08789C51.7917 5.08789 50.7223 5.53083 49.9339 6.31927C49.1454 7.10771 48.7025 8.17706 48.7025 9.29208C48.7025 10.9842 49.7016 12.4337 51.1396 13.1036C49.4764 22.1126 46.9238 28.8173 37.424 30.2495C37.424 30.2495 39.9823 43.0411 51.9481 43.0411C63.9138 43.0411 65.1266 30.3766 65.1266 30.3766C55.4188 30.8732 54.5988 18.6707 54.7258 13.0805Z" fill="#F19534"/>
<path d="M20.2029 13.0805C18.7938 12.399 17.8178 10.9611 17.8178 9.29208C17.8178 8.17706 18.2608 7.10771 19.0492 6.31927C19.8377 5.53083 20.907 5.08789 22.022 5.08789C23.137 5.08789 24.2064 5.53083 24.9948 6.31927C25.7833 7.10771 26.2262 8.17706 26.2262 9.29208C26.2262 10.9842 25.2271 12.4337 23.7892 13.1036C25.4524 22.1126 28.0049 28.8173 37.5048 30.2495C37.5048 30.2495 34.9465 43.0411 22.9807 43.0411C11.0149 43.0411 9.80792 30.3823 9.80792 30.3823C19.5099 30.8732 20.33 18.6707 20.2029 13.0805Z" fill="#F19534"/>
<path d="M51.7863 43.0399C51.8383 43.0399 51.8903 43.0456 51.9422 43.0456C55.2398 43.0456 57.7172 42.0812 59.5768 40.6895L51.7863 43.0399Z" fill="#FFCA28"/>
<path d="M69.0015 10.2218C67.0785 9.96197 65.242 11.7926 64.9071 14.299C64.6992 15.864 65.1208 17.3251 65.935 18.2664L64.549 24.0125C64.549 24.0125 62.4296 37.5895 51.7228 40.2691C43.1642 42.4116 40.0631 26.7441 39.3123 21.9046C40.9409 21.0961 42.067 19.4214 42.067 17.4752C42.067 14.7437 39.8552 12.5318 37.1236 12.5318C34.392 12.5318 32.1802 14.7437 32.1802 17.4752C32.1802 19.433 33.3237 21.125 34.9811 21.922C34.3863 26.6979 31.7644 41.8457 22.5244 40.2633C13.1458 38.6521 9.05138 22.8575 8.10428 18.5609C9.2304 17.6369 9.85988 16.0084 9.62888 14.2586C9.29393 11.7464 7.30733 9.94465 5.19369 10.2276C3.08004 10.5106 1.64207 12.7744 1.97702 15.2807C2.21957 17.1056 3.33991 18.5552 4.74324 19.1038L12.089 64.7435C12.089 64.7435 18.4993 69.8082 37.1236 69.8082C55.7479 69.8082 62.1582 64.7435 62.1582 64.7435L69.5213 18.9825C70.7109 18.3588 71.6465 16.9555 71.8775 15.2345C72.2182 12.7224 70.9304 10.4817 69.0015 10.2218Z" fill="#FFCA28"/>
<path d="M37.3546 58.183C40.4612 58.183 42.9795 55.1811 42.9795 51.4782C42.9795 47.7753 40.4612 44.7734 37.3546 44.7734C34.2481 44.7734 31.7298 47.7753 31.7298 51.4782C31.7298 55.1811 34.2481 58.183 37.3546 58.183Z" fill="#1B3A4B"/>
<path d="M37.3546 46.4305C37.5741 46.673 37.7704 47.1177 37.3546 47.984C36.9388 48.8502 34.6981 50.0225 34.2881 50.2593C33.8781 50.5019 33.6066 50.3921 33.4796 50.294C32.8732 49.8089 33.1042 48.7116 33.4969 48.0417C34.3401 46.5922 36.1245 45.0965 37.3546 46.4305Z" fill="#006466"/>
<path d="M36.9388 53.9777C36.3036 54.2838 34.2188 55.2136 34.906 56.3166C35.3103 56.9692 36.1477 57.2464 36.9157 57.281C37.6838 57.3157 38.4403 57.0731 39.1218 56.7208C42.3558 55.0461 42.6156 50.6456 41.9862 50.3106C41.3394 49.9641 40.9005 50.8592 40.5655 51.2404C39.5471 52.381 38.3149 53.311 36.9388 53.9777Z" fill="#144552"/>
<path d="M68.3375 45.991C69.2384 41.0072 65.8889 39.7598 65.8889 39.7598C65.8889 39.7598 63.729 39.3671 62.7126 44.9746C61.6962 50.5764 63.8561 50.9691 63.8561 50.9691C63.8561 50.9691 67.4308 50.9749 68.3375 45.991Z" fill="#1B3A4B"/>
<path d="M66.8475 41.464C67.6329 42.515 66.7031 44.0685 65.1959 45.1022C64.7512 45.4083 64.1622 45.2928 64.0755 45.0387C63.833 44.311 63.9369 43.4852 64.2603 42.7865C65.219 40.6901 66.449 40.9327 66.8475 41.464Z" fill="#006466"/>
<path d="M5.77698 46.1414C4.87031 41.1634 8.22558 39.9102 8.22558 39.9102C8.22558 39.9102 10.3854 39.5175 11.4018 45.125C12.4182 50.7268 10.2584 51.1195 10.2584 51.1195C10.2584 51.1195 6.67788 51.1253 5.77698 46.1414Z" fill="#1B3A4B"/>
<path d="M9.25353 41.6032C10.0274 42.1807 9.70976 42.9373 9.12648 43.4628C8.46236 44.0692 7.95416 44.7333 7.38821 45.4205C7.30159 45.5244 7.20341 45.6399 7.06481 45.6688C6.79916 45.7266 6.58549 45.4551 6.49886 45.1953C6.25054 44.4676 6.29674 43.6129 6.66634 42.943C7.71739 41.0315 8.95323 41.378 9.25353 41.6032Z" fill="#006466"/>
<path d="M57.8847 50.8199C57.4863 53.0895 55.6671 54.6661 53.8134 54.3427C51.9596 54.0193 51.7055 52.0846 52.104 49.8151C52.5025 47.5455 53.3976 45.8072 55.2456 46.1306C57.0993 46.454 58.2832 48.5561 57.8847 50.8199Z" fill="#4D194D"/>
<path d="M17.7139 50.8199C18.1124 53.0895 19.9315 54.6661 21.7853 54.3427C23.639 54.0193 23.8931 52.0846 23.4947 49.8151C23.0962 47.5455 22.2011 45.8072 20.3531 46.1306C18.5051 46.454 17.3212 48.5561 17.7139 50.8199Z" fill="#4D194D"/>
<path d="M20.3992 49.3071C19.9776 49.7806 18.9497 50.7335 18.5859 50.0059C18.0892 49.0126 18.7765 47.5111 19.5618 47.0144C20.3472 46.5178 20.9883 46.9105 21.098 47.3552C21.2308 47.9211 20.7746 48.8798 20.3992 49.3071Z" fill="#FFA8A4" fill-opacity="0.1"/>
<path d="M53.2589 50.7562C52.6872 50.6696 52.6237 48.7003 54.1598 47.1526C54.8933 46.4134 55.9443 47.2912 55.6787 48.4751C55.4246 49.6012 54.3042 50.9179 53.2589 50.7562Z" fill="#FFA8A4" fill-opacity="0.1"/>
<path d="M63.1746 57.2012C59.7154 58.9337 51.7806 63.5479 37.1294 63.5479C22.4783 63.5479 14.5434 58.9337 11.0842 57.2012C11.0842 57.2012 9.84259 57.8653 9.84259 58.5583V63.8771C9.84259 64.5874 10.218 65.24 10.8301 65.6038C13.5328 67.1977 21.7679 70.963 37.1352 70.963C52.5024 70.963 60.7376 67.1977 63.4403 65.6038C63.7407 65.4266 63.9899 65.1742 64.163 64.8714C64.3362 64.5686 64.4275 64.2259 64.4278 63.8771V58.5583C64.4162 57.8653 63.1746 57.2012 63.1746 57.2012Z" fill="#FFCA28"/>
<path d="M23.0096 64.4939C24.6266 64.8115 25.1175 64.9501 25.0077 65.851C24.7825 67.624 21.1038 67.2024 18.9267 66.6307C14.428 65.4468 13.5155 64.1994 13.5155 63.0848C13.5155 62.0626 14.3009 61.9414 15.5136 62.3687C16.9632 62.8827 19.2039 63.7489 23.0096 64.4939Z" fill="#FFF59D"/>
<path d="M63.1746 58.3672C63.1746 58.3672 53.6055 63.7841 37.1294 63.7841C20.6534 63.7841 11.0842 58.3672 11.0842 58.3672" stroke="#F19534" stroke-width="2.95679" stroke-miterlimit="10" stroke-linecap="round"/>
<path d="M15.7158 29.1108C18.7881 26.9163 20.4397 22.9835 20.5841 16.7234C20.5956 16.1575 20.7573 15.99 21.0634 15.9553C21.5543 15.9034 21.6351 16.348 21.6294 16.6657C21.4908 23.4224 20.6303 27.6439 17.223 30.0232C17.0556 30.1387 15.8601 30.8664 15.3519 30.3639C14.7456 29.7749 15.5194 29.2494 15.7158 29.1108Z" fill="#FFCA28"/>
<path d="M18.5282 9.45884C18.43 8.41357 18.6725 6.53092 21.4156 5.67623C22.2184 5.4279 22.715 5.8206 22.8074 6.12667C23.0384 6.88897 22.3685 7.18927 22.0624 7.28745C19.9546 7.9689 19.8506 9.01994 19.4175 9.68984C18.9844 10.3597 18.5628 9.77647 18.5282 9.45884Z" fill="#FFCA28"/>
<path d="M45.3126 27.7249C48.0903 25.259 49.9326 22.5043 51.1453 16.2327C51.255 15.6783 51.4167 15.5281 51.717 15.5397C52.2079 15.5512 52.231 16.0074 52.179 16.3193C51.1511 23.0067 50.1751 24.9125 46.7505 28.7066C46.3636 29.134 45.4223 29.5209 44.891 29.0762C44.4117 28.6778 44.9661 28.0367 45.3126 27.7249Z" fill="#FFCA28"/>
<path d="M49.4013 9.51158C49.3031 8.4663 49.5456 6.58366 52.2888 5.72896C53.0915 5.48064 53.5881 5.87333 53.6805 6.17941C53.9115 6.94171 53.2416 7.24201 52.9355 7.34018C50.8277 8.02163 50.7237 9.07268 50.2906 9.74258C49.8633 10.4125 49.4359 9.8292 49.4013 9.51158Z" fill="#FFCA28"/>
<path d="M18.3838 41.8457C11.6733 38.8023 9.69821 30.8616 8.64716 27.414C8.50856 26.9578 8.57786 26.5246 9.03409 26.386C9.49031 26.2474 9.76174 26.542 9.90611 26.9982C10.6684 29.4988 13.631 37.8494 19.7467 40.2229C20.1914 40.3962 20.8844 40.8177 20.509 41.5396C20.2607 42.0074 19.4637 42.3366 18.3838 41.8457Z" fill="#FFF59D"/>
<path d="M7.46328 14.7073C7.13988 14.0374 7.00705 13.4021 5.24568 12.6687C4.80101 12.4839 4.50648 12.0739 4.62776 11.6119C4.74903 11.1499 5.21103 10.8034 5.88093 10.9189C8.0581 11.2942 8.53165 13.5061 8.62405 14.2741C8.71068 15.0133 7.79245 15.3772 7.46328 14.7073Z" fill="#FFF59D"/>
<path d="M56.0829 41.8457C62.7934 38.8023 64.7685 30.8616 65.8195 27.414C65.9581 26.9578 65.8888 26.5246 65.4326 26.386C64.9764 26.2474 64.705 26.542 64.5606 26.9982C63.7983 29.4988 60.8357 37.8494 54.72 40.2229C54.2753 40.3962 53.5823 40.8177 53.9577 41.5396C54.206 42.0074 55.003 42.3366 56.0829 41.8457Z" fill="#FFF59D"/>
<path d="M67.0035 14.7073C67.3269 14.0374 67.4597 13.4021 69.221 12.6687C69.6657 12.4839 69.9602 12.0739 69.839 11.6119C69.7177 11.1499 69.2557 10.8034 68.5858 10.9189C66.4086 11.2942 65.9351 13.5061 65.8427 14.2741C65.7561 15.0133 66.6801 15.3772 67.0035 14.7073Z" fill="#FFF59D"/>
<path d="M34.4325 17.5485C34.7848 16.8266 35.4027 15.8391 37.4182 15.4233C38.192 15.2616 38.4172 14.9267 38.3479 14.4185C38.2093 13.3616 36.8926 13.4367 36.1823 13.6042C33.8146 14.1586 33.289 16.2607 33.1909 17.0923C33.0927 17.8835 34.086 18.2704 34.4325 17.5485Z" fill="#FFF59D"/>
</svg>
