<svg width="184" height="184" viewBox="0 0 184 184" fill="none" xmlns="http://www.w3.org/2000/svg">
<g clip-path="url(#clip0_436_1458)">
<path fill-rule="evenodd" clip-rule="evenodd" d="M113.446 159.226C113.775 159.017 114.134 158.858 114.508 158.75C148.27 148.998 172.96 117.863 172.96 80.96C172.96 36.247 136.713 0 92 0C47.287 0 11.04 36.247 11.04 80.96C11.04 112.813 29.4348 140.369 56.181 153.585C56.2112 153.6 56.1988 153.646 56.1652 153.644C56.1436 153.642 56.1271 153.663 56.1337 153.683L65.5938 183.64C66.3847 186.145 69.3338 187.22 71.5514 185.813L113.446 159.226Z" fill="#DC1D10"/>
<path d="M106.72 83.4567C107.963 82.2141 107.963 80.1994 106.72 78.9568L106.043 78.2796C104.8 77.037 102.786 77.037 101.543 78.2796L92 87.8227L82.4569 78.2796C81.2143 77.037 79.1996 77.037 77.957 78.2796L77.2798 78.9568C76.0372 80.1994 76.0372 82.2141 77.2798 83.4567L86.8229 92.9998L77.2798 102.543C76.0372 103.786 76.0372 105.8 77.2798 107.043L77.957 107.72C79.1996 108.963 81.2143 108.963 82.4569 107.72L92 98.1769L101.543 107.72C102.786 108.963 104.8 108.963 106.043 107.72L106.72 107.043C107.963 105.8 107.963 103.786 106.72 102.543L97.1771 92.9998L106.72 83.4567Z" fill="white"/>
</g>
<defs>
<clipPath id="clip0_436_1458">
<rect width="184" height="184" fill="white"/>
</clipPath>
</defs>
</svg>
