<svg width="21" height="21" viewBox="0 0 21 21" fill="none" xmlns="http://www.w3.org/2000/svg">
<path d="M13.77 12.2396C13.6347 12.2396 13.505 12.2933 13.4094 12.389C13.3137 12.4846 13.26 12.6143 13.26 12.7496C13.26 12.8849 13.3137 13.0146 13.4094 13.1102C13.505 13.2059 13.6347 13.2596 13.77 13.2596H14.79C14.9253 13.2596 15.055 13.2059 15.1506 13.1102C15.2463 13.0146 15.3 12.8849 15.3 12.7496C15.3 12.6143 15.2463 12.4846 15.1506 12.389C15.055 12.2933 14.9253 12.2396 14.79 12.2396H13.77ZM4.59 5.09961H6.80238L6.08838 6.11961H4.59C4.45474 6.11961 4.32502 6.17334 4.22937 6.26898C4.13373 6.36463 4.08 6.49435 4.08 6.62961C4.08 6.76487 4.13373 6.89459 4.22937 6.99023C4.32502 7.08588 4.45474 7.13961 4.59 7.13961H15.3C15.841 7.13961 16.3599 7.35454 16.7425 7.73711C17.1251 8.11969 17.34 8.63857 17.34 9.17961V15.2996C17.34 15.8407 17.1251 16.3595 16.7425 16.7421C16.3599 17.1247 15.841 17.3396 15.3 17.3396H5.61C4.9337 17.3396 4.28509 17.0709 3.80688 16.5927C3.32866 16.1145 3.06 15.4659 3.06 14.7896V6.62961C3.06 6.22383 3.22119 5.83467 3.50812 5.54774C3.79505 5.2608 4.18422 5.09961 4.59 5.09961ZM4.08 14.7896C4.08 15.1954 4.24119 15.5846 4.52812 15.8715C4.81505 16.1584 5.20422 16.3196 5.61 16.3196H15.3C15.5705 16.3196 15.83 16.2121 16.0212 16.0209C16.2125 15.8296 16.32 15.5701 16.32 15.2996V9.17961C16.32 8.90909 16.2125 8.64965 16.0212 8.45836C15.83 8.26707 15.5705 8.15961 15.3 8.15961H4.59C4.4115 8.15961 4.23912 8.12901 4.08 8.07291V14.7896Z" fill="#747B84"/>
<path d="M10.2429 1.67424C10.3631 1.50181 10.5176 1.35602 10.6968 1.24596C10.8759 1.1359 11.0757 1.06393 11.2839 1.03455C11.4921 1.00517 11.7041 1.019 11.9066 1.07518C12.1092 1.13137 12.2981 1.2287 12.4614 1.3611L15.7968 4.0692C16.0948 4.31104 16.291 4.65605 16.3466 5.03581C16.4021 5.41557 16.3129 5.80234 16.0966 6.1194H14.8522L15.25 5.54922C15.3241 5.44361 15.3554 5.31386 15.3376 5.1861C15.3198 5.05835 15.2542 4.94209 15.1542 4.86072L13.4365 3.4674L11.6046 6.1194H10.3632L12.6419 2.82276L11.8177 2.15364C11.7633 2.10949 11.7004 2.07702 11.6329 2.05827C11.5654 2.03951 11.4947 2.03487 11.4253 2.04463C11.3559 2.0544 11.2893 2.07835 11.2296 2.11501C11.1699 2.15166 11.1184 2.20023 11.0782 2.25768L8.38441 6.11838H7.14001L10.2429 1.67424Z" fill="#747B84"/>
</svg>
