<svg width="20" height="16" viewBox="0 0 20 16" fill="none" xmlns="http://www.w3.org/2000/svg">
<path d="M12.8333 1.5V3.35714M12.8333 7.07143V8.92857M12.8333 12.6429V14.5M3.38889 1.5C2.88792 1.5 2.40748 1.69566 2.05324 2.04394C1.69901 2.39223 1.5 2.8646 1.5 3.35714V6.14286C2.00096 6.14286 2.48141 6.33852 2.83565 6.6868C3.18988 7.03508 3.38889 7.50746 3.38889 8C3.38889 8.49254 3.18988 8.96492 2.83565 9.3132C2.48141 9.66148 2.00096 9.85714 1.5 9.85714V12.6429C1.5 13.1354 1.69901 13.6078 2.05324 13.9561C2.40748 14.3043 2.88792 14.5 3.38889 14.5H16.6111C17.1121 14.5 17.5925 14.3043 17.9468 13.9561C18.301 13.6078 18.5 13.1354 18.5 12.6429V9.85714C17.999 9.85714 17.5186 9.66148 17.1644 9.3132C16.8101 8.96492 16.6111 8.49254 16.6111 8C16.6111 7.50746 16.8101 7.03508 17.1644 6.6868C17.5186 6.33852 17.999 6.14286 18.5 6.14286V3.35714C18.5 2.8646 18.301 2.39223 17.9468 2.04394C17.5925 1.69566 17.1121 1.5 16.6111 1.5H3.38889Z" stroke="#49504F" stroke-width="1.5" stroke-linecap="round" stroke-linejoin="round"/>
</svg>
