<svg width="40" height="40" viewBox="0 0 40 40" fill="none" xmlns="http://www.w3.org/2000/svg">
<circle opacity="0.05" cx="20" cy="20" r="20" fill="#FE7A01"/>
<path d="M26.25 16.2509H24.5238C24.9277 15.6496 25.0833 14.9153 24.9579 14.2019C24.8325 13.4884 24.4359 12.8511 23.8512 12.4235C23.2665 11.9959 22.539 11.8112 21.8211 11.908C21.1032 12.0048 20.4506 12.3756 20 12.9428C19.5494 12.3756 18.8968 12.0048 18.1789 11.908C17.461 11.8112 16.7335 11.9959 16.1488 12.4235C15.5641 12.8511 15.1675 13.4884 15.0421 14.2019C14.9167 14.9153 15.0723 15.6496 15.4763 16.2509H13.75C13.4186 16.2513 13.1008 16.3831 12.8665 16.6174C12.6321 16.8518 12.5003 17.1695 12.5 17.5009V20.0009C12.5003 20.3324 12.6321 20.6501 12.8665 20.8845C13.1008 21.1188 13.4186 21.2506 13.75 21.2509V27.5009C13.7503 27.8324 13.8821 28.1501 14.1165 28.3845C14.3508 28.6188 14.6686 28.7506 15 28.7509H25C25.3314 28.7506 25.6492 28.6188 25.8835 28.3845C26.1179 28.1501 26.2497 27.8324 26.25 27.5009V21.2509C26.5814 21.2506 26.8992 21.1188 27.1335 20.8845C27.3679 20.6501 27.4997 20.3324 27.5 20.0009V17.5009C27.4997 17.1695 27.3679 16.8518 27.1335 16.6174C26.8992 16.3831 26.5814 16.2513 26.25 16.2509ZM20.625 14.6884C20.625 14.3794 20.7166 14.0773 20.8883 13.8204C21.06 13.5634 21.304 13.3631 21.5896 13.2449C21.8751 13.1266 22.1892 13.0957 22.4923 13.156C22.7954 13.2163 23.0738 13.3651 23.2924 13.5836C23.5109 13.8021 23.6597 14.0805 23.72 14.3836C23.7803 14.6867 23.7493 15.0009 23.6311 15.2864C23.5128 15.5719 23.3125 15.8159 23.0556 15.9876C22.7986 16.1593 22.4965 16.2509 22.1875 16.2509H20.625V14.6884ZM17.8125 13.1259C18.2267 13.1264 18.6239 13.2912 18.9168 13.5841C19.2097 13.8771 19.3745 14.2742 19.375 14.6884V16.2509H17.8125C17.3981 16.2509 17.0007 16.0863 16.7076 15.7933C16.4146 15.5003 16.25 15.1028 16.25 14.6884C16.25 14.274 16.4146 13.8766 16.7076 13.5836C17.0007 13.2906 17.3981 13.1259 17.8125 13.1259ZM13.75 17.5009H19.375V20.0009H13.75V17.5009ZM15 21.2509H19.375V27.5009H15V21.2509ZM25.0006 27.5009H20.625V21.2509H25L25.0006 27.5009ZM20.625 20.0009V17.5009H26.25L26.2506 20.0009H20.625Z" fill="url(#paint0_linear_606_10)"/>
<defs>
<linearGradient id="paint0_linear_606_10" x1="20" y1="11.8828" x2="20" y2="28.7509" gradientUnits="userSpaceOnUse">
<stop stop-color="#FE7A01"/>
<stop offset="1" stop-color="#FFC188"/>
</linearGradient>
</defs>
</svg>
