<svg width="18" height="16" viewBox="0 0 18 16" fill="none" xmlns="http://www.w3.org/2000/svg">
<path fill-rule="evenodd" clip-rule="evenodd" d="M9 1.50572C9.983 0.539931 11.2784 0 12.6634 0C15.606 0 18 2.47813 18 5.52414C18 11.1957 9.6866 15.6307 9.3326 15.8168L8.984 16L8.6424 15.8029C8.2896 15.5994 0 10.7572 0 5.52414C0 2.47813 2.394 0 5.3366 0C6.7214 0 8.0166 0.540138 9 1.50572ZM1.4694 5.52415C1.4694 8.95668 6.6198 12.8107 9.0114 14.2686C10.5278 13.3979 16.5306 9.68646 16.5306 5.52415C16.5306 3.31681 14.7958 1.52104 12.6634 1.52104C11.4458 1.52104 10.3234 2.09741 9.5846 3.10212L9 3.8969L8.4154 3.10212C7.6764 2.09741 6.5542 1.52104 5.3366 1.52104C3.2042 1.52104 1.4694 3.31681 1.4694 5.52415Z" fill="#212224"/>
</svg>
