<svg width="14" height="13" viewBox="0 0 14 13" fill="none" xmlns="http://www.w3.org/2000/svg">
<path d="M9.9965 0.392578C8.70665 0.392578 7.6045 1.31196 6.99896 1.94581C6.39342 1.31196 5.29373 0.392578 4.0045 0.392578C1.78234 0.392578 0.230957 1.9415 0.230957 4.15873C0.230957 6.60181 2.15773 8.18089 4.02173 9.70827C4.90173 10.4301 5.8125 11.176 6.51096 12.003C6.6285 12.1415 6.8008 12.2215 6.98173 12.2215H7.01742C7.19896 12.2215 7.37065 12.1409 7.48757 12.003C8.18727 11.176 9.09742 10.4295 9.97804 9.70827C11.8414 8.1815 13.7694 6.60242 13.7694 4.15873C13.7694 1.9415 12.218 0.392578 9.9965 0.392578V0.392578Z" fill="#543884"/>
</svg>
