<svg width="351" height="190" viewBox="0 0 351 190" fill="none" xmlns="http://www.w3.org/2000/svg">
<g clip-path="url(#clip0_10_63)">
<rect width="350.469" height="189.882" rx="21.7009" fill="white"/>
<g filter="url(#filter0_d_10_63)">
<path d="M0 21.7009C0 9.71581 9.7158 0 21.7009 0H328.768C340.753 0 350.469 9.7158 350.469 21.7009V168.182C350.469 180.167 340.753 189.882 328.768 189.882H21.7009C9.71583 189.882 0 180.167 0 168.182V21.7009Z" fill="url(#paint0_linear_10_63)"/>
</g>
<g opacity="0.2">
<path d="M-13.0161 88.1562C-65.4475 88.1562 -107.953 130.662 -107.953 183.093C-107.953 235.533 -65.4475 278.039 -13.0161 278.039C39.4152 278.039 81.9295 235.533 81.9295 183.093C81.9295 130.662 39.4152 88.1562 -13.0161 88.1562ZM-13.0161 266.779C-59.2304 266.779 -96.7017 229.307 -96.7017 183.093C-96.7017 136.879 -59.2304 99.4163 -13.0161 99.4163C33.1982 99.4163 70.6695 136.879 70.6695 183.093C70.6695 229.307 33.1982 266.779 -13.0161 266.779Z" fill="#FBFBFC"/>
<path d="M-13.0163 266.777C-6.39008 266.777 0.0582238 266.004 6.2397 264.545L-13.0163 183.092L-32.2722 264.545C-26.0907 266.004 -19.6424 266.777 -13.0163 266.777Z" fill="#FBFBFC"/>
<path d="M67.156 207.142L-13.0164 183.092L47.8734 240.486C56.6875 231.138 63.3671 219.772 67.156 207.142Z" fill="#FBFBFC"/>
<path d="M47.8824 125.707L-13.0073 183.101L67.1651 159.051C63.3672 146.422 56.6877 135.046 47.8824 125.707Z" fill="#FBFBFC"/>
<path d="M-13.0162 99.415C-19.6424 99.415 -26.0907 100.189 -32.281 101.647L-13.0251 183.101L6.23087 101.647C0.058296 100.189 -6.39001 99.415 -13.0162 99.415Z" fill="#FBFBFC"/>
</g>
<path opacity="0.3" fill-rule="evenodd" clip-rule="evenodd" d="M306.499 21.8257C303.727 22.7828 300.086 25.005 297.983 27.0219C295.962 28.9605 293.339 32.5915 292.154 35.091C290.574 38.423 290 41.2115 290 45.5433C290 49.8351 290.581 52.6944 292.125 55.9955C293.295 58.495 296.114 62.2505 298.393 64.3419C301.033 66.7659 304.271 68.6601 307.33 69.568C309.967 70.3515 313.671 70.9923 315.562 70.9923C317.452 70.9923 321.233 70.1561 323.964 69.1345C326.816 68.0675 330.465 65.7416 332.533 63.6739C334.514 61.6934 336.895 58.5423 337.825 56.6708C339.075 54.1578 339.516 51.2511 339.516 45.5433C339.516 39.8354 339.075 36.9288 337.825 34.4157C336.895 32.5443 334.514 29.3932 332.533 27.4127C330.465 25.3449 326.816 23.0191 323.964 21.952C321.233 20.9305 317.275 20.1079 315.169 20.1243C313.064 20.1406 309.162 20.9059 306.499 21.8257ZM318.116 23.6962C316.343 24.6342 313.078 27.2745 310.858 29.564C308.639 31.8544 306.33 33.7277 305.727 33.7277C305.125 33.7277 304.406 33.3623 304.13 32.9151C303.853 32.4688 304.249 30.322 305.009 28.1434C305.768 25.9657 307.071 23.6735 307.902 23.0482C308.77 22.3965 311.959 21.9293 315.377 21.952L321.339 21.992L318.116 23.6962ZM324.908 23.7044C326.187 24.1907 329.076 26.2875 331.329 28.3652C333.583 30.442 335.426 32.5088 335.426 32.9578C335.426 33.4068 334.219 33.1505 332.745 32.388C331.27 31.6254 328.19 31.001 325.899 31.001C323.609 31.001 320.419 31.5509 318.81 32.2234C317.201 32.896 315.324 34.123 314.638 34.9501C313.952 35.7772 312.905 36.4543 312.312 36.4543C311.719 36.4543 310.484 35.9063 309.568 35.2364C307.997 34.0876 308.093 33.8067 311.248 30.3148C313.089 28.277 316.316 25.7585 318.421 24.7169C320.525 23.6744 322.323 22.8219 322.416 22.8219C322.508 22.8209 323.63 23.219 324.908 23.7044ZM304.404 27.4454C303.833 29.1514 303.054 30.8946 302.672 31.32C302.29 31.7454 300.681 31.809 299.098 31.4609C296.271 30.841 296.249 30.7947 297.872 28.9669C298.781 27.9426 300.733 26.3611 302.21 25.4513C303.686 24.5415 305.018 23.9198 305.168 24.0707C305.318 24.2206 304.975 25.7394 304.404 27.4454ZM300.106 32.6552C301.316 33.1569 300.589 34.3648 296.243 39.0783C293.299 42.2703 290.891 44.4826 290.891 43.9936C290.891 43.5055 291.47 41.1806 292.178 38.8284C292.886 36.4771 293.958 33.9576 294.562 33.2314C295.164 32.5043 296.323 31.939 297.137 31.9735C297.951 32.0089 299.287 32.3152 300.106 32.6552ZM333.436 33.7513C335.091 34.7602 337.033 36.9942 337.753 38.7175C338.473 40.4398 339.059 43.3965 339.057 45.287C339.054 47.1775 338.617 50.2931 338.084 52.21L337.116 55.6956L331.877 50.6985C328.995 47.9491 323.685 43.7909 320.076 41.456C314.381 37.7722 313.672 37.0242 314.7 35.7854C315.352 35.0001 317.111 33.8231 318.612 33.1696C320.112 32.5161 323.384 31.9662 325.883 31.949C328.888 31.9271 331.447 32.5379 333.436 33.7513ZM305.168 34.453C305.984 34.9719 305.693 36.3462 304.031 39.8182C302.803 42.3858 301.139 47.0548 300.336 50.1941C299.422 53.7624 299.083 57.4289 299.432 59.9747L299.99 64.0474L297.72 61.9152C296.472 60.7427 294.63 58.0869 293.626 56.0119C292.621 53.9378 291.8 50.7485 291.8 48.9253C291.8 46.1195 292.655 44.6962 297.357 39.6691C300.414 36.4007 303.174 33.734 303.493 33.7413C303.81 33.7495 304.564 34.0694 305.168 34.453ZM311.169 40.0336C310.764 41.3142 310.466 45.2252 310.509 48.7244C310.564 53.1898 311.188 56.4409 312.603 59.6311C313.712 62.1306 315.696 65.2999 317.013 66.675L319.406 69.1745H314.663C312.053 69.1745 308.441 68.5564 306.633 67.8012C304.826 67.0468 302.818 65.7171 302.172 64.8472C301.526 63.9783 300.754 61.8352 300.458 60.0856C300.161 58.3359 300.35 54.6567 300.877 51.9092C301.404 49.1625 303.033 44.3553 304.496 41.2278C307.095 35.6736 307.213 35.5673 309.532 36.6234C311.55 37.5432 311.795 38.0549 311.169 40.0336ZM319.975 42.8557C322.725 44.7025 326.765 47.7101 328.953 49.5397C331.142 51.3684 333.718 53.8642 334.678 55.0848L336.424 57.3034L332.708 61.3344C330.664 63.5521 327.542 66.0543 325.77 66.895C323.998 67.7357 321.619 68.1911 320.483 67.9057C319.348 67.6212 317.333 65.7461 316.005 63.7402C314.678 61.7334 312.983 57.7552 312.239 54.8994C311.495 52.0428 310.889 48.6671 310.892 47.3974C310.895 46.1277 311.325 43.5446 311.85 41.6568C312.476 39.401 313.175 38.443 313.889 38.862C314.487 39.211 317.226 41.0088 319.975 42.8557Z" fill="white"/>
<path opacity="0.3" fill-rule="evenodd" clip-rule="evenodd" d="M338.404 134.905C336.124 135.544 333.002 136.961 331.466 138.055C329.93 139.148 327.398 141.496 325.84 143.272C324.28 145.048 322.337 148.019 321.52 149.875C320.662 151.823 320.02 155.747 320.001 159.157C319.975 163.399 320.559 166.421 322.069 169.871C323.319 172.731 325.796 176.108 328.184 178.21C330.392 180.154 334.089 182.388 336.4 183.175C338.71 183.962 342.88 184.603 345.665 184.597C349.052 184.592 352.242 183.885 355.293 182.463C357.803 181.294 361.193 179.002 362.827 177.369C364.46 175.735 366.653 172.72 367.7 170.668C368.747 168.615 369.805 164.424 370.052 161.354C370.359 157.529 370.024 154.341 368.991 151.23C368.162 148.732 366.054 145.02 364.309 142.981C362.563 140.941 358.999 138.241 356.387 136.98C353.775 135.72 349.593 134.476 347.094 134.216C344.595 133.956 340.684 134.266 338.404 134.905ZM355.147 137.905C358.471 139.505 358.542 139.626 356.51 140.196C354.751 140.69 354.959 140.815 357.665 140.889C360.316 140.961 361.445 141.607 363.393 144.161C364.727 145.911 366.465 148.876 367.255 150.75C368.045 152.625 368.726 156.237 368.767 158.777C368.81 161.319 368.282 165.102 367.594 167.185C366.907 169.269 366.072 170.973 365.739 170.973C365.406 170.973 364.143 169.914 362.931 168.62C361.719 167.326 357.822 164.321 354.27 161.942C350.719 159.565 345.912 157.057 343.59 156.372C341.268 155.686 339.368 154.651 339.368 154.071C339.368 153.492 338.749 152.504 337.994 151.877C336.902 150.97 336.845 150.464 337.722 149.408C338.329 148.677 340.89 146.895 343.414 145.447C345.938 143.999 347.533 142.811 346.959 142.805C346.384 142.801 343.561 144.379 340.685 146.312C337.571 148.406 334.778 149.649 333.778 149.387C332.407 149.029 332.097 148.051 332.097 144.087C332.097 140.014 332.421 139.053 334.09 138.159C335.185 137.573 337.127 136.751 338.407 136.333C339.686 135.915 343.186 135.718 346.185 135.894C349.184 136.071 353.217 136.976 355.147 137.905ZM329.422 151.377C328.394 152.472 327.553 153.811 327.553 154.355C327.553 154.897 326.066 156.22 324.249 157.291L320.945 159.241L321.548 155.468C321.88 153.393 322.761 150.516 323.505 149.077C324.251 147.636 326.181 144.948 327.797 143.104L330.734 139.75L331.013 144.569C331.236 148.429 330.919 149.783 329.422 151.377ZM351.923 141.6C352.578 141.863 353.363 141.83 353.664 141.528C353.966 141.227 353.43 141.012 352.472 141.051C351.413 141.095 351.198 141.31 351.923 141.6ZM348.76 142.495C349.094 142.827 349.639 142.827 349.972 142.495C350.305 142.161 350.032 141.888 349.366 141.888C348.7 141.888 348.427 142.161 348.76 142.495ZM336.491 151.519C338.037 152.602 338.491 153.689 338.283 155.808C338.092 157.759 337.256 159.065 335.61 159.984C333.466 161.181 332.967 161.159 330.838 159.764C329.173 158.673 328.462 157.411 328.462 155.553C328.462 153.84 329.179 152.396 330.482 151.484C331.593 150.706 332.933 150.068 333.461 150.068C333.988 150.068 335.351 150.721 336.491 151.519ZM327.519 164.536C326.626 166.827 325.605 169.519 325.251 170.519C324.683 172.121 324.448 171.961 323.26 169.161C322.519 167.414 321.73 164.755 321.507 163.253C321.167 160.967 321.586 160.188 324.073 158.486L327.045 156.451L328.094 158.411C328.929 159.971 328.812 161.221 327.519 164.536ZM348.144 159.295C351.343 160.87 356.506 164.511 359.616 167.386L365.272 172.614L362.545 175.492C361.045 177.076 358.591 179.114 357.092 180.022C355.592 180.93 353.473 181.942 352.382 182.272C350.72 182.775 349.675 181.916 345.924 176.96C343.462 173.709 340.297 168.849 338.889 166.161C336.335 161.281 336.334 161.271 338.077 158.881C339.038 157.565 340.386 156.475 341.074 156.459C341.763 156.443 344.944 157.719 348.144 159.295ZM337.239 164.938C338.111 166.867 340.973 171.57 343.597 175.389C346.634 179.807 348.053 182.648 347.499 183.201C346.946 183.755 344.777 183.682 341.533 183.002C338.731 182.414 334.64 180.879 332.443 179.592C330.246 178.304 327.8 176.261 327.007 175.051C325.673 173.016 325.711 172.415 327.52 166.982C329.434 161.229 329.535 161.115 332.563 161.271C335.207 161.407 335.881 161.936 337.239 164.938Z" fill="white"/>
</g>
<defs>
<filter id="filter0_d_10_63" x="-14.4672" y="-10.8504" width="379.403" height="218.817" filterUnits="userSpaceOnUse" color-interpolation-filters="sRGB">
<feFlood flood-opacity="0" result="BackgroundImageFix"/>
<feColorMatrix in="SourceAlpha" type="matrix" values="0 0 0 0 0 0 0 0 0 0 0 0 0 0 0 0 0 0 127 0" result="hardAlpha"/>
<feOffset dy="3.61681"/>
<feGaussianBlur stdDeviation="7.23362"/>
<feComposite in2="hardAlpha" operator="out"/>
<feColorMatrix type="matrix" values="0 0 0 0 0 0 0 0 0 0 0 0 0 0 0 0 0 0 0.1 0"/>
<feBlend mode="normal" in2="BackgroundImageFix" result="effect1_dropShadow_10_63"/>
<feBlend mode="normal" in="SourceGraphic" in2="effect1_dropShadow_10_63" result="shape"/>
</filter>
<linearGradient id="paint0_linear_10_63" x1="175.234" y1="0" x2="175.234" y2="189.882" gradientUnits="userSpaceOnUse">
<stop stop-color="#543884"/>
<stop offset="1" stop-color="#8255CD"/>
</linearGradient>
<clipPath id="clip0_10_63">
<rect width="350.469" height="189.882" rx="21.7009" fill="white"/>
</clipPath>
</defs>
</svg>
