<svg width="17" height="18" viewBox="0 0 17 18" fill="none" xmlns="http://www.w3.org/2000/svg">
<path d="M15.4472 5.55967L10.3376 1.08025C9.86925 0.661303 9.26287 0.429688 8.63445 0.429688C8.00602 0.429688 7.39965 0.661303 6.93125 1.08025L1.82165 5.55967C1.55116 5.80158 1.3353 6.09835 1.18846 6.43021C1.04162 6.76207 0.967167 7.1214 0.970051 7.48428V14.9273C0.970051 15.6048 1.23922 16.2547 1.71833 16.7338C2.19745 17.2129 2.84728 17.4821 3.52485 17.4821H13.744C14.4216 17.4821 15.0714 17.2129 15.5506 16.7338C16.0297 16.2547 16.2988 15.6048 16.2988 14.9273V7.47576C16.3005 7.11431 16.2255 6.75662 16.0787 6.42632C15.9319 6.09602 15.7167 5.80063 15.4472 5.55967ZM10.3376 15.7789H6.93125V11.5209C6.93125 11.295 7.02097 11.0784 7.18068 10.9187C7.34038 10.759 7.55699 10.6693 7.78285 10.6693H9.48605C9.71191 10.6693 9.92851 10.759 10.0882 10.9187C10.2479 11.0784 10.3376 11.295 10.3376 11.5209V15.7789ZM14.5956 14.9273C14.5956 15.1531 14.5059 15.3697 14.3462 15.5294C14.1865 15.6891 13.9699 15.7789 13.744 15.7789H12.0408V11.5209C12.0408 10.8433 11.7717 10.1935 11.2926 9.71435C10.8134 9.23523 10.1636 8.96606 9.48605 8.96606H7.78285C7.10527 8.96606 6.45545 9.23523 5.97633 9.71435C5.49721 10.1935 5.22805 10.8433 5.22805 11.5209V15.7789H3.52485C3.29899 15.7789 3.08238 15.6891 2.92268 15.5294C2.76297 15.3697 2.67325 15.1531 2.67325 14.9273V7.47576C2.6734 7.35485 2.6993 7.23535 2.74923 7.12523C2.79915 7.0151 2.87196 6.91687 2.96279 6.83706L8.07239 2.36617C8.2278 2.22964 8.42759 2.15434 8.63445 2.15434C8.84131 2.15434 9.0411 2.22964 9.1965 2.36617L14.3061 6.83706C14.3969 6.91687 14.4697 7.0151 14.5197 7.12523C14.5696 7.23535 14.5955 7.35485 14.5956 7.47576V14.9273Z" fill="#747B84"/>
</svg>
