<svg width="26" height="26" viewBox="0 0 26 26" fill="none" xmlns="http://www.w3.org/2000/svg">
<path d="M3.66667 25H22.3333C23.8061 25 25 23.8061 25 22.3333V3.66667C25 2.19391 23.8061 1 22.3333 1H3.66667C2.19391 1 1 2.19391 1 3.66667V22.3333C1 23.8061 2.19391 25 3.66667 25ZM3.66667 25L18.3333 10.3333L25 17M10.3333 8.33333C10.3333 9.4379 9.4379 10.3333 8.33333 10.3333C7.22876 10.3333 6.33333 9.4379 6.33333 8.33333C6.33333 7.22876 7.22876 6.33333 8.33333 6.33333C9.4379 6.33333 10.3333 7.22876 10.3333 8.33333Z" stroke="#616B69" stroke-width="2" stroke-linecap="round" stroke-linejoin="round"/>
</svg>
