<svg width="22" height="21" viewBox="0 0 22 21" fill="none" xmlns="http://www.w3.org/2000/svg">
<path d="M13.4544 17.8812H8.35381V10.7403C8.35381 10.605 8.40755 10.4753 8.5032 10.3796C8.59886 10.284 8.72859 10.2302 8.86387 10.2302H12.9444C13.0797 10.2302 13.2094 10.284 13.305 10.3796C13.4007 10.4753 13.4544 10.605 13.4544 10.7403V17.8812V17.8812ZM18.045 17.8812H13.4544V15.4159C13.4544 15.2806 13.5082 15.1508 13.6038 15.0552C13.6995 14.9595 13.8292 14.9058 13.9645 14.9058H18.045C18.1803 14.9058 18.31 14.9595 18.4057 15.0552C18.5013 15.1508 18.5551 15.2806 18.5551 15.4159V17.3711C18.5551 17.5064 18.5013 17.6361 18.4057 17.7318C18.31 17.8274 18.1803 17.8812 18.045 17.8812V17.8812ZM8.35381 17.8812V13.7156C8.35381 13.5804 8.30007 13.4506 8.20441 13.355C8.10876 13.2593 7.97902 13.2056 7.84374 13.2056H3.76324C3.62796 13.2056 3.49822 13.2593 3.40257 13.355C3.30691 13.4506 3.25317 13.5804 3.25317 13.7156V17.3711C3.25317 17.5064 3.30691 17.6361 3.40257 17.7318C3.49822 17.8274 3.62796 17.8812 3.76324 17.8812H8.35381V17.8812ZM9.8891 4.37554L10.6618 2.73738C10.6827 2.69055 10.7167 2.65077 10.7597 2.62285C10.8027 2.59494 10.8529 2.58008 10.9041 2.58008C10.9554 2.58008 11.0056 2.59494 11.0486 2.62285C11.0916 2.65077 11.1255 2.69055 11.1464 2.73738L11.92 4.37554L13.6474 4.63992C13.8693 4.67392 13.9577 4.95956 13.797 5.12278L12.5474 6.39794L12.8424 8.19846C12.8798 8.42969 12.6485 8.60651 12.4496 8.49685L10.9041 7.64674L9.35863 8.49685C9.16056 8.60566 8.92848 8.42969 8.96588 8.19846L9.26087 6.39794L8.01122 5.12278C7.8497 4.95956 7.93896 4.67392 8.15998 4.63992L9.8891 4.37639V4.37554Z" stroke="#747B84" stroke-width="1.16898" stroke-linecap="round" stroke-linejoin="round"/>
</svg>
