<svg width="18" height="20" viewBox="0 0 18 20" fill="none" xmlns="http://www.w3.org/2000/svg">
<path d="M17 8.36364C17 14.0909 9 19 9 19C9 19 1 14.0909 1 8.36364C1 6.41068 1.84285 4.53771 3.34315 3.15676C4.84344 1.77581 6.87827 1 9 1C11.1217 1 13.1566 1.77581 14.6569 3.15676C16.1571 4.53771 17 6.41068 17 8.36364Z" stroke="#49504F" stroke-width="1.5" stroke-linecap="round" stroke-linejoin="round"/>
<path d="M9 10.8182C10.4728 10.8182 11.6667 9.71924 11.6667 8.36364C11.6667 7.00803 10.4728 5.90909 9 5.90909C7.52724 5.90909 6.33333 7.00803 6.33333 8.36364C6.33333 9.71924 7.52724 10.8182 9 10.8182Z" stroke="#49504F" stroke-width="1.5" stroke-linecap="round" stroke-linejoin="round"/>
</svg>
