<svg width="39" height="38" viewBox="0 0 39 38" fill="none" xmlns="http://www.w3.org/2000/svg">
<g filter="url(#filter0_d_302_603)">
<circle cx="19.488" cy="18.6057" r="15.6995" fill="white"/>
</g>
<path fill-rule="evenodd" clip-rule="evenodd" d="M17.1896 11.5352C16.3177 11.8363 15.1724 12.5353 14.5109 13.1696C13.8754 13.7794 13.0503 14.9215 12.6775 15.7077C12.1807 16.7557 12 17.6328 12 18.9953C12 20.3453 12.1827 21.2446 12.6684 22.283C13.0363 23.0691 13.9231 24.2504 14.6398 24.9082C15.4703 25.6707 16.4889 26.2664 17.4509 26.552C18.2805 26.7985 19.4455 27 20.0401 27C20.6348 27 21.824 26.737 22.6831 26.4157C23.5799 26.08 24.7277 25.3485 25.3781 24.6981C26.0013 24.0751 26.7503 23.084 27.0428 22.4954C27.4359 21.7049 27.5748 20.7907 27.5748 18.9953C27.5748 17.2 27.4359 16.2857 27.0428 15.4953C26.7503 14.9066 26.0013 13.9155 25.3781 13.2926C24.7277 12.6422 23.5799 11.9106 22.6831 11.575C21.824 11.2537 20.579 10.9949 19.9166 11.0001C19.2545 11.0052 18.0272 11.2459 17.1896 11.5352ZM20.8435 12.1236C20.286 12.4186 19.2588 13.2491 18.5607 13.9692C17.8626 14.6897 17.1364 15.2789 16.9469 15.2789C16.7574 15.2789 16.5312 15.1639 16.4443 15.0233C16.3574 14.8829 16.4818 14.2077 16.7208 13.5224C16.9598 12.8374 17.3694 12.1164 17.631 11.9198C17.904 11.7148 18.9069 11.5678 19.9821 11.575L21.8572 11.5876L20.8435 12.1236ZM22.9798 12.1262C23.3821 12.2791 24.2909 12.9386 24.9996 13.5922C25.7086 14.2454 26.2884 14.8955 26.2884 15.0367C26.2884 15.1779 25.9087 15.0973 25.445 14.8575C24.981 14.6176 24.0122 14.4212 23.2917 14.4212C22.5713 14.4212 21.5679 14.5942 21.0619 14.8057C20.5559 15.0173 19.9652 15.4032 19.7497 15.6634C19.5338 15.9235 19.2045 16.1365 19.0181 16.1365C18.8314 16.1365 18.4429 15.9641 18.1547 15.7534C17.6607 15.3921 17.691 15.3037 18.6833 14.2054C19.2622 13.5644 20.2774 12.7723 20.9395 12.4446C21.6013 12.1167 22.1668 11.8486 22.196 11.8486C22.2251 11.8483 22.5779 11.9735 22.9798 12.1262ZM16.5306 13.3029C16.3511 13.8394 16.1061 14.3878 15.9858 14.5216C15.8657 14.6554 15.3597 14.6754 14.8617 14.5659C13.9726 14.3709 13.9654 14.3563 14.476 13.7814C14.7619 13.4592 15.376 12.9618 15.8405 12.6756C16.3048 12.3895 16.7236 12.1939 16.7708 12.2414C16.8182 12.2885 16.7102 12.7663 16.5306 13.3029ZM15.1787 14.9415C15.5592 15.0993 15.3305 15.4793 13.9637 16.9618C13.0378 17.9659 12.2802 18.6617 12.2802 18.5079C12.2802 18.3544 12.4623 17.6231 12.685 16.8832C12.9077 16.1437 13.245 15.3512 13.4348 15.1228C13.6244 14.8941 13.9889 14.7162 14.2447 14.7271C14.5009 14.7383 14.9211 14.8346 15.1787 14.9415ZM25.6623 15.2863C26.1829 15.6036 26.7938 16.3063 27.0202 16.8484C27.2466 17.3901 27.431 18.3201 27.4302 18.9147C27.4293 19.5093 27.2918 20.4893 27.1243 21.0923L26.8198 22.1886L25.172 20.6168C24.2655 19.752 22.5953 18.4441 21.4601 17.7097C19.6688 16.551 19.4458 16.3158 19.7691 15.9261C19.9741 15.6791 20.5276 15.3089 20.9995 15.1033C21.4713 14.8978 22.5004 14.7248 23.2866 14.7194C24.2317 14.7125 25.0368 14.9046 25.6623 15.2863ZM16.7708 15.507C17.0275 15.6702 16.936 16.1025 16.4134 17.1946C16.0269 18.0022 15.5038 19.4707 15.251 20.4582C14.9634 21.5805 14.8568 22.7338 14.9666 23.5345L15.1421 24.8156L14.4283 24.1449C14.0358 23.7761 13.4563 22.9408 13.1404 22.2881C12.8245 21.6357 12.566 20.6326 12.566 20.0591C12.566 19.1766 12.8351 18.7289 14.3142 17.1477C15.2756 16.1196 16.1439 15.2809 16.2439 15.2832C16.3437 15.2857 16.581 15.3864 16.7708 15.507ZM18.6585 17.2623C18.531 17.6651 18.4375 18.8953 18.4509 19.9959C18.4681 21.4004 18.6645 22.423 19.1096 23.4265C19.4584 24.2127 20.0824 25.2095 20.4967 25.6421L21.2494 26.4282H19.7574C18.9366 26.4282 17.8002 26.2338 17.2316 25.9963C16.6633 25.759 16.0318 25.3407 15.8285 25.0672C15.6253 24.7939 15.3826 24.1197 15.2894 23.5694C15.1962 23.0191 15.2553 21.8619 15.4211 20.9976C15.587 20.1337 16.0993 18.6217 16.5595 17.638C17.3771 15.8909 17.414 15.8575 18.1436 16.1897C18.7783 16.479 18.8554 16.6399 18.6585 17.2623ZM21.4284 18.15C22.2932 18.7309 23.5639 19.6769 24.2523 20.2523C24.9407 20.8275 25.7509 21.6126 26.0531 21.9965L26.602 22.6943L25.4333 23.9622C24.7903 24.6598 23.8083 25.4468 23.2511 25.7112C22.6937 25.9757 21.9455 26.1189 21.5882 26.0291C21.2311 25.9397 20.5973 25.3499 20.1796 24.719C19.7623 24.0877 19.2291 22.8364 18.9949 21.9382C18.7611 21.0397 18.5704 19.9779 18.5713 19.5785C18.5721 19.1791 18.7076 18.3667 18.8726 17.7729C19.0696 17.0633 19.2894 16.762 19.5141 16.8938C19.7022 17.0036 20.5636 17.5691 21.4284 18.15Z" fill="#FE7A01"/>
<defs>
<filter id="filter0_d_302_603" x="0.7982" y="0.289673" width="37.3797" height="37.3797" filterUnits="userSpaceOnUse" color-interpolation-filters="sRGB">
<feFlood flood-opacity="0" result="BackgroundImageFix"/>
<feColorMatrix in="SourceAlpha" type="matrix" values="0 0 0 0 0 0 0 0 0 0 0 0 0 0 0 0 0 0 127 0" result="hardAlpha"/>
<feOffset dy="0.373797"/>
<feGaussianBlur stdDeviation="1.49519"/>
<feColorMatrix type="matrix" values="0 0 0 0 0.2 0 0 0 0 0.2 0 0 0 0 0.2 0 0 0 0.2 0"/>
<feBlend mode="normal" in2="BackgroundImageFix" result="effect1_dropShadow_302_603"/>
<feBlend mode="normal" in="SourceGraphic" in2="effect1_dropShadow_302_603" result="shape"/>
</filter>
</defs>
</svg>
