<svg width="162" height="162" viewBox="0 0 162 162" fill="none" xmlns="http://www.w3.org/2000/svg">
<path d="M86.9671 17.0882C84.6316 12.6737 77.3686 12.6737 75.0331 17.0882L14.2831 131.838C13.7362 132.867 13.4651 134.019 13.4962 135.184C13.5272 136.348 13.8594 137.485 14.4603 138.483C15.0612 139.48 15.9104 140.306 16.925 140.878C17.9397 141.45 19.0852 141.749 20.2501 141.747H141.75C142.914 141.75 144.059 141.45 145.073 140.879C146.087 140.307 146.935 139.482 147.536 138.485C148.136 137.487 148.468 136.352 148.498 135.188C148.529 134.024 148.257 132.872 147.71 131.845L86.9671 17.0882ZM87.7501 121.497H74.2501V107.997H87.7501V121.497ZM74.2501 94.4972V60.7472H87.7501L87.7568 94.4972H74.2501Z" fill="#DC1D10"/>
</svg>
