<svg width="21" height="21" viewBox="0 0 21 21" fill="none" xmlns="http://www.w3.org/2000/svg">
<path d="M0 2.78182C0 2.04403 0.26866 1.33647 0.746877 0.814775C1.22509 0.293083 1.8737 0 2.55 0L5.95 0C6.6263 0 7.2749 0.293083 7.75312 0.814775C8.23133 1.33647 8.49999 2.04403 8.49999 2.78182V6.49091C8.49999 7.22869 8.23133 7.93626 7.75312 8.45795C7.2749 8.97964 6.6263 9.27273 5.95 9.27273H2.55C1.8737 9.27273 1.22509 8.97964 0.746877 8.45795C0.26866 7.93626 0 7.22869 0 6.49091L0 2.78182ZM2.55 1.85454C2.32456 1.85454 2.10836 1.95224 1.94896 2.12614C1.78955 2.30003 1.7 2.53589 1.7 2.78182V6.49091C1.7 6.73684 1.78955 6.97269 1.94896 7.14659C2.10836 7.32049 2.32456 7.41818 2.55 7.41818H5.95C6.17543 7.41818 6.39163 7.32049 6.55104 7.14659C6.71044 6.97269 6.79999 6.73684 6.79999 6.49091V2.78182C6.79999 2.53589 6.71044 2.30003 6.55104 2.12614C6.39163 1.95224 6.17543 1.85454 5.95 1.85454H2.55Z" fill="#747B84"/>
<path d="M0 13.9088C0 13.171 0.26866 12.4634 0.746877 11.9417C1.22509 11.42 1.8737 11.127 2.55 11.127H5.95C6.6263 11.127 7.2749 11.42 7.75312 11.9417C8.23133 12.4634 8.49999 13.171 8.49999 13.9088V17.6179C8.49999 18.3556 8.23133 19.0632 7.75312 19.5849C7.2749 20.1066 6.6263 20.3997 5.95 20.3997H2.55C1.8737 20.3997 1.22509 20.1066 0.746877 19.5849C0.26866 19.0632 0 18.3556 0 17.6179L0 13.9088ZM2.55 12.9815C2.32456 12.9815 2.10836 13.0792 1.94896 13.2531C1.78955 13.427 1.7 13.6628 1.7 13.9088V17.6179C1.7 17.8638 1.78955 18.0996 1.94896 18.2735C2.10836 18.4474 2.32456 18.5451 2.55 18.5451H5.95C6.17543 18.5451 6.39163 18.4474 6.55104 18.2735C6.71044 18.0996 6.79999 17.8638 6.79999 17.6179V13.9088C6.79999 13.6628 6.71044 13.427 6.55104 13.2531C6.39163 13.0792 6.17543 12.9815 5.95 12.9815H2.55Z" fill="#747B84"/>
<path d="M11.9 2.78182C11.9 2.04403 12.1687 1.33647 12.6469 0.814775C13.1251 0.293083 13.7737 0 14.45 0L17.85 0C18.5263 0 19.1749 0.293083 19.6531 0.814775C20.1314 1.33647 20.4 2.04403 20.4 2.78182V6.49091C20.4 7.22869 20.1314 7.93626 19.6531 8.45795C19.1749 8.97964 18.5263 9.27273 17.85 9.27273H14.45C13.7737 9.27273 13.1251 8.97964 12.6469 8.45795C12.1687 7.93626 11.9 7.22869 11.9 6.49091V2.78182ZM14.45 1.85454C14.2246 1.85454 14.0084 1.95224 13.849 2.12614C13.6896 2.30003 13.6 2.53589 13.6 2.78182V6.49091C13.6 6.73684 13.6896 6.97269 13.849 7.14659C14.0084 7.32049 14.2246 7.41818 14.45 7.41818H17.85C18.0755 7.41818 18.2917 7.32049 18.4511 7.14659C18.6105 6.97269 18.7 6.73684 18.7 6.49091V2.78182C18.7 2.53589 18.6105 2.30003 18.4511 2.12614C18.2917 1.95224 18.0755 1.85454 17.85 1.85454H14.45Z" fill="#747B84"/>
<path d="M11.9 13.9088C11.9 13.171 12.1687 12.4634 12.6469 11.9417C13.1251 11.42 13.7737 11.127 14.45 11.127H17.85C18.5263 11.127 19.1749 11.42 19.6531 11.9417C20.1314 12.4634 20.4 13.171 20.4 13.9088V17.6179C20.4 18.3556 20.1314 19.0632 19.6531 19.5849C19.1749 20.1066 18.5263 20.3997 17.85 20.3997H14.45C13.7737 20.3997 13.1251 20.1066 12.6469 19.5849C12.1687 19.0632 11.9 18.3556 11.9 17.6179V13.9088ZM14.45 12.9815C14.2246 12.9815 14.0084 13.0792 13.849 13.2531C13.6896 13.427 13.6 13.6628 13.6 13.9088V17.6179C13.6 17.8638 13.6896 18.0996 13.849 18.2735C14.0084 18.4474 14.2246 18.5451 14.45 18.5451H17.85C18.0755 18.5451 18.2917 18.4474 18.4511 18.2735C18.6105 18.0996 18.7 17.8638 18.7 17.6179V13.9088C18.7 13.6628 18.6105 13.427 18.4511 13.2531C18.2917 13.0792 18.0755 12.9815 17.85 12.9815H14.45Z" fill="#747B84"/>
</svg>
