<svg width="40" height="41" viewBox="0 0 40 41" fill="none" xmlns="http://www.w3.org/2000/svg">
<circle opacity="0.05" cx="20" cy="20.4688" r="20" fill="#FE7A01"/>
<path d="M20 14.0399C18.5287 14.0374 17.1015 14.5419 15.9586 15.4685H17.1429C17.3323 15.4685 17.514 15.5437 17.648 15.6777C17.7819 15.8116 17.8572 15.9933 17.8572 16.1828C17.8572 16.3722 17.7819 16.5539 17.648 16.6878C17.514 16.8218 17.3323 16.8971 17.1429 16.8971H14.2857C14.1912 16.8971 14.0975 16.8783 14.0102 16.8418C13.923 16.8053 13.8438 16.7519 13.7774 16.6846C13.7109 16.6173 13.6585 16.5374 13.6231 16.4497C13.5878 16.3619 13.5702 16.2681 13.5715 16.1735V13.3256C13.5715 13.1362 13.6467 12.9545 13.7807 12.8205C13.9146 12.6866 14.0963 12.6113 14.2857 12.6113C14.4752 12.6113 14.6569 12.6866 14.7908 12.8205C14.9248 12.9545 15 13.1362 15 13.3256V14.4071C16.4063 13.2438 18.175 12.6086 20 12.6113C24.3393 12.6113 27.8572 16.1292 27.8572 20.4685C27.8572 24.8078 24.3393 28.3256 20 28.3256C15.6607 28.3256 12.1429 24.8078 12.1429 20.4685C12.1429 20.2042 12.1557 19.9421 12.1815 19.6835C12.1896 19.5892 12.2163 19.4975 12.2602 19.4137C12.304 19.3299 12.3641 19.2556 12.4369 19.1952C12.5097 19.1348 12.5937 19.0894 12.6842 19.0618C12.7746 19.0341 12.8697 19.0247 12.9638 19.034C13.058 19.0434 13.1493 19.0714 13.2325 19.1163C13.3157 19.1613 13.3892 19.2223 13.4487 19.2959C13.5081 19.3695 13.5524 19.4541 13.5788 19.5449C13.6053 19.6357 13.6135 19.7309 13.6029 19.8249C13.4729 21.1173 13.7373 22.4187 14.3615 23.5578C14.9857 24.6968 15.9403 25.6201 17.0995 26.206C18.2588 26.7918 19.5683 27.0128 20.8556 26.8397C22.1429 26.6667 23.3476 26.1078 24.311 25.2366C25.2744 24.3654 25.9513 23.2228 26.2525 21.9593C26.5537 20.6958 26.4651 19.3708 25.9984 18.1586C25.5317 16.9465 24.7088 15.9042 23.638 15.1689C22.5673 14.4337 21.2989 14.0401 20 14.0399ZM20.7143 16.1828C20.7143 15.9933 20.6391 15.8116 20.5051 15.6777C20.3711 15.5437 20.1895 15.4685 20 15.4685C19.8106 15.4685 19.6289 15.5437 19.495 15.6777C19.361 15.8116 19.2857 15.9933 19.2857 16.1828V20.4685C19.2857 20.6579 19.361 20.8396 19.495 20.9736C19.6289 21.1075 19.8106 21.1828 20 21.1828H21.7857C21.9752 21.1828 22.1569 21.1075 22.2908 20.9736C22.4248 20.8396 22.5 20.6579 22.5 20.4685C22.5 20.279 22.4248 20.0974 22.2908 19.9634C22.1569 19.8294 21.9752 19.7542 21.7857 19.7542H20.7143V16.1828Z" fill="url(#paint0_linear_2005_4535)"/>
<defs>
<linearGradient id="paint0_linear_2005_4535" x1="20" y1="12.6113" x2="20" y2="28.3256" gradientUnits="userSpaceOnUse">
<stop stop-color="#FE7A01"/>
<stop offset="1" stop-color="#FCC99B"/>
</linearGradient>
</defs>
</svg>
