<svg width="40" height="40" viewBox="0 0 40 40" fill="none" xmlns="http://www.w3.org/2000/svg">
<rect width="40" height="40" rx="8" fill="#9A77CF"/>
<path d="M27.7637 11C27.2957 11 26.8682 11.2656 26.6582 11.6836L26 13L19.6055 15.7402C19.2375 15.8982 19 16.2582 19 16.6582V23.3398C19 23.7398 19.2375 24.1028 19.6055 24.2598L26 27L26.6582 28.3164C26.8682 28.7344 27.2957 29 27.7637 29C28.4467 29 29 28.4467 29 27.7637V21.7285C29.3035 21.5533 29.5557 21.3014 29.7312 20.998C29.9067 20.6946 29.9994 20.3505 30 20C29.9997 19.6492 29.9072 19.3046 29.7317 19.0009C29.5561 18.6972 29.3038 18.4449 29 18.2695V12.2363C29 11.5533 28.4467 11 27.7637 11ZM13 16C11.9 16 11 16.9 11 18V22C11 23.1 11.9 24 13 24H15V28C15 28.552 15.448 29 16 29C16.552 29 17 28.552 17 28V22V17C17 16.448 16.552 16 16 16H13Z" fill="white"/>
</svg>
