<svg width="40" height="40" viewBox="0 0 40 40" fill="none" xmlns="http://www.w3.org/2000/svg">
<rect width="40" height="40" rx="8" fill="url(#paint0_linear_214_660)"/>
<path d="M20 10.0009C25.523 10.0009 30 14.4779 30 20.0009C30 25.5239 25.523 30.0009 20 30.0009C14.477 30.0009 10 25.5239 10 20.0009C10 14.4779 14.477 10.0009 20 10.0009ZM20.707 24.7079L24 21.4149C24.39 21.0239 24.39 20.3909 24 20.0009C23.61 19.6109 22.976 19.6109 22.586 20.0009L21 21.5869L21 16.0009C21 15.4489 20.552 15.0009 20 15.0009C19.448 15.0009 19 15.4489 19 16.0009L19 21.5869L17.414 20.0009C17.024 19.6109 16.39 19.6109 16 20.0009C15.61 20.3909 15.61 21.0249 16 21.4149L19.293 24.7079C19.683 25.0979 20.317 25.0979 20.707 24.7079Z" fill="white"/>
<defs>
<linearGradient id="paint0_linear_214_660" x1="204.184" y1="-208.164" x2="-440.275" y2="308.335" gradientUnits="userSpaceOnUse">
<stop stop-color="#FE7A01"/>
<stop offset="0.5244" stop-color="#FF7E20"/>
<stop offset="0.7622" stop-color="#C09E5D"/>
<stop offset="1" stop-color="#FFB951"/>
</linearGradient>
</defs>
</svg>
