<svg width="40" height="40" viewBox="0 0 40 40" fill="none" xmlns="http://www.w3.org/2000/svg">
<rect width="40" height="40" rx="8" fill="#262254"/>
<path d="M17.1523 10.0019C16.759 9.97704 16.3696 10.1798 16.1738 10.5488L14.8906 12.9687L12.1933 13.4414C11.6443 13.5374 11.2716 14.0515 11.3496 14.6035L11.7324 17.3144L9.82811 19.2812C9.44011 19.6822 9.44011 20.3177 9.82811 20.7187L11.7324 22.6875L11.3496 25.3984C11.2716 25.9504 11.6443 26.4635 12.1933 26.5605L14.8906 27.0332L16.1738 29.4511C16.4348 29.9431 17.04 30.1415 17.541 29.8965L20 28.6933L22.4609 29.8945C22.9619 30.1395 23.5642 29.9431 23.8262 29.4511L25.1094 27.0332L27.8066 26.5605C28.3556 26.4645 28.7303 25.9485 28.6523 25.3965L28.2695 22.6855L30.1738 20.7187C30.5588 20.3187 30.5589 19.6822 30.1719 19.2812L28.2676 17.3125L28.6504 14.6015C28.7284 14.0495 28.3537 13.5364 27.8047 13.4394L25.1074 12.9668L23.8242 10.5488C23.5642 10.0578 22.9609 9.86044 22.4609 10.1054L20 11.3066L17.539 10.1054C17.414 10.0442 17.2834 10.0102 17.1523 10.0019ZM17 15C18.105 15 19 15.895 19 17C19 18.105 18.105 19 17 19C15.895 19 15 18.105 15 17C15 15.895 15.895 15 17 15ZM22.4433 15.8574C22.6333 15.8301 22.8345 15.876 23 16C23.331 16.249 23.3984 16.7178 23.1504 17.0488L18.0508 23.8496C17.8018 24.1816 17.331 24.248 17 24C16.669 23.751 16.6016 23.2821 16.8496 22.9511L21.9492 16.1504C22.0737 15.9844 22.2533 15.8846 22.4433 15.8574ZM17 16C16.7348 16 16.4804 16.1053 16.2929 16.2929C16.1053 16.4804 16 16.7348 16 17C16 17.2652 16.1053 17.5195 16.2929 17.7071C16.4804 17.8946 16.7348 18 17 18C17.2652 18 17.5196 17.8946 17.7071 17.7071C17.8946 17.5195 18 17.2652 18 17C18 16.7348 17.8946 16.4804 17.7071 16.2929C17.5196 16.1053 17.2652 16 17 16ZM23 21C24.105 21 25 21.895 25 23C25 24.105 24.105 25 23 25C21.895 25 21 24.105 21 23C21 21.895 21.895 21 23 21ZM23 22C22.7348 22 22.4804 22.1053 22.2929 22.2929C22.1053 22.4804 22 22.7348 22 23C22 23.2652 22.1053 23.5195 22.2929 23.7071C22.4804 23.8946 22.7348 24 23 24C23.2652 24 23.5196 23.8946 23.7071 23.7071C23.8946 23.5195 24 23.2652 24 23C24 22.7348 23.8946 22.4804 23.7071 22.2929C23.5196 22.1053 23.2652 22 23 22Z" fill="white"/>
</svg>
