<svg width="40" height="40" viewBox="0 0 40 40" fill="none" xmlns="http://www.w3.org/2000/svg">
<rect width="40" height="40" rx="8" fill="url(#paint0_linear_345_1236)"/>
<path d="M19.9999 10.002C14.4769 10.002 9.99988 14.479 9.99988 20.002C9.99988 25.525 14.4769 30.002 19.9999 30.002C25.5229 30.002 29.9999 25.525 29.9999 20.002C29.9999 14.479 25.5229 10.002 19.9999 10.002ZM19.2929 24.709L15.9999 21.416C15.6099 21.025 15.6099 20.392 15.9999 20.002C16.3899 19.612 17.0239 19.612 17.4139 20.002L18.9999 21.588V16.002C18.9999 15.45 19.4479 15.002 19.9999 15.002C20.5519 15.002 20.9999 15.45 20.9999 16.002V21.588L22.5859 20.002C22.9759 19.612 23.6099 19.612 23.9999 20.002C24.3899 20.392 24.3899 21.026 23.9999 21.416L20.7069 24.709C20.3169 25.099 19.6829 25.099 19.2929 24.709Z" fill="white"/>
<defs>
<linearGradient id="paint0_linear_345_1236" x1="204.184" y1="-208.164" x2="-440.275" y2="308.335" gradientUnits="userSpaceOnUse">
<stop stop-color="#FE7A01"/>
<stop offset="0.5244" stop-color="#FF7E20"/>
<stop offset="0.7622" stop-color="#C09E5D"/>
<stop offset="1" stop-color="#FFB951"/>
</linearGradient>
</defs>
</svg>
