<svg width="40" height="40" viewBox="0 0 40 40" fill="none" xmlns="http://www.w3.org/2000/svg">
<circle opacity="0.05" cx="20" cy="20" r="20" fill="#FE7A01"/>
<g clip-path="url(#clip0_320_1224)">
<path d="M20.2012 29.4289C20.5582 29.4207 20.9008 29.2864 21.1684 29.05C21.436 28.8135 21.6113 28.49 21.6634 28.1367H18.6824C18.7359 28.4996 18.9195 28.8307 19.1988 29.0684C19.4782 29.3061 19.8344 29.4342 20.2012 29.4289Z" fill="#FE7A01"/>
<path d="M28.4246 25.7722C27.8781 25.285 27.3996 24.7265 27.0021 24.1117C26.5681 23.263 26.308 22.3362 26.237 21.3856V18.586C26.2347 18.2459 26.2044 17.9066 26.1463 17.5715C25.7002 17.4823 25.2715 17.3216 24.8768 17.0954C25.0273 17.5799 25.1037 18.0843 25.1035 18.5916V21.3913C25.173 22.5509 25.4919 23.6818 26.0386 24.7067C26.4299 25.3267 26.8942 25.8976 27.4215 26.4069H12.9073C13.4346 25.8976 13.8989 25.3267 14.2902 24.7067C14.8368 23.6818 15.1558 22.5509 15.2253 21.3913V18.586C15.2223 17.9301 15.3487 17.28 15.5973 16.6731C15.8459 16.0661 16.2118 15.5141 16.674 15.0488C17.1362 14.5834 17.6857 14.2138 18.2909 13.9611C18.8962 13.7083 19.5453 13.5775 20.2012 13.576C21.1612 13.5768 22.0995 13.8607 22.8989 14.3921C22.8108 14.0685 22.7613 13.7356 22.7516 13.4003V13.0433C22.1598 12.7522 21.5241 12.5607 20.87 12.4765V11.7625C20.87 11.5618 20.7903 11.3693 20.6484 11.2275C20.5065 11.0856 20.3141 11.0059 20.1134 11.0059C19.9127 11.0059 19.7203 11.0856 19.5784 11.2275C19.4365 11.3693 19.3568 11.5618 19.3568 11.7625V12.5049C17.8922 12.7115 16.5518 13.441 15.583 14.5587C14.6143 15.6764 14.0826 17.1069 14.0861 18.586V21.3856C14.0152 22.3362 13.755 23.263 13.321 24.1117C12.9305 24.7251 12.4597 25.2835 11.9212 25.7722C11.8608 25.8253 11.8123 25.8907 11.7791 25.964C11.7459 26.0373 11.7286 26.1168 11.7285 26.1972V26.968C11.7285 27.1183 11.7882 27.2625 11.8945 27.3688C12.0008 27.475 12.1449 27.5347 12.2953 27.5347H28.0505C28.2009 27.5347 28.345 27.475 28.4513 27.3688C28.5576 27.2625 28.6173 27.1183 28.6173 26.968V26.1972C28.6172 26.1168 28.5999 26.0373 28.5667 25.964C28.5335 25.8907 28.485 25.8253 28.4246 25.7722Z" fill="#FE7A01"/>
<path d="M27.002 16.2338C28.567 16.2338 29.8357 14.9651 29.8357 13.4001C29.8357 11.8351 28.567 10.5664 27.002 10.5664C25.437 10.5664 24.1683 11.8351 24.1683 13.4001C24.1683 14.9651 25.437 16.2338 27.002 16.2338Z" fill="#DC1D10"/>
</g>
<defs>
<clipPath id="clip0_320_1224">
<rect width="20.4025" height="20.4025" fill="white" transform="translate(10 10)"/>
</clipPath>
</defs>
</svg>
