<svg width="40" height="40" viewBox="0 0 40 40" fill="none" xmlns="http://www.w3.org/2000/svg">
<rect width="40" height="40" rx="8" fill="#262254"/>
<path d="M17.1523 10.0021C16.759 9.97716 16.3696 10.1799 16.1738 10.5489L14.8906 12.9688L12.1933 13.4415C11.6443 13.5375 11.2716 14.0516 11.3496 14.6036L11.7324 17.3146L9.82811 19.2813C9.44011 19.6823 9.44011 20.3178 9.82811 20.7188L11.7324 22.6876L11.3496 25.3985C11.2716 25.9505 11.6443 26.4636 12.1933 26.5606L14.8906 27.0333L16.1738 29.4513C16.4348 29.9433 17.04 30.1416 17.541 29.8966L20 28.6935L22.4609 29.8946C22.9619 30.1396 23.5642 29.9433 23.8262 29.4513L25.1094 27.0333L27.8066 26.5606C28.3556 26.4646 28.7303 25.9486 28.6523 25.3966L28.2695 22.6856L30.1738 20.7188C30.5588 20.3188 30.5589 19.6823 30.1719 19.2813L28.2676 17.3126L28.6504 14.6017C28.7284 14.0497 28.3537 13.5366 27.8047 13.4396L25.1074 12.9669L23.8242 10.5489C23.5642 10.0579 22.9609 9.86057 22.4609 10.1056L20 11.3067L17.539 10.1056C17.414 10.0443 17.2834 10.0103 17.1523 10.0021ZM17 15.0001C18.105 15.0001 19 15.8951 19 17.0001C19 18.1051 18.105 19.0001 17 19.0001C15.895 19.0001 15 18.1051 15 17.0001C15 15.8951 15.895 15.0001 17 15.0001ZM22.4433 15.8575C22.6333 15.8303 22.8345 15.8761 23 16.0001C23.331 16.2491 23.3984 16.7179 23.1504 17.0489L18.0508 23.8497C17.8018 24.1817 17.331 24.2481 17 24.0001C16.669 23.7511 16.6016 23.2823 16.8496 22.9513L21.9492 16.1505C22.0737 15.9845 22.2533 15.8848 22.4433 15.8575ZM17 16.0001C16.7348 16.0001 16.4804 16.1055 16.2929 16.293C16.1053 16.4805 16 16.7349 16 17.0001C16 17.2653 16.1053 17.5197 16.2929 17.7072C16.4804 17.8947 16.7348 18.0001 17 18.0001C17.2652 18.0001 17.5196 17.8947 17.7071 17.7072C17.8946 17.5197 18 17.2653 18 17.0001C18 16.7349 17.8946 16.4805 17.7071 16.293C17.5196 16.1055 17.2652 16.0001 17 16.0001ZM23 21.0001C24.105 21.0001 25 21.8951 25 23.0001C25 24.1051 24.105 25.0001 23 25.0001C21.895 25.0001 21 24.1051 21 23.0001C21 21.8951 21.895 21.0001 23 21.0001ZM23 22.0001C22.7348 22.0001 22.4804 22.1055 22.2929 22.293C22.1053 22.4805 22 22.7349 22 23.0001C22 23.2653 22.1053 23.5197 22.2929 23.7072C22.4804 23.8947 22.7348 24.0001 23 24.0001C23.2652 24.0001 23.5196 23.8947 23.7071 23.7072C23.8946 23.5197 24 23.2653 24 23.0001C24 22.7349 23.8946 22.4805 23.7071 22.293C23.5196 22.1055 23.2652 22.0001 23 22.0001Z" fill="white"/>
</svg>
