<svg width="20" height="20" viewBox="0 0 20 20" fill="none" xmlns="http://www.w3.org/2000/svg">
<path d="M8.33329 15.0003C9.81244 15 11.249 14.5049 12.4141 13.5937L16.0775 17.257L17.2558 16.0787L13.5925 12.4153C14.5041 11.25 14.9996 9.81319 15 8.33366C15 4.65783 12.0091 1.66699 8.33329 1.66699C4.65746 1.66699 1.66663 4.65783 1.66663 8.33366C1.66663 12.0095 4.65746 15.0003 8.33329 15.0003ZM8.33329 3.33366C11.0908 3.33366 13.3333 5.57616 13.3333 8.33366C13.3333 11.0912 11.0908 13.3337 8.33329 13.3337C5.57579 13.3337 3.33329 11.0912 3.33329 8.33366C3.33329 5.57616 5.57579 3.33366 8.33329 3.33366Z" fill="#414249"/>
<path d="M9.51006 7.15458C9.82589 7.47125 10.0001 7.88958 10.0001 8.33292H11.6667C11.6675 7.89494 11.5814 7.46116 11.4135 7.05665C11.2455 6.65215 10.9991 6.28494 10.6884 5.97625C9.42673 4.71625 7.23923 4.71625 5.97839 5.97625L7.15506 7.15625C7.78839 6.52458 8.88006 6.52625 9.51006 7.15458Z" fill="#414249"/>
</svg>
