<svg width="40" height="40" viewBox="0 0 40 40" fill="none" xmlns="http://www.w3.org/2000/svg">
<circle opacity="0.05" cx="20" cy="20" r="20" fill="#FE7A01"/>
<path d="M19.375 25V24.375H20.625C20.7908 24.375 20.9497 24.3092 21.0669 24.1919C21.1842 24.0747 21.25 23.9158 21.25 23.75V22.5H22.5C23.5499 22.4997 24.5731 22.1689 25.4245 21.5545C26.2759 20.9401 26.9123 20.0733 27.2435 19.0769C27.5746 18.0806 27.5837 17.0053 27.2694 16.0035C26.9552 15.0017 26.3335 14.1242 25.4926 13.4955C24.6517 12.8668 23.6343 12.5188 22.5845 12.5007C21.5347 12.4827 20.5059 12.7956 19.6439 13.3951C18.7819 13.9945 18.1305 14.8501 17.7821 15.8406C17.4336 16.831 17.4058 17.906 17.7025 18.9131L12.8662 23.75C12.6318 23.9844 12.5001 24.3023 12.5 24.6337V26.25C12.5 26.5815 12.6317 26.8995 12.8661 27.1339C13.1005 27.3683 13.4185 27.5 13.75 27.5H16.25C16.5815 27.5 16.8995 27.3683 17.1339 27.1339C17.3683 26.8995 17.5 26.5815 17.5 26.25V25.625H18.75C18.9158 25.625 19.0747 25.5592 19.1919 25.4419C19.3092 25.3247 19.375 25.1658 19.375 25ZM18.75 17.5C18.75 16.7583 18.9699 16.0333 19.382 15.4166C19.794 14.7999 20.3797 14.3193 21.0649 14.0355C21.7502 13.7516 22.5042 13.6774 23.2316 13.8221C23.959 13.9667 24.6272 14.3239 25.1517 14.8483C25.6761 15.3728 26.0333 16.041 26.1779 16.7684C26.3226 17.4958 26.2484 18.2498 25.9645 18.9351C25.6807 19.6203 25.2001 20.206 24.5834 20.618C23.9667 21.0301 23.2417 21.25 22.5 21.25H20.625C20.4592 21.25 20.3003 21.3158 20.1831 21.4331C20.0658 21.5503 20 21.7092 20 21.875V23.125H18.75C18.5842 23.125 18.4253 23.1908 18.3081 23.3081C18.1908 23.4253 18.125 23.5842 18.125 23.75V24.375H16.875C16.7092 24.375 16.5503 24.4408 16.4331 24.5581C16.3158 24.6753 16.25 24.8342 16.25 25V26.25H13.75V24.6337L18.8613 19.5225C18.9468 19.4368 19.0057 19.3281 19.0307 19.2096C19.0556 19.0911 19.0456 18.9679 19.0019 18.855C18.8346 18.4229 18.7492 17.9634 18.75 17.5V17.5Z" fill="#FE7A01"/>
</svg>
