<svg width="40" height="40" viewBox="0 0 40 40" fill="none" xmlns="http://www.w3.org/2000/svg">
<circle opacity="0.05" cx="20" cy="20" r="20" fill="#FE7A01"/>
<path d="M24.3751 22.5001C23.9072 22.5025 23.4459 22.6098 23.0251 22.8143C22.6043 23.0187 22.2348 23.3151 21.9438 23.6814L17.3751 20.8251C17.5416 20.2877 17.5416 19.7125 17.3751 19.1751L21.9438 16.3189C22.4075 16.8931 23.0595 17.2846 23.7843 17.4241C24.509 17.5637 25.2598 17.4421 25.9035 17.0811C26.5473 16.7201 27.0425 16.1429 27.3014 15.4518C27.5603 14.7606 27.5662 14.0001 27.3181 13.305C27.0701 12.6099 26.5839 12.025 25.9459 11.654C25.3079 11.283 24.5591 11.1498 23.8323 11.278C23.1054 11.4061 22.4474 11.7874 21.9748 12.3543C21.5021 12.9212 21.2454 13.6371 21.2501 14.3751C21.253 14.6546 21.2951 14.9323 21.3751 15.2001L16.8063 18.0564C16.403 17.5486 15.8516 17.1789 15.2288 16.9985C14.6059 16.8181 13.9423 16.8359 13.3301 17.0495C12.7178 17.2631 12.1871 17.6619 11.8116 18.1906C11.4361 18.7193 11.2344 19.3517 11.2344 20.0001C11.2344 20.6486 11.4361 21.281 11.8116 21.8097C12.1871 22.3384 12.7178 22.7372 13.3301 22.9507C13.9423 23.1643 14.6059 23.1822 15.2288 23.0018C15.8516 22.8213 16.403 22.4516 16.8063 21.9439L21.3751 24.8001C21.2951 25.0679 21.253 25.3456 21.2501 25.6251C21.2501 26.2432 21.4333 26.8474 21.7767 27.3613C22.1201 27.8752 22.6081 28.2757 23.1792 28.5123C23.7502 28.7488 24.3785 28.8107 24.9847 28.6901C25.5909 28.5695 26.1477 28.2719 26.5848 27.8348C27.0218 27.3978 27.3194 26.841 27.44 26.2348C27.5606 25.6286 27.4987 25.0003 27.2622 24.4292C27.0257 23.8582 26.6251 23.3702 26.1112 23.0268C25.5973 22.6834 24.9931 22.5001 24.3751 22.5001ZM24.3751 12.5001C24.7459 12.5001 25.1084 12.6101 25.4167 12.8161C25.7251 13.0221 25.9654 13.315 26.1073 13.6576C26.2492 14.0002 26.2864 14.3772 26.214 14.7409C26.1417 15.1046 25.9631 15.4387 25.7009 15.701C25.4387 15.9632 25.1046 16.1418 24.7408 16.2141C24.3771 16.2864 24.0001 16.2493 23.6575 16.1074C23.3149 15.9655 23.0221 15.7252 22.816 15.4168C22.61 15.1085 22.5001 14.746 22.5001 14.3751C22.5001 13.8778 22.6976 13.4009 23.0492 13.0493C23.4009 12.6977 23.8778 12.5001 24.3751 12.5001ZM14.3751 21.8751C14.0042 21.8751 13.6417 21.7652 13.3334 21.5591C13.025 21.3531 12.7847 21.0603 12.6428 20.7177C12.5009 20.375 12.4637 19.998 12.5361 19.6343C12.6084 19.2706 12.787 18.9365 13.0492 18.6743C13.3115 18.4121 13.6455 18.2335 14.0093 18.1612C14.373 18.0888 14.75 18.1259 15.0926 18.2679C15.4352 18.4098 15.728 18.6501 15.9341 18.9584C16.1401 19.2668 16.2501 19.6293 16.2501 20.0001C16.2501 20.4974 16.0525 20.9743 15.7009 21.326C15.3492 21.6776 14.8723 21.8751 14.3751 21.8751ZM24.3751 27.5001C24.0042 27.5001 23.6417 27.3902 23.3334 27.1841C23.025 26.9781 22.7847 26.6853 22.6428 26.3427C22.5009 26 22.4637 25.623 22.5361 25.2593C22.6084 24.8956 22.787 24.5615 23.0492 24.2993C23.3115 24.0371 23.6455 23.8585 24.0093 23.7862C24.373 23.7138 24.75 23.7509 25.0926 23.8929C25.4352 24.0348 25.728 24.2751 25.9341 24.5834C26.1401 24.8918 26.2501 25.2543 26.2501 25.6251C26.2501 26.1224 26.0525 26.5993 25.7009 26.951C25.3492 27.3026 24.8723 27.5001 24.3751 27.5001Z" fill="url(#paint0_linear_320_1228)"/>
<defs>
<linearGradient id="paint0_linear_320_1228" x1="19.3672" y1="11.2305" x2="19.3672" y2="28.7501" gradientUnits="userSpaceOnUse">
<stop stop-color="#FE7A01"/>
<stop offset="0.821621" stop-color="#FE7A01" stop-opacity="0.4"/>
</linearGradient>
</defs>
</svg>
