<svg width="20" height="22" viewBox="0 0 20 22" fill="none" xmlns="http://www.w3.org/2000/svg">
<path d="M16.25 14.0002C15.6886 14.003 15.135 14.1318 14.6301 14.3771C14.1251 14.6225 13.6817 14.9781 13.3325 15.4177L7.85002 11.9902C8.04983 11.3453 8.04983 10.655 7.85002 10.0102L13.3325 6.58265C13.889 7.27169 14.6714 7.74154 15.5411 7.90896C16.4108 8.07638 17.3117 7.93058 18.0842 7.49737C18.8567 7.06417 19.4509 6.37152 19.7616 5.54214C20.0723 4.71276 20.0794 3.80017 19.7817 2.96603C19.484 2.13189 18.9007 1.43005 18.135 0.984826C17.3694 0.539604 16.4709 0.379741 15.5987 0.533555C14.7265 0.68737 13.9368 1.14493 13.3697 1.82519C12.8025 2.50545 12.4944 3.3645 12.5 4.25015C12.5036 4.58554 12.554 4.91877 12.65 5.24015L7.16752 8.66765C6.6835 8.05834 6.02192 7.61469 5.27448 7.3982C4.52704 7.18171 3.73076 7.2031 2.99603 7.45941C2.26129 7.71572 1.62448 8.19426 1.17388 8.82868C0.72328 9.4631 0.481201 10.222 0.481201 11.0002C0.481201 11.7783 0.72328 12.5372 1.17388 13.1716C1.62448 13.8061 2.26129 14.2846 2.99603 14.5409C3.73076 14.7972 4.52704 14.8186 5.27448 14.6021C6.02192 14.3856 6.6835 13.942 7.16752 13.3327L12.65 16.7602C12.554 17.0815 12.5036 17.4148 12.5 17.7502C12.5 18.4918 12.7199 19.2169 13.132 19.8335C13.5441 20.4502 14.1297 20.9309 14.815 21.2147C15.5002 21.4985 16.2542 21.5728 16.9816 21.4281C17.709 21.2834 18.3772 20.9263 18.9017 20.4018C19.4261 19.8774 19.7833 19.2092 19.928 18.4817C20.0727 17.7543 19.9984 17.0003 19.7146 16.3151C19.4307 15.6299 18.9501 15.0442 18.3334 14.6321C17.7167 14.2201 16.9917 14.0002 16.25 14.0002ZM16.25 2.00015C16.695 2.00015 17.13 2.13211 17.5 2.37935C17.8701 2.62658 18.1584 2.97798 18.3287 3.38912C18.499 3.80025 18.5436 4.25265 18.4568 4.68911C18.37 5.12556 18.1557 5.52648 17.841 5.84114C17.5263 6.15581 17.1254 6.3701 16.689 6.45692C16.2525 6.54374 15.8001 6.49918 15.389 6.32888C14.9778 6.15859 14.6264 5.8702 14.3792 5.50019C14.132 5.13018 14 4.69516 14 4.25015C14 3.65342 14.2371 3.08112 14.659 2.65916C15.081 2.23721 15.6533 2.00015 16.25 2.00015ZM4.25002 13.2502C3.80501 13.2502 3.36999 13.1182 2.99998 12.871C2.62997 12.6237 2.34158 12.2723 2.17129 11.8612C2.00099 11.4501 1.95643 10.9977 2.04325 10.5612C2.13007 10.1247 2.34436 9.72383 2.65903 9.40916C2.97369 9.09449 3.37461 8.8802 3.81106 8.79339C4.24752 8.70657 4.69992 8.75113 5.11105 8.92142C5.52219 9.09172 5.87359 9.38011 6.12082 9.75012C6.36805 10.1201 6.50002 10.5551 6.50002 11.0002C6.50002 11.5969 6.26296 12.1692 5.84101 12.5911C5.41905 13.0131 4.84675 13.2502 4.25002 13.2502ZM16.25 20.0002C15.805 20.0002 15.37 19.8682 15 19.621C14.63 19.3737 14.3416 19.0223 14.1713 18.6112C14.001 18.2001 13.9564 17.7477 14.0432 17.3112C14.1301 16.8747 14.3444 16.4738 14.659 16.1592C14.9737 15.8445 15.3746 15.6302 15.8111 15.5434C16.2475 15.4566 16.6999 15.5011 17.1111 15.6714C17.5222 15.8417 17.8736 16.1301 18.1208 16.5001C18.3681 16.8701 18.5 17.3051 18.5 17.7502C18.5 18.3469 18.263 18.9192 17.841 19.3411C17.419 19.7631 16.8468 20.0002 16.25 20.0002Z" fill="#414249"/>
</svg>
