<svg width="83" height="83" viewBox="0 0 83 83" fill="none" xmlns="http://www.w3.org/2000/svg">
<path d="M41.5 82.7497C36.0814 82.7552 30.715 81.6919 25.7079 79.6208C20.7007 77.5497 16.1512 74.5115 12.3197 70.68C8.4882 66.8485 5.44996 62.299 3.37888 57.2918C1.30779 52.2847 0.244533 46.9183 0.24996 41.4997V40.6747C0.414994 32.5873 2.95305 24.7267 7.54868 18.0698C12.1443 11.413 18.5949 6.25338 26.0987 3.23235C33.6025 0.211314 41.8286 -0.537967 49.7548 1.07763C57.6809 2.69323 64.9575 6.60246 70.6802 12.3195C76.454 18.0885 80.3866 25.4407 81.9802 33.4456C83.5739 41.4505 82.7569 49.7483 79.6328 57.2887C76.5087 64.8291 71.2179 71.2733 64.4299 75.8056C57.6419 80.3378 49.662 82.7545 41.5 82.7497V82.7497ZM41.5 47.316L52.1837 57.9997L58 52.1835L47.3162 41.4997L58 30.816L52.1837 24.9997L41.5 35.6835L30.8162 24.9997L25 30.816L35.6837 41.4997L25 52.1835L30.8162 57.9997L41.5 47.3201V47.316Z" fill="#DC1D10"/>
</svg>
