<svg width="40" height="41" viewBox="0 0 40 41" fill="none" xmlns="http://www.w3.org/2000/svg">
<circle opacity="0.05" cx="20" cy="20.4688" r="20" fill="#FE7A01"/>
<g clip-path="url(#clip0_1042_4499)">
<path d="M16.6725 12.4563C15.482 12.7844 14.2996 13.1411 13.1263 13.5263C13.0191 13.561 12.9239 13.6251 12.8514 13.7112C12.7789 13.7974 12.7321 13.9022 12.7163 14.0138C12.0238 19.21 13.6238 23.0013 15.5325 25.4988C16.3407 26.5667 17.3043 27.5076 18.3913 28.29C18.8238 28.595 19.2063 28.815 19.5075 28.9562C19.6575 29.0275 19.78 29.075 19.8738 29.1038C19.9148 29.1181 19.957 29.1286 20 29.135C20.0425 29.1281 20.0843 29.1176 20.125 29.1038C20.22 29.075 20.3425 29.0275 20.4925 28.9562C20.7925 28.815 21.1763 28.5938 21.6088 28.29C22.6957 27.5076 23.6593 26.5667 24.4675 25.4988C26.3763 23.0025 27.9763 19.21 27.2838 14.0138C27.2681 13.9022 27.2213 13.7973 27.1488 13.7111C27.0763 13.6249 26.981 13.5608 26.8738 13.5263C26.06 13.26 24.6863 12.8262 23.3275 12.4575C21.94 12.0812 20.6638 11.8025 20 11.8025C19.3375 11.8025 18.06 12.0812 16.6725 12.4575V12.4563ZM16.34 11.1687C17.6963 10.8 19.1375 10.4688 20 10.4688C20.8625 10.4688 22.3038 10.8 23.66 11.1687C25.0475 11.5438 26.4463 11.9875 27.2688 12.2562C27.6126 12.3698 27.9175 12.5781 28.1484 12.8571C28.3792 13.1362 28.5266 13.4747 28.5738 13.8337C29.3188 19.43 27.59 23.5775 25.4925 26.3212C24.6031 27.495 23.5425 28.5286 22.3463 29.3875C21.9326 29.6847 21.4944 29.9461 21.0363 30.1688C20.6863 30.3337 20.31 30.4688 20 30.4688C19.69 30.4688 19.315 30.3337 18.9638 30.1688C18.5056 29.9461 18.0674 29.6847 17.6538 29.3875C16.4575 28.5285 15.397 27.4949 14.5075 26.3212C12.41 23.5775 10.6813 19.43 11.4263 13.8337C11.4734 13.4747 11.6208 13.1362 11.8517 12.8571C12.0825 12.5781 12.3874 12.3698 12.7313 12.2562C13.9252 11.8648 15.1285 11.5022 16.34 11.1687Z" fill="#FE7A01"/>
<path opacity="0.4" d="M21.875 18.5937C21.8752 18.9817 21.7551 19.3601 21.5312 19.6769C21.3073 19.9936 20.9907 20.2332 20.625 20.3625L21.1063 22.85C21.1238 22.9405 21.121 23.0337 21.0983 23.123C21.0756 23.2123 21.0333 23.2955 20.9747 23.3665C20.916 23.4376 20.8424 23.4948 20.759 23.5341C20.6757 23.5734 20.5847 23.5938 20.4925 23.5937H19.5075C19.4155 23.5936 19.3246 23.5731 19.2414 23.5337C19.1582 23.4944 19.0847 23.4371 19.0262 23.3661C18.9676 23.295 18.9255 23.2119 18.9029 23.1227C18.8802 23.0335 18.8775 22.9404 18.895 22.85L19.375 20.3625C19.051 20.2479 18.7646 20.0465 18.5473 19.7802C18.33 19.5139 18.1901 19.193 18.1428 18.8526C18.0955 18.5121 18.1428 18.1652 18.2793 17.8498C18.4159 17.5344 18.6365 17.2626 18.9171 17.0641C19.1977 16.8656 19.5274 16.748 19.8703 16.7242C20.2132 16.7004 20.556 16.7714 20.8613 16.9292C21.1666 17.0871 21.4226 17.3259 21.6014 17.6194C21.7802 17.913 21.8748 18.25 21.875 18.5937Z" fill="#FE7A01"/>
</g>
<defs>
<clipPath id="clip0_1042_4499">
<rect width="20" height="20" fill="white" transform="translate(10 10.4688)"/>
</clipPath>
</defs>
</svg>
