<svg width="32" height="32" viewBox="0 0 32 32" fill="none" xmlns="http://www.w3.org/2000/svg">
<circle cx="16" cy="16" r="15.5" stroke="#414249"/>
<path d="M23.4303 19.8734C23.0275 18.9191 22.4428 18.0523 21.709 17.3212C20.9774 16.5881 20.1107 16.0035 19.1568 15.5999C19.1483 15.5956 19.1398 15.5935 19.1312 15.5892C20.4617 14.6281 21.3267 13.0627 21.3267 11.2965C21.3267 8.3706 18.9561 6 16.0302 6C13.1043 6 10.7337 8.3706 10.7337 11.2965C10.7337 13.0627 11.5987 14.6281 12.9292 15.5913C12.9207 15.5956 12.9121 15.5977 12.9036 15.602C11.9468 16.0057 11.0882 16.5844 10.3514 17.3234C9.61828 18.055 9.03373 18.9216 8.63008 19.8755C8.23353 20.8093 8.01966 21.8105 8.00005 22.8249C7.99948 22.8477 8.00348 22.8703 8.01181 22.8916C8.02014 22.9128 8.03264 22.9321 8.04856 22.9485C8.06448 22.9648 8.08351 22.9777 8.10452 22.9866C8.12554 22.9955 8.14811 23 8.17091 23H9.45231C9.54628 23 9.62103 22.9253 9.62317 22.8334C9.66588 21.1847 10.3279 19.6406 11.4983 18.4702C12.7092 17.2593 14.3174 16.593 16.0302 16.593C17.743 16.593 19.3512 17.2593 20.5621 18.4702C21.7325 19.6406 22.3945 21.1847 22.4372 22.8334C22.4394 22.9274 22.5141 23 22.6081 23H23.8895C23.9123 23 23.9349 22.9955 23.9559 22.9866C23.9769 22.9777 23.9959 22.9648 24.0118 22.9485C24.0278 22.9321 24.0403 22.9128 24.0486 22.8916C24.0569 22.8703 24.0609 22.8477 24.0604 22.8249C24.039 21.804 23.8276 20.8109 23.4303 19.8734ZM16.0302 14.9698C15.0499 14.9698 14.1273 14.5876 13.4332 13.8935C12.7391 13.1994 12.3568 12.2768 12.3568 11.2965C12.3568 10.3162 12.7391 9.39359 13.4332 8.6995C14.1273 8.0054 15.0499 7.62312 16.0302 7.62312C17.0105 7.62312 17.9331 8.0054 18.6272 8.6995C19.3213 9.39359 19.7036 10.3162 19.7036 11.2965C19.7036 12.2768 19.3213 13.1994 18.6272 13.8935C17.9331 14.5876 17.0105 14.9698 16.0302 14.9698Z" fill="black"/>
</svg>
