<svg width="18" height="18" viewBox="0 0 18 18" fill="none" xmlns="http://www.w3.org/2000/svg">
<path d="M11.4544 16.8812H6.35381V9.74028C6.35381 9.605 6.40755 9.47526 6.5032 9.37961C6.59886 9.28395 6.72859 9.23021 6.86387 9.23021H10.9444C11.0797 9.23021 11.2094 9.28395 11.305 9.37961C11.4007 9.47526 11.4544 9.605 11.4544 9.74028V16.8812V16.8812ZM16.045 16.8812H11.4544V14.4159C11.4544 14.2806 11.5082 14.1508 11.6038 14.0552C11.6995 13.9595 11.8292 13.9058 11.9645 13.9058H16.045C16.1803 13.9058 16.31 13.9595 16.4057 14.0552C16.5013 14.1508 16.5551 14.2806 16.5551 14.4159V16.3711C16.5551 16.5064 16.5013 16.6361 16.4057 16.7318C16.31 16.8274 16.1803 16.8812 16.045 16.8812V16.8812ZM6.35381 16.8812V12.7156C6.35381 12.5804 6.30007 12.4506 6.20441 12.355C6.10876 12.2593 5.97902 12.2056 5.84374 12.2056H1.76324C1.62796 12.2056 1.49822 12.2593 1.40257 12.355C1.30691 12.4506 1.25317 12.5804 1.25317 12.7156V16.3711C1.25317 16.5064 1.30691 16.6361 1.40257 16.7318C1.49822 16.8274 1.62796 16.8812 1.76324 16.8812H6.35381V16.8812ZM7.8891 3.37554L8.66185 1.73738C8.68271 1.69055 8.71669 1.65077 8.75969 1.62285C8.80269 1.59494 8.85286 1.58008 8.90413 1.58008C8.95539 1.58008 9.00556 1.59494 9.04856 1.62285C9.09156 1.65077 9.12554 1.69055 9.14641 1.73738L9.92 3.37554L11.6474 3.63992C11.8693 3.67392 11.9577 3.95956 11.797 4.12278L10.5474 5.39794L10.8424 7.19846C10.8798 7.42969 10.6485 7.60651 10.4496 7.49685L8.90413 6.64674L7.35863 7.49685C7.16056 7.60566 6.92848 7.42969 6.96588 7.19846L7.26087 5.39794L6.01122 4.12278C5.8497 3.95956 5.93896 3.67392 6.15998 3.63992L7.8891 3.37639V3.37554Z" stroke="#747B84" stroke-width="1.16898" stroke-linecap="round" stroke-linejoin="round"/>
</svg>
