<svg width="24" height="27" viewBox="0 0 24 27" fill="none" xmlns="http://www.w3.org/2000/svg">
<path d="M17.6001 18.2C17.3879 18.2 17.1844 18.2843 17.0344 18.4343C16.8843 18.5843 16.8001 18.7878 16.8001 19C16.8001 19.2122 16.8843 19.4157 17.0344 19.5657C17.1844 19.7157 17.3879 19.8 17.6001 19.8H19.2001C19.4122 19.8 19.6157 19.7157 19.7657 19.5657C19.9158 19.4157 20.0001 19.2122 20.0001 19C20.0001 18.7878 19.9158 18.5843 19.7657 18.4343C19.6157 18.2843 19.4122 18.2 19.2001 18.2H17.6001ZM3.20005 7H6.67045L5.55045 8.6H3.20005C2.98788 8.6 2.78439 8.68429 2.63436 8.83431C2.48433 8.98434 2.40005 9.18783 2.40005 9.4C2.40005 9.61217 2.48433 9.81566 2.63436 9.96568C2.78439 10.1157 2.98788 10.2 3.20005 10.2H20.0001C20.8487 10.2 21.6627 10.5371 22.2628 11.1373C22.8629 11.7374 23.2001 12.5513 23.2001 13.4V23C23.2001 23.8487 22.8629 24.6626 22.2628 25.2627C21.6627 25.8629 20.8487 26.2 20.0001 26.2H4.80005C3.73918 26.2 2.72177 25.7786 1.97162 25.0284C1.22148 24.2783 0.800049 23.2609 0.800049 22.2V9.4C0.800049 8.76348 1.05291 8.15303 1.50299 7.70294C1.95308 7.25286 2.56353 7 3.20005 7ZM2.40005 22.2C2.40005 22.8365 2.65291 23.447 3.10299 23.8971C3.55308 24.3471 4.16353 24.6 4.80005 24.6H20.0001C20.4244 24.6 20.8314 24.4314 21.1314 24.1314C21.4315 23.8313 21.6001 23.4243 21.6001 23V13.4C21.6001 12.9757 21.4315 12.5687 21.1314 12.2686C20.8314 11.9686 20.4244 11.8 20.0001 11.8H3.20005C2.92005 11.8 2.64965 11.752 2.40005 11.664V22.2Z" fill="#FE7A01"/>
<path opacity="0.4" d="M12.0672 1.62709C12.2558 1.35662 12.4982 1.12792 12.7791 0.955277C13.0601 0.782633 13.3736 0.669744 13.7002 0.623654C14.0267 0.577564 14.3592 0.599262 14.677 0.687394C14.9948 0.775526 15.291 0.928201 15.5472 1.13589L20.7791 5.38389C21.2466 5.76325 21.5545 6.30444 21.6416 6.90015C21.7287 7.49585 21.5888 8.10254 21.2496 8.59989H19.2976L19.9216 7.70549C20.0377 7.53982 20.0868 7.3363 20.0589 7.1359C20.0309 6.9355 19.9281 6.75312 19.7712 6.62549L17.0768 4.43989L14.2032 8.59989H12.256L15.8304 3.42869L14.5375 2.37909C14.4522 2.30983 14.3535 2.25891 14.2476 2.22949C14.1417 2.20007 14.0309 2.19279 13.922 2.2081C13.8132 2.22342 13.7087 2.26099 13.615 2.31849C13.5213 2.37599 13.4405 2.45217 13.3776 2.54229L9.15195 8.59829H7.19995L12.0672 1.62709Z" fill="#FE7A01"/>
</svg>
