<svg width="98" height="44" viewBox="0 0 98 44" fill="none" xmlns="http://www.w3.org/2000/svg">
<path fill-rule="evenodd" clip-rule="evenodd" d="M24.4194 0.615299C23.812 0.944833 23.0404 1.74547 22.7052 2.39446C22.3696 3.04304 22.095 3.95178 22.095 4.41361C22.095 4.87544 22.3531 5.87089 22.6681 6.62555C22.9868 7.38828 23.7838 8.27806 24.4634 8.62938C25.1354 8.97666 26.1566 9.26102 26.7334 9.26102C27.3102 9.26102 28.3141 8.98553 28.9651 8.64914C29.6157 8.31275 30.4236 7.50485 30.76 6.85425C31.0964 6.20325 31.3719 5.19932 31.3719 4.62254C31.3719 4.04576 31.1089 3.06563 30.7875 2.44407C30.466 1.82251 29.7464 1.01461 29.1882 0.648777C28.6304 0.283346 27.5772 -0.00867661 26.8484 0.000197002C26.1195 0.00907061 25.0265 0.285766 24.4194 0.615299ZM44.6504 1.05374C44.1132 1.6402 41.8198 3.60167 39.5534 5.41269C37.2874 7.22331 34.2139 9.41994 32.7235 10.2936C31.2332 11.1676 28.8449 12.3837 27.4163 12.996C25.9876 13.6087 23.2973 14.4085 21.4375 14.7739C18.6068 15.3302 17.6989 15.3584 15.8649 14.9482C14.6601 14.6784 13.2092 14.0919 12.6409 13.645C12.0726 13.1981 11.608 12.9867 11.608 13.1755C11.608 13.3638 12.4207 15.4846 13.4137 17.8882C14.4068 20.2917 15.6805 23.0833 16.244 24.0916L17.2689 25.9252L11.3127 32.0016C8.03634 35.3438 5.26535 38.1801 5.15443 38.3047C5.04351 38.429 3.68222 39.8758 2.12934 41.519C0.576456 43.1622 -0.331072 44.2553 0.112608 43.9483C0.556289 43.641 1.73608 42.6266 2.73436 41.6941C3.73264 40.7615 6.16562 38.7896 8.1408 37.3117C10.116 35.8342 13.5731 33.7264 15.8233 32.6272C18.1357 31.4979 21.2209 30.3528 22.9202 29.9934C24.8308 29.5896 26.7314 29.4493 28.1334 29.609C29.387 29.7514 31.1093 30.3104 32.1201 30.9025C33.0986 31.4761 33.8214 31.7875 33.7258 31.5943C33.6302 31.4015 33.3394 30.7896 33.0793 30.235C32.8191 29.6804 31.8543 27.5023 30.9355 25.3948C30.0167 23.2874 29.0273 20.9 28.7364 20.0896L28.2085 18.6158L34.9576 11.8211C38.67 8.08365 42.6769 3.98041 43.8623 2.70221C45.0477 1.42401 45.9299 0.290606 45.8222 0.182913C45.7145 0.0752193 45.1873 0.467272 44.6504 1.05374ZM39.0355 19.285C39.0355 22.6166 38.8568 25.8119 38.639 26.3859C38.3736 27.0833 37.8387 27.5096 37.0256 27.6725C36.356 27.8065 35.8087 28.1654 35.8087 28.4704C35.8087 28.7785 36.2169 29.025 36.7271 29.025C37.2325 29.025 38.0243 28.76 38.4869 28.4361C38.9492 28.1122 39.5393 27.3361 39.7978 26.7118C40.1035 25.9736 40.229 23.4749 40.156 19.5693C40.0745 15.2043 39.9059 13.5167 39.5397 13.3949C39.1512 13.2658 39.0355 14.6183 39.0355 19.285ZM53.1526 19.3447C53.1526 24.4538 53.2466 25.3948 53.7576 25.3948C54.1747 25.3948 54.3626 24.9762 54.3626 24.0457C54.3626 23.2369 54.6667 22.4214 55.1213 22.01C55.7638 21.4283 55.9647 21.4078 56.4322 21.8757C56.7359 22.1794 57.4381 23.0942 57.9927 23.9085C58.5473 24.7229 59.2282 25.3904 59.5053 25.392C59.7828 25.3936 60.0095 25.2379 60.0095 25.046C60.0095 24.854 59.6723 24.2643 59.2596 23.7351C58.8474 23.2059 58.2186 22.2044 57.862 21.5094C57.2199 20.257 57.2268 20.2332 58.6615 18.7558C59.6715 17.7159 59.9808 17.138 59.6856 16.8427C59.3899 16.5471 58.6018 17.044 57.0759 18.4871C55.8736 19.6242 54.7712 20.5547 54.626 20.5547C54.4812 20.5547 54.3626 18.9211 54.3626 16.9246C54.3626 13.9669 54.2505 13.2945 53.7576 13.2945C53.2466 13.2945 53.1526 14.2355 53.1526 19.3447ZM85.6001 13.7329C85.4513 13.9741 85.5312 14.3734 85.778 14.6203C86.1075 14.9498 86.3463 14.9498 86.6759 14.6203C86.9227 14.3734 87.0026 13.9741 86.8537 13.7329C86.7045 13.4917 86.4226 13.2945 86.2269 13.2945C86.0313 13.2945 85.7494 13.4917 85.6001 13.7329ZM44.5867 17.1525C43.9793 17.482 43.2077 18.2827 42.8725 18.9316C42.5369 19.5802 42.2622 20.6245 42.2622 21.2517C42.2622 21.8789 42.5716 22.8409 42.9495 23.389C43.3275 23.9376 43.9176 24.6007 44.2604 24.862C44.6033 25.1238 45.4515 25.4453 46.1452 25.5768C46.8386 25.7082 47.8869 25.6332 48.4746 25.4098C49.0622 25.1863 49.6515 24.7209 49.7842 24.3752C49.9169 24.0295 49.9242 23.6451 49.8 23.5213C49.6761 23.3971 49.1595 23.5866 48.652 23.942C48.1446 24.2973 47.3408 24.5882 46.8652 24.5882C46.3901 24.5882 45.5229 24.2118 44.9384 23.752C44.354 23.2926 43.8756 22.6573 43.8756 22.3403C43.8756 21.8841 44.6315 21.7647 47.5182 21.7647C50.4034 21.7647 51.2101 21.6373 51.396 21.1525C51.5255 20.8157 51.398 19.9775 51.1133 19.2898C50.8281 18.6021 50.0363 17.6982 49.3531 17.2815C48.6698 16.8653 47.5662 16.5309 46.9007 16.539C46.2352 16.5471 45.1938 16.8229 44.5867 17.1525ZM64.0429 16.8052C63.7102 16.9262 62.9386 17.4905 62.3287 18.0588C61.424 18.9018 61.2195 19.4403 61.2195 20.979C61.2195 22.2717 61.4805 23.1978 62.048 23.919C62.5033 24.4982 63.5557 25.1758 64.3866 25.4247C65.6031 25.7893 66.1871 25.7558 67.3899 25.2533C68.2111 24.91 68.8831 24.8015 68.8831 25.0121C68.8831 25.2226 69.1553 25.3948 69.4881 25.3948C69.9705 25.3948 70.0931 24.7999 70.0931 22.4597C70.0931 20.4522 69.8938 19.2398 69.4635 18.6255C69.1174 18.131 68.3095 17.4554 67.6686 17.1238C67.0277 16.7923 66.0855 16.5358 65.5756 16.5531C65.0654 16.5704 64.3757 16.6842 64.0429 16.8052ZM71.8928 17.0206C71.7767 17.3231 72.5156 19.3313 73.5349 21.4828C74.5541 23.6346 75.6149 25.3948 75.8924 25.3948C76.1703 25.3948 76.7047 24.7499 77.0807 23.9618C77.4566 23.1732 77.9454 22.6404 78.1665 22.7771C78.3879 22.9139 78.8449 23.5588 79.1817 24.2102C79.5185 24.862 79.9593 25.3948 80.1614 25.3948C80.3635 25.3948 81.3626 23.6346 82.3818 21.4828C83.4011 19.3313 84.14 17.3231 84.0239 17.0206C83.9077 16.7177 83.6467 16.5725 83.4443 16.6979C83.2418 16.8229 82.4109 18.2895 81.5981 19.9565C80.7854 21.6236 79.9585 22.8876 79.7609 22.7654C79.5633 22.6432 79.2854 21.9245 79.1434 21.1678C78.9724 20.2562 79.1051 19.3523 79.5374 18.4859C80.0134 17.5312 80.0686 17.0633 79.7411 16.7491C79.4205 16.4418 79.118 16.5777 78.6775 17.2271C78.3387 17.726 77.9023 18.1346 77.7075 18.1346C77.5127 18.1346 77.3533 17.8624 77.3533 17.5296C77.3533 17.1968 77.0811 16.9246 76.7483 16.9246C76.4155 16.9246 76.1433 17.2767 76.1433 17.7075C76.1433 18.1383 76.3248 18.6025 76.5466 18.7396C76.7685 18.8768 76.95 19.5786 76.95 20.2998C76.95 21.0206 76.6947 21.96 76.3825 22.3867C75.8549 23.1079 75.7097 22.9421 74.3371 20.0501C73.5244 18.3379 72.6894 16.8318 72.4817 16.7036C72.274 16.5753 72.009 16.7177 71.8928 17.0206ZM85.6893 16.7903C85.5412 16.9379 85.4202 18.8332 85.4202 21.0016C85.4202 23.4588 85.5892 25.0484 85.8688 25.221C86.1152 25.3735 86.4754 25.248 86.669 24.9423C86.863 24.6366 87.0239 23.4588 87.0276 22.3254C87.0308 21.1916 86.9183 19.4217 86.7771 18.3928C86.6359 17.3634 86.3939 16.5212 86.2394 16.5212C86.0846 16.5212 85.8369 16.6422 85.6893 16.7903ZM89.2266 17.0464C89.1121 17.3457 89.0709 19.2862 89.1351 21.359C89.2149 23.9287 89.4126 25.1811 89.7562 25.2948C90.1277 25.4178 90.2604 24.7168 90.2604 22.6339C90.2604 20.5954 90.4383 19.6278 90.8969 19.1692C91.247 18.8191 91.8855 18.344 92.3162 18.1136C92.8801 17.8119 93.4073 17.8418 94.2007 18.2205C95.2349 18.7146 95.3147 18.9437 95.5039 21.97C95.6608 24.4764 95.8403 25.1932 96.3106 25.1932C96.7506 25.1932 96.9503 24.6438 97.0427 23.1777C97.1124 22.0689 97.0552 20.5511 96.9152 19.8049C96.7748 19.0587 96.2271 18.0144 95.6971 17.4844C95.0655 16.8528 94.2692 16.5212 93.3843 16.5212C92.6421 16.5212 91.8129 16.7435 91.541 17.0153C91.151 17.4054 90.8771 17.4034 90.241 17.0061C89.5876 16.5983 89.396 16.6055 89.2266 17.0464ZM49.3688 18.7509C49.9298 19.312 50.3146 19.9928 50.2247 20.2635C50.115 20.5926 49.0663 20.7564 47.0689 20.7564C44.3137 20.7564 44.0676 20.6878 43.9535 19.888C43.876 19.3434 44.1729 18.7788 44.7493 18.3754C45.2547 18.0209 46.2715 17.7313 47.0088 17.7313C47.9046 17.7313 48.6871 18.0693 49.3688 18.7509ZM67.8928 18.7215C68.5717 19.4003 68.8831 20.161 68.8831 21.1416C68.8831 22.0338 68.5797 22.8747 68.0764 23.3781C67.5274 23.9271 66.732 24.1848 65.5873 24.1848C64.5878 24.1848 63.6053 23.9138 63.1673 23.5173C62.6933 23.0885 62.4295 22.2887 62.4295 21.2807C62.4295 20.1522 62.7078 19.433 63.4197 18.7215C64.0437 18.0971 64.8706 17.7313 65.6563 17.7313C66.442 17.7313 67.2689 18.0971 67.8928 18.7215Z" fill="white"/>
</svg>
