<svg width="20" height="20" viewBox="0 0 20 20" fill="none" xmlns="http://www.w3.org/2000/svg">
<g clip-path="url(#clip0_633_175)">
<path d="M17.4472 7.55967L12.3376 3.08025C11.8692 2.6613 11.2629 2.42969 10.6344 2.42969C10.006 2.42969 9.39965 2.6613 8.93125 3.08025L3.82165 7.55967C3.55116 7.80158 3.3353 8.09835 3.18846 8.43021C3.04162 8.76207 2.96717 9.1214 2.97005 9.48428V16.9273C2.97005 17.6048 3.23922 18.2547 3.71833 18.7338C4.19745 19.2129 4.84728 19.4821 5.52485 19.4821H15.744C16.4216 19.4821 17.0714 19.2129 17.5506 18.7338C18.0297 18.2547 18.2988 17.6048 18.2988 16.9273V9.47576C18.3005 9.11431 18.2255 8.75662 18.0787 8.42632C17.9319 8.09602 17.7167 7.80063 17.4472 7.55967V7.55967ZM12.3376 17.7789H8.93125V13.5209C8.93125 13.295 9.02097 13.0784 9.18068 12.9187C9.34038 12.759 9.55699 12.6693 9.78285 12.6693H11.486C11.7119 12.6693 11.9285 12.759 12.0882 12.9187C12.2479 13.0784 12.3376 13.295 12.3376 13.5209V17.7789ZM16.5956 16.9273C16.5956 17.1531 16.5059 17.3697 16.3462 17.5294C16.1865 17.6891 15.9699 17.7789 15.744 17.7789H14.0408V13.5209C14.0408 12.8433 13.7717 12.1935 13.2926 11.7143C12.8134 11.2352 12.1636 10.9661 11.486 10.9661H9.78285C9.10527 10.9661 8.45545 11.2352 7.97633 11.7143C7.49721 12.1935 7.22805 12.8433 7.22805 13.5209V17.7789H5.52485C5.29899 17.7789 5.08238 17.6891 4.92268 17.5294C4.76297 17.3697 4.67325 17.1531 4.67325 16.9273V9.47576C4.6734 9.35485 4.6993 9.23535 4.74923 9.12523C4.79915 9.0151 4.87196 8.91687 4.96279 8.83706L10.0724 4.36617C10.2278 4.22964 10.4276 4.15434 10.6344 4.15434C10.8413 4.15434 11.0411 4.22964 11.1965 4.36617L16.3061 8.83706C16.3969 8.91687 16.4697 9.0151 16.5197 9.12523C16.5696 9.23535 16.5955 9.35485 16.5956 9.47576V16.9273Z" fill="#747B84"/>
</g>
<defs>
<clipPath id="clip0_633_175">
<rect width="18.7036" height="18.7036" fill="white" transform="translate(0.415161 0.746094)"/>
</clipPath>
</defs>
</svg>
